<svg width="50" height="50" viewBox="0 0 50 50" version="1.1" xmlns="http://www.w3.org/2000/svg" xmlns:xlink="http://www.w3.org/1999/xlink">
<title>Frame 36</title>
<desc>Created using Figma</desc>
<g id="Canvas" transform="translate(-28878 -4952)">
<clipPath id="clip-0" clip-rule="evenodd">
<path d="M 28878 4952L 28928 4952L 28928 5002L 28878 5002L 28878 4952Z" fill="#FFFFFF"/>
</clipPath>
<g id="Frame 36" clip-path="url(#clip-0)">
<g id="Group">
<g id="Background">
<g id="Shape">
<use xlink:href="#path0_fill" transform="translate(28885 4953)" fill="#3DCC33"/>
</g>
<g id="Shape">
<use xlink:href="#path1_fill" transform="translate(28885 4953)" fill="#000000" fill-opacity="0.07"/>
</g>
<g id="Shape">
<use xlink:href="#path2_fill" transform="translate(28902.8 4953)" fill="#FFFFFF" fill-opacity="0.187217"/>
</g>
<g id="Oval">
<use xlink:href="#path3_fill" transform="translate(28894 4962)" fill="#FFFFFF"/>
</g>
</g>
<g id="Group">
<g id="Vector">
<use xlink:href="#path4_fill" transform="translate(28897 4965)" fill="#3DCC33"/>
</g>
</g>
</g>
</g>
</g>
<defs>
<path id="path0_fill" d="M 30.4636 5.08148C 23.4947 -1.69383 12.1959 -1.69383 5.22697 5.08148C -0.852945 10.9925 -1.73276 20.2782 3.13418 27.1695L 17.8453 48L 32.5565 27.1695C 37.4232 20.2782 36.5434 10.9925 30.4636 5.08148Z"/>
<path id="path1_fill" d="M 6.81984 5.08153C 9.86447 1.69378 13.8548 0 17.8452 0C 13.2783 0 8.71138 1.69378 5.22693 5.08153C -0.852985 10.9926 -1.7327 20.2782 3.13414 27.1696L 17.8453 48L 4.99126 27.1696C 0.738857 20.2782 1.50759 10.9926 6.81984 5.08153Z"/>
<path id="path2_fill" d="M 12.6184 5.08153C 9.13381 1.69378 4.56695 0 0 0C 3.99031 0 7.98081 1.69378 11.0253 5.08153C 16.3376 10.9926 17.1063 20.2782 12.8538 27.1696L 0 48L 14.7111 27.1696C 19.578 20.2782 18.6982 10.9926 12.6184 5.08153Z"/>
<path id="path3_fill" d="M 9 18C 13.9706 18 18 13.9706 18 9C 18 4.02944 13.9706 0 9 0C 4.02944 0 0 4.02944 0 9C 0 13.9706 4.02944 18 9 18Z"/>
<path id="path4_fill" d="M 11.9613 7.80863C 11.8856 7.54044 11.719 7.33854 11.4613 7.20312L 9.22634 6.00003L 11.4613 4.79688C 11.719 4.66146 11.8856 4.4597 11.9613 4.19142C 12.0368 3.92317 12.0019 3.66926 11.8562 3.42971L 11.3185 2.57037C 11.1729 2.33074 10.9559 2.17581 10.6673 2.10548C 10.3789 2.03529 10.106 2.06783 9.84822 2.20333L 7.61331 3.39852L 7.61331 1.00005C 7.61331 0.729172 7.50675 0.494799 7.29386 0.296874C 7.08106 0.0989488 6.82895 0 6.53772 0L 5.46241 0C 5.17106 0 4.91904 0.0990309 4.70618 0.296874C 4.49336 0.494771 4.38688 0.729172 4.38688 1.00005L 4.38688 3.39852L 2.15194 2.20325C 1.89423 2.06774 1.62116 2.0351 1.33273 2.1054C 1.04425 2.17581 0.827183 2.33066 0.681541 2.57029L 0.143853 3.42966C -0.00187717 3.6692 -0.0368382 3.92312 0.0387636 4.19137C 0.114513 4.45956 0.281019 4.66143 0.538724 4.79683L 2.77367 6.00008L 0.538724 7.20317C 0.281019 7.3386 0.114395 7.54038 0.0387636 7.80869C -0.0368088 8.07688 -0.00175945 8.33066 0.143853 8.57021L 0.68157 9.42966C 0.827153 9.6694 1.04413 9.82428 1.33271 9.89471C 1.62125 9.96482 1.8942 9.93234 2.15191 9.79675L 4.38685 8.60145L 4.38685 11.0001C 4.38685 11.2707 4.4933 11.5054 4.70615 11.7032C 4.91901 11.9011 5.17112 12 5.46238 12L 6.5377 12C 6.82892 12 7.08112 11.9011 7.2938 11.7032C 7.50681 11.5053 7.61325 11.2707 7.61325 11.0001L 7.61325 8.60165L 9.84817 9.79694C 10.106 9.93234 10.3788 9.96504 10.6672 9.89471C 10.9558 9.82428 11.1728 9.66951 11.3184 9.42977L 11.8561 8.5704C 12.0019 8.33069 12.0368 8.07683 11.9613 7.80863Z"/>
</defs>
</svg>
