<svg width="24" height="24" viewBox="0 0 24 24" version="1.1" xmlns="http://www.w3.org/2000/svg"
	 xmlns:xlink="http://www.w3.org/1999/xlink">
	<title>Frame</title>
	<desc>Created using Figma</desc>
	<g id="Canvas" transform="translate(-2571 -3479)">
		<clipPath id="clip-0" clip-rule="evenodd">
			<path d="M 2571 3479L 2595 3479L 2595 3503L 2571 3503L 2571 3479Z" fill="#FFFFFF"/>
		</clipPath>
		<g id="Frame" clip-path="url(#clip-0)">
			<g id="medal-on-a-ribbon-for-number-one">
				<g id="Capa_1">
					<g id="Group">
						<g id="Shape">
							<use xlink:href="#path0_fill" transform="translate(2576 3492.64)" fill="#FFFFFF"/>
						</g>
						<g id="Shape">
							<use xlink:href="#path1_fill" transform="translate(2576.77 3482)" fill="#FFFFFF"/>
						</g>
						<g id="Shape">
							<use xlink:href="#path2_fill" transform="translate(2578.35 3483.58)" fill="#FFFFFF"/>
						</g>
					</g>
				</g>
			</g>
		</g>
	</g>
	<defs>
		<path id="path0_fill"
			  d="M 0.18889 5.5364L 2.65209 4.54566C 2.81132 4.48163 2.98889 4.56015 3.04849 4.72113L 3.97119 7.21071C 4.03083 7.37169 4.13552 7.3749 4.20505 7.21793L 6.6389 1.71962L 9.07275 7.21793C 9.14218 7.3749 9.24698 7.37169 9.30662 7.21071L 10.2293 4.72113C 10.2889 4.56011 10.4665 4.48159 10.6257 4.54566L 13.0889 5.5364C 13.2481 5.60043 13.321 5.52512 13.2515 5.36815L 10.8751 0C 9.75807 0.992465 8.2922 1.59977 6.68662 1.61169C 6.67058 1.61179 6.65487 1.61291 6.63887 1.61291C 6.62286 1.61291 6.60716 1.61179 6.59111 1.61169C 4.98554 1.59977 3.51967 0.992465 2.40255 0L 0.0263498 5.36815C -0.043185 5.52516 0.0296593 5.60047 0.18889 5.5364Z"/>
		<path id="path1_fill" fill-rule="evenodd"
			  d="M 5.59082 11.7327C 4.14648 11.665 2.83984 11.075 1.85278 10.1479C 0.712891 9.07715 0 7.55713 0 5.86987C 0 2.62793 2.62769 0 5.86963 0C 9.11157 0 11.7395 2.62793 11.7395 5.86987C 11.7395 7.55713 11.0266 9.07715 9.88672 10.1479C 8.89966 11.075 7.59302 11.6653 6.14868 11.7327C 6.05615 11.7371 5.96338 11.7397 5.86987 11.7397C 5.77612 11.7397 5.68335 11.7371 5.59082 11.7327ZM 10.677 5.86987C 10.677 3.21924 8.52051 1.06274 5.86987 1.06274C 3.21924 1.06274 1.06274 3.21924 1.06299 5.86987C 1.06299 7.11353 1.53784 8.24854 2.31567 9.10278C 3.03076 9.88818 4.00195 10.4358 5.0957 10.6138C 5.3479 10.6548 5.60645 10.677 5.87012 10.677C 6.13354 10.677 6.39209 10.6548 6.64429 10.6138C 7.73804 10.4358 8.70947 9.88818 9.42432 9.10278C 10.2021 8.24854 10.677 7.11353 10.677 5.86987Z"/>
		<path id="path2_fill" fill-rule="evenodd"
			  d="M 4.29053 8.58081C 3.93506 8.58081 3.59009 8.53687 3.25977 8.45532C 2.34424 8.22949 1.54468 7.71045 0.966553 7.00269C 0.362549 6.26343 0 5.31934 0 4.29053C 0 1.9209 1.9209 0 4.29053 0C 6.65991 0 8.58081 1.9209 8.58081 4.29053C 8.58081 5.31934 8.21826 6.26343 7.61426 7.00269C 7.03613 7.71045 6.23657 8.22949 5.32104 8.45532C 4.99097 8.53687 4.64575 8.58081 4.29053 8.58081ZM 4.35327 1.10962L 3.00342 1.83228C 2.96167 1.85474 2.94043 1.90259 2.95215 1.94873L 3.11353 2.58594C 3.12134 2.6167 3.14307 2.64233 3.17212 2.65503C 3.20117 2.66797 3.23462 2.6665 3.2627 2.65137L 4.20361 2.14355L 4.20361 6.48071L 4.20361 6.55762L 4.20361 7.38013C 4.20361 7.43701 4.25 7.4834 4.30713 7.4834L 5.11523 7.4834C 5.17236 7.4834 5.21851 7.43701 5.21851 7.38013L 5.21851 6.92993L 5.21851 6.1084L 5.21851 1.20068C 5.21851 1.1438 5.17212 1.09741 5.11523 1.09741L 4.40186 1.09741C 4.38501 1.09741 4.36816 1.10156 4.35327 1.10962Z"/>
	</defs>
</svg>
