<svg width="24" height="24" viewBox="0 0 24 24" version="1.1" xmlns="http://www.w3.org/2000/svg"
	 xmlns:xlink="http://www.w3.org/1999/xlink">
	<title>Frame 7</title>
	<desc>Created using Figma</desc>
	<g id="Canvas" transform="translate(-2699 -3517)">
		<clipPath id="clip-0" clip-rule="evenodd">
			<path d="M 2699 3517L 2723 3517L 2723 3541L 2699 3541L 2699 3517Z" fill="#FFFFFF"/>
		</clipPath>
		<g id="Frame 7" clip-path="url(#clip-0)">
			<g id="fast-forward-arrows">
				<g id="Capa_1">
					<g id="Shape">
						<use xlink:href="#path0_fill" transform="translate(2701 3520)" fill="#FFFFFF"/>
					</g>
				</g>
			</g>
		</g>
	</g>
	<defs>
		<path id="path0_fill"
			  d="M 20.7083 0.238588C 20.5603 0.0906194 20.385 0.0166148 20.1826 0.0166148L 18.6877 0.0166148C 18.4853 0.0166148 18.31 0.0906194 18.1621 0.238588C 18.014 0.386638 17.9401 0.561851 17.9401 0.76431L 17.9401 8.68316C 17.901 8.59762 17.8505 8.52366 17.788 8.46127L 9.49541 0.168592C 9.34748 0.0207057 9.22304 -0.0299397 9.12166 0.0168603C 9.02045 0.0635375 8.96985 0.188147 8.96985 0.390565L 8.96985 8.68316C 8.93099 8.59762 8.88038 8.52366 8.81812 8.46127L 0.525559 0.168592C 0.377591 0.0207057 0.253064 -0.0299397 0.151855 0.0168603C 0.0506045 0.0635375 0 0.188147 0 0.390565L 0 17.5831C 0 17.7855 0.0507682 17.9103 0.151977 17.9571C 0.253186 18.0037 0.377714 17.953 0.525682 17.8049L 8.81824 9.51227C 8.88042 9.4424 8.93115 9.36831 8.96997 9.2905L 8.96997 17.5831C 8.96997 17.7855 9.02058 17.9101 9.12179 17.9568C 9.223 18.0034 9.3476 17.9527 9.49553 17.8047L 17.7882 9.51211C 17.8505 9.44211 17.9012 9.36794 17.9401 9.29005L 17.9401 17.2089C 17.9401 17.4113 18.0142 17.5864 18.1621 17.7344C 18.31 17.8824 18.4852 17.9564 18.6877 17.9564L 20.1827 17.9564C 20.385 17.9564 20.5604 17.8824 20.7084 17.7344C 20.8563 17.5865 20.9304 17.4113 20.9304 17.2089L 20.9304 0.76431C 20.9302 0.561565 20.8563 0.386515 20.7083 0.238588Z"/>
	</defs>
</svg>
