<svg width="24" height="24" viewBox="0 0 24 24" version="1.1" xmlns="http://www.w3.org/2000/svg"
	 xmlns:xlink="http://www.w3.org/1999/xlink">
	<title>Frame 2</title>
	<desc>Created using Figma</desc>
	<g id="Canvas" transform="translate(-2566 -3437)">
		<clipPath id="clip-0" clip-rule="evenodd">
			<path d="M 2566 3437L 2590 3437L 2590 3461L 2566 3461L 2566 3437Z" fill="#FFFFFF"/>
		</clipPath>
		<g id="Frame 2" clip-path="url(#clip-0)">
			<g id="fast-forward-arrows">
				<g id="Capa_1">
					<g id="Shape">
						<use xlink:href="#path0_fill" transform="translate(2572 3440)" fill="#FFFFFF"/>
					</g>
				</g>
			</g>
		</g>
	</g>
	<defs>
		<path id="path0_fill"
			  d="M 11.7385 0.238588C 11.5905 0.0906194 11.4152 0.0166148 11.2127 0.0166148L 9.71783 0.0166148C 9.51541 0.0166148 9.34016 0.0906194 9.19227 0.238588C 9.04418 0.386638 8.97026 0.561851 8.97026 0.76431L 8.97026 8.68316C 8.93119 8.59762 8.88067 8.52366 8.8182 8.46127L 0.525559 0.168592C 0.377632 0.0207057 0.253186 -0.0299397 0.151814 0.0168603C 0.0506046 0.0635375 0 0.188147 0 0.390565L 0.000122727 17.5831C 0.000122727 17.7855 0.0507273 17.9101 0.151936 17.9568C 0.253145 18.0034 0.377755 17.9527 0.525682 17.8047L 8.81832 9.51211C 8.88063 9.44211 8.93131 9.36794 8.97026 9.29005L 8.97026 17.2089C 8.97026 17.4113 9.0443 17.5864 9.19227 17.7344C 9.34012 17.8824 9.51537 17.9564 9.71783 17.9564L 11.2129 17.9564C 11.4151 17.9564 11.5906 17.8824 11.7386 17.7344C 11.8864 17.5865 11.9605 17.4113 11.9605 17.2089L 11.9605 0.76431C 11.9603 0.561565 11.8864 0.386515 11.7385 0.238588Z"/>
	</defs>
</svg>
