<?xml version="1.0" encoding="UTF-8"?>
<svg width="24px" height="24px" viewBox="0 0 24 24" version="1.1" xmlns="http://www.w3.org/2000/svg"
>
	<!-- Generator: Sketch 42 (36781) - http://www.bohemiancoding.com/sketch -->
	<title>add</title>
	<desc>Created with Sketch.</desc>
	<defs></defs>
	<g id="icons" stroke="none" stroke-width="1" fill="none" fill-rule="evenodd">
		<g id="add">
			<g id="Add">
				<g id="plus" transform="translate(3.000000, 3.000000)" fill-rule="nonzero" fill="#FFFFFF">
					<g id="Capa_1">
						<g id="Group">
							<path
								d="M9,0 C4.03753846,0 0,4.03719231 0,9 C0,13.9628077 4.03753846,18 9,18 C13.9624615,18 18,13.9628077 18,9 C18,4.03719231 13.9624615,0 9,0 Z M9,17.3076923 C4.41934615,17.3076923 0.692307692,13.5806538 0.692307692,9 C0.692307692,4.41934615 4.41934615,0.692307692 9,0.692307692 C13.5806538,0.692307692 17.3076923,4.41934615 17.3076923,9 C17.3076923,13.5806538 13.5806538,17.3076923 9,17.3076923 Z"
								id="Shape"></path>
							<path
								d="M13.3269231,8.65384615 L9.34615385,8.65384615 L9.34615385,4.84615385 C9.34615385,4.65473077 9.19107692,4.5 9,4.5 C8.80892308,4.5 8.65384615,4.65473077 8.65384615,4.84615385 L8.65384615,8.65384615 L4.67307692,8.65384615 C4.482,8.65384615 4.32692308,8.80857692 4.32692308,9 C4.32692308,9.19142308 4.482,9.34615385 4.67307692,9.34615385 L8.65384615,9.34615385 L8.65384615,13.5 C8.65384615,13.6914231 8.80892308,13.8461538 9,13.8461538 C9.19107692,13.8461538 9.34615385,13.6914231 9.34615385,13.5 L9.34615385,9.34615385 L13.3269231,9.34615385 C13.518,9.34615385 13.6730769,9.19142308 13.6730769,9 C13.6730769,8.80857692 13.518,8.65384615 13.3269231,8.65384615 Z"
								id="Shape"></path>
						</g>
					</g>
				</g>
				<rect id="Rectangle-2" x="0" y="0" width="24" height="24"></rect>
			</g>
		</g>
	</g>
</svg>
