<svg width="32" height="32" viewBox="0 0 32 32" version="1.1" xmlns="http://www.w3.org/2000/svg" xmlns:xlink="http://www.w3.org/1999/xlink" xmlns:figma="http://www.figma.com/figma/ns">
<title>binary-code</title>
<desc>Created using Figma</desc>
<g id="Canvas" transform="translate(-460 -536)" figma:type="canvas">
<g id="binary-code" style="mix-blend-mode:normal;" figma:type="frame">
<g id="Capa_1" style="mix-blend-mode:normal;" figma:type="frame">
<g id="rect34754" style="mix-blend-mode:normal;" figma:type="vector-operation">
<use xlink:href="#path0_fill" transform="translate(460.124 536.092)" fill="#FFFFFF" style="mix-blend-mode:normal;"/>
</g>
</g>
</g>
</g>
<defs>
<path id="path0_fill" fill-rule="evenodd" d="M 9.34693 0.00024418C 9.18817 0.00494389 9.03726 0.0716553 8.92496 0.186523L 7.05725 2.09888C 6.81134 2.34491 6.80673 2.74854 7.04703 3.00037C 7.28736 3.25214 7.68155 3.25684 7.92749 3.0108L 7.93781 3.00024L 8.74256 2.17627L 8.74256 7.64917L 7.49741 7.64917C 7.15363 7.64417 6.87085 7.92554 6.866 8.27753C 6.86115 8.62952 7.13596 8.91907 7.47974 8.92407C 7.48557 8.92419 7.49143 8.92419 7.49729 8.92407L 9.26312 8.92407C 9.32974 8.93524 9.39762 8.93524 9.46424 8.92407L 10.6101 8.92407C 10.9539 8.92902 11.2367 8.64764 11.2415 8.29565C 11.2464 7.94366 10.9716 7.65411 10.6278 7.64917C 10.622 7.64905 10.6161 7.64905 10.6103 7.64917L 9.98767 7.64917L 9.98767 0.637207C 9.98755 0.285095 9.70865 -0.000122031 9.36475 3.91691e-08L 9.34693 0.00024418ZM 16.213 0.00024418C 16.0542 0.00494389 15.9033 0.0716553 15.791 0.186523L 13.9233 2.09888C 13.6753 2.34277 13.6672 2.74628 13.9054 3.00024C 14.1436 3.25421 14.5377 3.26245 14.7857 3.01855C 14.7918 3.01257 14.7978 3.00647 14.8036 3.00024L 15.6086 2.17603L 15.6086 7.64917L 14.3635 7.64917C 14.0197 7.64417 13.7369 7.92554 13.7321 8.27753C 13.7272 8.62952 14.002 8.91907 14.3458 8.92407C 14.3516 8.92419 14.3575 8.92419 14.3633 8.92407L 16.1292 8.92407C 16.196 8.93524 16.2642 8.93524 16.331 8.92407L 17.4762 8.92407C 17.8199 8.92902 18.1027 8.64764 18.1076 8.29565C 18.1124 7.94366 17.8376 7.65411 17.4939 7.64917C 17.488 7.64905 17.4821 7.64905 17.4763 7.64917L 16.8537 7.64917L 16.8537 0.637207C 16.8536 0.285095 16.5747 -0.000122031 16.2308 3.91691e-08L 16.213 0.00024418ZM 0.00891338 2.23566C 0.00891338 1.01062 0.991457 0.00457768 2.1879 0.00457768C 3.38434 0.00457768 4.36688 1.01062 4.36688 2.23566L 4.36688 6.69781C 4.36688 7.92285 3.38434 8.92889 2.1879 8.92889C 0.991457 8.92889 0.00891338 7.92285 0.00891338 6.69781L 0.00891338 2.23566ZM 22.7859 0.00457768C 21.5895 0.00457768 20.6069 1.01062 20.6069 2.23566L 20.6069 6.69781C 20.6069 7.92285 21.5895 8.92889 22.7859 8.92889C 23.9824 8.92889 24.9649 7.92285 24.9649 6.69781L 24.9649 2.23566C 24.9649 1.01062 23.9822 0.00457768 22.7859 0.00457768ZM 27.473 2.23566C 27.473 1.01062 28.4555 0.00457768 29.652 0.00457768C 30.8483 0.00457768 31.831 1.01062 31.831 2.23566L 31.831 6.69781C 31.831 7.92285 30.8484 8.92889 29.652 8.92889C 28.4555 8.92889 27.473 7.92285 27.473 6.69781L 27.473 2.23566ZM 2.18787 1.27948C 2.71594 1.27948 3.12174 1.69495 3.12174 2.23566L 3.12174 6.69781C 3.12174 7.23846 2.71594 7.65399 2.18787 7.65399C 1.65982 7.65399 1.25403 7.23846 1.25403 6.69781L 1.25403 2.23566C 1.25403 1.69482 1.65982 1.27948 2.18787 1.27948ZM 23.7198 2.23566C 23.7198 1.69495 23.314 1.27948 22.7859 1.27948C 22.2578 1.27948 21.8521 1.69482 21.8521 2.23566L 21.8521 6.69781C 21.8521 7.23846 22.2579 7.65399 22.7859 7.65399C 23.314 7.65399 23.7198 7.23846 23.7198 6.69781L 23.7198 2.23566ZM 29.652 1.27948C 30.1801 1.27948 30.5858 1.69495 30.5858 2.23566L 30.5858 6.69781C 30.5858 7.23846 30.1801 7.65399 29.652 7.65399C 29.1239 7.65399 28.7181 7.23846 28.7181 6.69781L 28.7181 2.23566C 28.7181 1.69482 29.1238 1.27948 29.652 1.27948ZM 2.05902 11.6697C 2.17133 11.5548 2.32224 11.4881 2.48099 11.4834C 2.48697 11.4832 2.49307 11.4832 2.49906 11.4832C 2.84296 11.4832 3.12174 11.7685 3.12174 12.1206L 3.12174 19.1326L 3.74433 19.1326C 3.75015 19.1324 3.75601 19.1324 3.76187 19.1326C 4.10565 19.1375 4.38046 19.4271 4.37561 19.7791C 4.37073 20.131 4.08798 20.4124 3.7442 20.4075L 2.59903 20.4075C 2.53217 20.4187 2.46405 20.4187 2.39719 20.4075L 0.63135 20.4075C 0.625491 20.4076 0.619631 20.4076 0.613802 20.4075C 0.270022 20.4025 -0.00478901 20.113 6.32806e-05 19.7609C 0.00491558 19.4089 0.287691 19.1276 0.631472 19.1326L 1.87662 19.1326L 1.87662 13.6597L 1.07187 14.4836C 0.828829 14.7322 0.435 14.7322 0.191927 14.4836C -0.0513588 14.2349 -0.051725 13.8311 0.191317 13.582L 2.05902 11.6697ZM 16.213 11.4834C 16.0542 11.4881 15.9033 11.5548 15.791 11.6697L 13.9233 13.582C 13.6773 13.8281 13.6727 14.2316 13.9128 14.4835C 14.1532 14.7354 14.5472 14.7401 14.7933 14.4942L 14.8036 14.4836L 15.6086 13.6594L 15.6086 19.1326L 14.3635 19.1326C 14.0197 19.1276 13.7369 19.4089 13.7321 19.7609C 13.7272 20.113 14.002 20.4025 14.3458 20.4075C 14.3516 20.4076 14.3575 20.4076 14.3633 20.4075L 16.1292 20.4075C 16.196 20.4187 16.2642 20.4187 16.331 20.4075L 17.4762 20.4075C 17.82 20.4124 18.1027 20.131 18.1076 19.7791C 18.1125 19.4271 17.8376 19.1375 17.4939 19.1326C 17.488 19.1324 17.4821 19.1324 17.4763 19.1326L 16.8537 19.1326L 16.8537 12.1206C 16.8537 11.7685 16.575 11.4832 16.2311 11.4832C 16.2251 11.4832 16.219 11.4832 16.213 11.4834ZM 22.6569 11.6697C 22.7692 11.5548 22.9201 11.4881 23.0789 11.4834C 23.085 11.4832 23.0911 11.4832 23.097 11.4832C 23.4409 11.4832 23.7196 11.7685 23.7196 12.1206L 23.7196 19.1326L 24.3422 19.1326C 24.3481 19.1324 24.3539 19.1324 24.3598 19.1326C 24.7036 19.1375 24.9784 19.4271 24.9735 19.7791C 24.9686 20.131 24.6859 20.4124 24.3421 20.4075L 23.1969 20.4075C 23.1301 20.4187 23.062 20.4187 22.9951 20.4075L 21.2293 20.4075C 21.2234 20.4076 21.2175 20.4076 21.2117 20.4075C 20.8679 20.4025 20.5931 20.113 20.598 19.7609C 20.6028 19.4089 20.8856 19.1276 21.2294 19.1326L 22.4745 19.1326L 22.4745 13.6594L 21.6695 14.4836L 21.6592 14.4942C 21.4131 14.7401 21.0191 14.7354 20.7787 14.4835C 20.5386 14.2316 20.5432 13.8281 20.7892 13.582L 22.6569 11.6697ZM 9.05396 11.4876C 7.85752 11.4876 6.87497 12.4937 6.87497 13.7187L 6.87497 18.1808C 6.87497 19.4059 7.85752 20.4119 9.05396 20.4119C 10.2504 20.4119 11.2329 19.4059 11.2329 18.1808L 11.2329 13.7187C 11.2329 12.4937 10.2503 11.4876 9.05396 11.4876ZM 27.473 13.7187C 27.473 12.4937 28.4555 11.4876 29.652 11.4876C 30.8483 11.4876 31.831 12.4937 31.831 13.7187L 31.831 18.1808C 31.831 19.4059 30.8484 20.4119 29.652 20.4119C 28.4555 20.4119 27.473 19.4059 27.473 18.1808L 27.473 13.7187ZM 9.05393 12.7625C 9.582 12.7625 9.9878 13.178 9.9878 13.7187L 9.9878 18.1808C 9.9878 18.7215 9.582 19.137 9.05393 19.137C 8.52588 19.137 8.12009 18.7215 8.12009 18.1808L 8.12009 13.7187C 8.12009 13.1779 8.52576 12.7625 9.05393 12.7625ZM 30.5858 13.7187C 30.5858 13.178 30.1801 12.7625 29.652 12.7625C 29.1238 12.7625 28.7181 13.1779 28.7181 13.7187L 28.7181 18.1808C 28.7181 18.7215 29.1239 19.137 29.652 19.137C 30.1801 19.137 30.5858 18.7215 30.5858 18.1808L 30.5858 13.7187ZM 2.48099 22.9664C 2.32224 22.9711 2.17133 23.0378 2.05902 23.1527L 0.191317 25.0651C -0.0518471 25.314 -0.0518471 25.7177 0.191317 25.9667C 0.434481 26.2156 0.828707 26.2156 1.07187 25.9667L 1.87662 25.1427L 1.87662 30.6154L 0.631472 30.6154C 0.287691 30.6104 0.00491558 30.8917 6.32806e-05 31.2437C -0.00478901 31.5957 0.270022 31.8853 0.613802 31.8903C 0.619631 31.8904 0.625491 31.8904 0.63135 31.8903L 2.39719 31.8903C 2.46405 31.9014 2.53217 31.9014 2.59903 31.8903L 3.7442 31.8903C 4.08798 31.8952 4.37073 31.6138 4.37561 31.2618C 4.38046 30.9099 4.10565 30.6203 3.76187 30.6154C 3.75601 30.6152 3.75015 30.6152 3.74433 30.6154L 3.12174 30.6154L 3.12174 23.6034C 3.12161 23.2513 2.84271 22.9661 2.49881 22.9662L 2.48099 22.9664ZM 8.92496 23.1527C 9.03726 23.0378 9.18817 22.9711 9.34693 22.9664L 9.36475 22.9662C 9.70865 22.9661 9.98755 23.2513 9.98767 23.6034L 9.98767 30.6154L 10.6103 30.6154C 10.6161 30.6152 10.622 30.6152 10.6278 30.6154C 10.9716 30.6203 11.2464 30.9099 11.2415 31.2618C 11.2367 31.6138 10.9539 31.8952 10.6101 31.8903L 9.46424 31.8903C 9.39762 31.9014 9.32974 31.9014 9.26312 31.8903L 7.49729 31.8903C 7.49143 31.8904 7.48557 31.8904 7.47974 31.8903C 7.13596 31.8853 6.86115 31.5957 6.866 31.2437C 6.87085 30.8917 7.15363 30.6104 7.49741 30.6154L 8.74256 30.6154L 8.74256 25.1427L 7.93781 25.9667C 7.69464 26.2156 7.30042 26.2156 7.05725 25.9667C 6.81409 25.7177 6.81409 25.314 7.05725 25.0651L 8.92496 23.1527ZM 16.213 22.9664C 16.0542 22.9711 15.9033 23.0378 15.791 23.1527L 13.9233 25.0651C 13.6773 25.3111 13.6727 25.7146 13.9128 25.9666C 14.1532 26.2184 14.5472 26.2231 14.7933 25.9772L 14.8036 25.9667L 15.6086 25.1425L 15.6086 30.6154L 14.3635 30.6154C 14.0197 30.6104 13.7369 30.8917 13.7321 31.2437C 13.7272 31.5957 14.002 31.8853 14.3458 31.8903C 14.3516 31.8904 14.3575 31.8904 14.3633 31.8903L 16.1292 31.8903C 16.196 31.9014 16.2642 31.9014 16.331 31.8903L 17.4762 31.8903C 17.82 31.8952 18.1027 31.6138 18.1076 31.2618C 18.1125 30.9099 17.8376 30.6203 17.4939 30.6154C 17.488 30.6152 17.4821 30.6152 17.4763 30.6154L 16.8537 30.6154L 16.8537 23.6034C 16.8536 23.2513 16.5747 22.9661 16.2308 22.9662L 16.213 22.9664ZM 22.6569 23.1527C 22.7692 23.0378 22.9201 22.9711 23.0789 22.9664L 23.0967 22.9662C 23.4406 22.9661 23.7195 23.2513 23.7196 23.6034L 23.7196 30.6154L 24.3422 30.6154C 24.3481 30.6152 24.3539 30.6152 24.3598 30.6154C 24.7036 30.6203 24.9784 30.9099 24.9735 31.2618C 24.9686 31.6138 24.6859 31.8952 24.3421 31.8903L 23.1969 31.8903C 23.1301 31.9014 23.062 31.9014 22.9951 31.8903L 21.2293 31.8903C 21.2234 31.8904 21.2175 31.8904 21.2117 31.8903C 20.8679 31.8853 20.5931 31.5957 20.598 31.2437C 20.6028 30.8917 20.8856 30.6104 21.2294 30.6154L 22.4745 30.6154L 22.4745 25.1425L 21.6695 25.9667L 21.6592 25.9772C 21.4131 26.2231 21.0191 26.2184 20.7787 25.9666C 20.5386 25.7146 20.5432 25.3111 20.7892 25.0651L 22.6569 23.1527ZM 29.652 22.9706C 28.4555 22.9706 27.473 23.9767 27.473 25.2017L 27.473 29.6639C 27.473 30.8889 28.4555 31.895 29.652 31.895C 30.8484 31.895 31.831 30.8889 31.831 29.6639L 31.831 25.2017C 31.831 23.9768 30.8483 22.9706 29.652 22.9706ZM 30.5858 25.2017C 30.5858 24.661 30.1801 24.2455 29.652 24.2455C 29.1238 24.2455 28.7181 24.661 28.7181 25.2017L 28.7181 29.6639C 28.7181 30.2045 29.1239 30.6201 29.652 30.6201C 30.1801 30.6201 30.5858 30.2045 30.5858 29.6639L 30.5858 25.2017Z"/>
</defs>
</svg>
