<?xml version="1.0" encoding="UTF-8"?>
<svg width="32px" height="32px" viewBox="0 0 32 32" version="1.1" xmlns="http://www.w3.org/2000/svg"
	 xmlns:xlink="http://www.w3.org/1999/xlink">
	<!-- Generator: Sketch 42 (36781) - http://www.bohemiancoding.com/sketch -->
	<title>Artboard 2</title>
	<desc>Created with Sketch.</desc>
	<defs></defs>
	<g id="Draft" stroke="none" stroke-width="1" fill="none" fill-rule="evenodd">
		<g id="Artboard-2" fill-rule="nonzero" fill="#FFFFFF">
			<g id="apps">
				<g id="Capa_1">
					<g id="Group">
						<path
							d="M3.52972014,0 C1.60283959,0 0.0352764505,1.55693559 0.0352764505,3.47064407 C0.0352764505,3.83002034 0.328737201,4.12149153 0.690566553,4.12149153 C1.0523959,4.12149153 1.34585666,3.83002034 1.34585666,3.47064407 C1.34585666,2.27471186 2.32551536,1.30169492 3.52972014,1.30169492 C4.73392491,1.30169492 5.71358362,2.27471186 5.71358362,3.47064407 C5.71358362,4.66657627 4.73392491,5.63970169 3.52972014,5.63970169 C3.16789078,5.63970169 2.87443003,5.93117288 2.87443003,6.29054915 C2.87443003,6.64992542 3.16789078,6.94139661 3.52972014,6.94139661 C5.45660068,6.94139661 7.02416382,5.38435254 7.02416382,3.47064407 C7.02416382,1.55693559 5.45649147,0 3.52972014,0 Z"
							id="Shape"></path>
						<path
							d="M15.991372,0 C14.0644915,0 12.4969283,1.55693559 12.4969283,3.47064407 C12.4969283,5.38435254 14.0646007,6.94139661 15.991372,6.94139661 C17.9181433,6.94139661 19.4858157,5.38435254 19.4858157,3.47064407 C19.4858157,1.55693559 17.9181433,0 15.991372,0 Z M15.991372,5.63970169 C14.7871672,5.63970169 13.8075085,4.66668475 13.8075085,3.47064407 C13.8075085,2.27471186 14.7871672,1.30169492 15.991372,1.30169492 C17.1955768,1.30169492 18.1752355,2.27471186 18.1752355,3.47064407 C18.1752355,4.66668475 17.1955768,5.63970169 15.991372,5.63970169 Z"
							id="Shape"></path>
						<path
							d="M28.4530239,6.94139661 C30.3799044,6.94139661 31.9474676,5.38435254 31.9474676,3.47064407 C31.9474676,1.55693559 30.3799044,0 28.4530239,0 C26.5261433,0 24.9585802,1.55693559 24.9585802,3.47064407 C24.9585802,5.38435254 26.5261433,6.94139661 28.4530239,6.94139661 Z M28.4530239,1.30169492 C29.6571195,1.30169492 30.6368874,2.27471186 30.6368874,3.47064407 C30.6368874,4.66668475 29.6572287,5.63970169 28.4530239,5.63970169 C27.2488191,5.63970169 26.2691604,4.66668475 26.2691604,3.47064407 C26.2691604,2.27471186 27.2488191,1.30169492 28.4530239,1.30169492 Z"
							id="Shape"></path>
						<path
							d="M3.52972014,12.520678 C1.60283959,12.520678 0.0352764505,14.077722 0.0352764505,15.9914305 C0.0352764505,17.905139 1.60283959,19.4621831 3.52972014,19.4621831 C5.45660068,19.4621831 7.02416382,17.905139 7.02416382,15.9914305 C7.02416382,14.077722 5.45649147,12.520678 3.52972014,12.520678 Z M3.52972014,18.1604881 C2.32562457,18.1604881 1.34585666,17.1874712 1.34585666,15.9914305 C1.34585666,14.7953898 2.32551536,13.8223729 3.52972014,13.8223729 C4.73392491,13.8223729 5.71358362,14.7953898 5.71358362,15.9914305 C5.71358362,17.1874712 4.73392491,18.1604881 3.52972014,18.1604881 Z"
							id="Shape"></path>
						<path
							d="M18.8305256,15.3405831 C18.4686962,15.3405831 18.1752355,15.6320542 18.1752355,15.9914305 C18.1752355,17.1873627 17.1955768,18.1604881 15.991372,18.1604881 C14.7871672,18.1604881 13.8075085,17.1873627 13.8075085,15.9914305 C13.8075085,14.7954983 14.7871672,13.8223729 15.991372,13.8223729 C16.3532014,13.8223729 16.6466621,13.5309017 16.6466621,13.1715254 C16.6466621,12.8121492 16.3532014,12.520678 15.991372,12.520678 C14.0644915,12.520678 12.4969283,14.077722 12.4969283,15.9914305 C12.4969283,17.905139 14.0646007,19.4621831 15.991372,19.4621831 C17.9181433,19.4621831 19.4858157,17.905139 19.4858157,15.9914305 C19.4858157,15.6319458 19.1923549,15.3405831 18.8305256,15.3405831 Z"
							id="Shape"></path>
						<path
							d="M28.4530239,12.520678 C26.5261433,12.520678 24.9585802,14.077722 24.9585802,15.9914305 C24.9585802,17.905139 26.5262526,19.4621831 28.4530239,19.4621831 C30.3797952,19.4621831 31.9474676,17.905139 31.9474676,15.9914305 C31.9474676,14.077722 30.3799044,12.520678 28.4530239,12.520678 Z M28.4530239,18.1604881 C27.2488191,18.1604881 26.2691604,17.1874712 26.2691604,15.9914305 C26.2691604,14.7953898 27.2488191,13.8223729 28.4530239,13.8223729 C29.6571195,13.8223729 30.6368874,14.7953898 30.6368874,15.9914305 C30.6368874,17.1874712 29.6571195,18.1604881 28.4530239,18.1604881 Z"
							id="Shape"></path>
						<path
							d="M3.52972014,25.0414644 C1.60283959,25.0414644 0.0352764505,26.5985085 0.0352764505,28.5122169 C0.0352764505,30.4259254 1.60283959,31.982861 3.52972014,31.982861 C5.45660068,31.982861 7.02416382,30.4259254 7.02416382,28.5122169 C7.02416382,26.5985085 5.45649147,25.0414644 3.52972014,25.0414644 Z M3.52972014,30.6811661 C2.32562457,30.6811661 1.34585666,29.7081492 1.34585666,28.5122169 C1.34585666,27.3161763 2.32551536,26.3431593 3.52972014,26.3431593 C4.73392491,26.3431593 5.71358362,27.3161763 5.71358362,28.5122169 C5.71358362,29.7081492 4.73392491,30.6811661 3.52972014,30.6811661 Z"
							id="Shape"></path>
						<path
							d="M15.991372,25.0414644 C14.0644915,25.0414644 12.4969283,26.5985085 12.4969283,28.5122169 C12.4969283,30.4259254 14.0646007,31.982861 15.991372,31.982861 C17.9181433,31.982861 19.4858157,30.4259254 19.4858157,28.5122169 C19.4858157,26.5985085 17.9181433,25.0414644 15.991372,25.0414644 Z M15.991372,30.6811661 C14.7871672,30.6811661 13.8075085,29.7081492 13.8075085,28.5122169 C13.8075085,27.3161763 14.7871672,26.3431593 15.991372,26.3431593 C17.1955768,26.3431593 18.1752355,27.3161763 18.1752355,28.5122169 C18.1752355,29.7081492 17.1955768,30.6811661 15.991372,30.6811661 Z"
							id="Shape"></path>
						<path
							d="M28.4530239,25.0414644 C26.5261433,25.0414644 24.9585802,26.5985085 24.9585802,28.5122169 C24.9585802,30.4259254 26.5262526,31.982861 28.4530239,31.982861 C30.3797952,31.982861 31.9474676,30.4259254 31.9474676,28.5122169 C31.9474676,26.5985085 30.3799044,25.0414644 28.4530239,25.0414644 Z M28.4530239,30.6811661 C27.2488191,30.6811661 26.2691604,29.7081492 26.2691604,28.5122169 C26.2691604,27.3161763 27.2488191,26.3431593 28.4530239,26.3431593 C29.6571195,26.3431593 30.6368874,27.3161763 30.6368874,28.5122169 C30.6368874,29.7081492 29.6571195,30.6811661 28.4530239,30.6811661 Z"
							id="Shape"></path>
					</g>
				</g>
			</g>
		</g>
	</g>
</svg>
