<svg width="32" height="32" viewBox="0 0 32 32" version="1.1" xmlns="http://www.w3.org/2000/svg" xmlns:xlink="http://www.w3.org/1999/xlink" xmlns:figma="http://www.figma.com/figma/ns">
<title>layers</title>
<desc>Created using Figma</desc>
<g id="Canvas" transform="translate(-460 -344)" figma:type="canvas">
<g id="layers" style="mix-blend-mode:normal;" figma:type="frame">
<g id="Capa_1" style="mix-blend-mode:normal;" figma:type="frame">
<g id="Group" style="mix-blend-mode:normal;" figma:type="frame">
<g id="Oval" style="mix-blend-mode:normal;" figma:type="vector">
<use xlink:href="#path0_fill" transform="translate(485.612 358.531)" fill="#FFFFFF" style="mix-blend-mode:normal;"/>
</g>
<g id="Oval" style="mix-blend-mode:normal;" figma:type="vector">
<use xlink:href="#path0_fill" transform="translate(464.667 358.531)" fill="#FFFFFF" style="mix-blend-mode:normal;"/>
</g>
<g id="Oval" style="mix-blend-mode:normal;" figma:type="vector">
<use xlink:href="#path0_fill" transform="translate(466.412 360.277)" fill="#FFFFFF" style="mix-blend-mode:normal;"/>
</g>
<g id="Oval" style="mix-blend-mode:normal;" figma:type="vector">
<use xlink:href="#path0_fill" transform="translate(469.903 360.277)" fill="#FFFFFF" style="mix-blend-mode:normal;"/>
</g>
<g id="Oval" style="mix-blend-mode:normal;" figma:type="vector">
<use xlink:href="#path0_fill" transform="translate(468.158 362.022)" fill="#FFFFFF" style="mix-blend-mode:normal;"/>
</g>
<g id="Oval" style="mix-blend-mode:normal;" figma:type="vector">
<use xlink:href="#path0_fill" transform="translate(471.649 362.022)" fill="#FFFFFF" style="mix-blend-mode:normal;"/>
</g>
<g id="Oval" style="mix-blend-mode:normal;" figma:type="vector">
<use xlink:href="#path0_fill" transform="translate(473.394 363.768)" fill="#FFFFFF" style="mix-blend-mode:normal;"/>
</g>
<g id="Oval" style="mix-blend-mode:normal;" figma:type="vector">
<use xlink:href="#path0_fill" transform="translate(476.885 363.768)" fill="#FFFFFF" style="mix-blend-mode:normal;"/>
</g>
<g id="Oval" style="mix-blend-mode:normal;" figma:type="vector">
<use xlink:href="#path0_fill" transform="translate(478.63 362.022)" fill="#FFFFFF" style="mix-blend-mode:normal;"/>
</g>
<g id="Oval" style="mix-blend-mode:normal;" figma:type="vector">
<use xlink:href="#path0_fill" transform="translate(475.139 365.513)" fill="#FFFFFF" style="mix-blend-mode:normal;"/>
</g>
<g id="Oval" style="mix-blend-mode:normal;" figma:type="vector">
<use xlink:href="#path0_fill" transform="translate(480.376 360.277)" fill="#FFFFFF" style="mix-blend-mode:normal;"/>
</g>
<g id="Oval" style="mix-blend-mode:normal;" figma:type="vector">
<use xlink:href="#path0_fill" transform="translate(483.867 360.277)" fill="#FFFFFF" style="mix-blend-mode:normal;"/>
</g>
<g id="Oval" style="mix-blend-mode:normal;" figma:type="vector">
<use xlink:href="#path0_fill" transform="translate(482.121 362.022)" fill="#FFFFFF" style="mix-blend-mode:normal;"/>
</g>
<g id="Shape" style="mix-blend-mode:normal;" figma:type="vector-operation">
<use xlink:href="#path1_fill" transform="translate(460 344.481)" fill="#FFFFFF" style="mix-blend-mode:normal;"/>
</g>
</g>
</g>
</g>
</g>
<defs>
<path id="path0_fill" d="M 0.581818 1.16364C 0.903147 1.16364 1.16364 0.903147 1.16364 0.581818C 1.16364 0.260489 0.903147 0 0.581818 0C 0.260489 0 0 0.260489 0 0.581818C 0 0.903147 0.260489 1.16364 0.581818 1.16364Z"/>
<path id="path1_fill" fill-rule="evenodd" d="M 31.9727 15.4781L 26.507 18.6007L 26.4926 18.6103C 26.4618 18.631 26.4318 18.651 26.3965 18.6642L 26.3552 18.688L 31.9732 21.8781L 15.9866 31.0115L 0 21.8781L 5.61804 18.688L 0 15.4781L 5.61804 12.288L 0 9.07809L 15.9866 0L 31.9727 9.07809L 26.3546 12.288L 31.9727 15.4781ZM 29.6221 9.08099L 15.9866 1.33759L 2.35114 9.08099L 15.9872 16.8716L 25.1788 11.6201L 29.6221 9.08099ZM 6.47507 13.1392C 6.56931 13.3329 6.76422 13.4691 6.99405 13.4691C 7.15112 13.4691 7.29193 13.4057 7.39667 13.3044L 8.71274 14.0562C 8.40439 14.0707 8.15768 14.3209 8.15768 14.6327C 8.15768 14.9539 8.41833 15.2145 8.7395 15.2145C 9.06067 15.2145 9.32132 14.9539 9.32132 14.6327C 9.32132 14.5321 9.28931 14.4425 9.24451 14.3599L 15.2547 17.7937C 15.1872 17.8886 15.1395 17.9985 15.1395 18.1236C 15.1395 18.4448 15.4001 18.7054 15.7213 18.7054C 16.0425 18.7054 16.3031 18.4448 16.3031 18.1236C 16.3031 18.1056 16.2986 18.0893 16.294 18.0728L 16.2939 18.0724C 16.291 18.062 16.2881 18.0515 16.2863 18.0404L 22.1347 14.6991C 22.169 14.9876 22.4052 15.214 22.7031 15.214C 23.0243 15.214 23.2849 14.9533 23.2849 14.6321C 23.2849 14.4431 23.189 14.2825 23.0487 14.1766L 24.3299 13.4446C 24.3418 13.4473 24.3535 13.4505 24.3651 13.4537L 24.3655 13.4538C 24.3925 13.4612 24.4194 13.4685 24.4486 13.4685C 24.7069 13.4685 24.9181 13.2975 24.9943 13.0647L 25.1805 12.9583L 29.6221 15.4804L 28.4684 16.1396C 28.377 15.9377 28.1757 15.7958 27.9401 15.7958C 27.6189 15.7958 27.3583 16.0564 27.3583 16.3776C 27.3583 16.5033 27.4066 16.6132 27.4741 16.7081L 25.1788 18.0195L 21.4621 20.1431C 21.5075 20.0605 21.5401 19.9698 21.5401 19.8685C 21.5401 19.5473 21.2794 19.2867 20.9583 19.2867C 20.6371 19.2867 20.3764 19.5473 20.3764 19.8685C 20.3764 20.1809 20.6243 20.4311 20.9333 20.4451L 19.6166 21.1974C 19.5119 21.0961 19.3705 21.0321 19.2128 21.0321C 18.8916 21.0321 18.631 21.2928 18.631 21.614C 18.631 21.648 18.6397 21.6794 18.6485 21.7108C 18.6517 21.7223 18.6549 21.7338 18.6577 21.7455L 15.9872 23.271L 12.7773 21.4371C 12.7017 21.2038 12.4899 21.0321 12.231 21.0321C 12.2016 21.0321 12.1744 21.0397 12.1473 21.0472L 12.147 21.0473C 12.1351 21.0506 12.1232 21.0539 12.1111 21.0566L 10.8306 20.3252C 10.9708 20.2188 11.0674 20.0587 11.0674 19.8691C 11.0674 19.5479 10.8067 19.2873 10.4855 19.2873C 10.1877 19.2873 9.95084 19.5148 9.91711 19.8033L 4.0675 16.462C 4.06912 16.4506 4.07214 16.4397 4.07516 16.4287L 4.07535 16.4281C 4.07986 16.4119 4.08438 16.3958 4.08438 16.3782C 4.08438 16.057 3.82373 15.7964 3.50256 15.7964C 3.36349 15.7964 3.24133 15.8516 3.14124 15.9331L 2.35056 15.4816L 6.47507 13.1392ZM 15.9861 29.6715L 29.6215 21.881L 25.1805 19.3588L 15.9866 24.6115L 6.79214 19.3588L 2.35114 21.881L 15.9861 29.6715Z"/>
</defs>
</svg>
