<?xml version="1.0" encoding="UTF-8"?>
<svg width="24px" height="24px" viewBox="0 0 24 24" version="1.1" xmlns="http://www.w3.org/2000/svg" xmlns:xlink="http://www.w3.org/1999/xlink">
    <!-- Generator: Sketch 42 (36781) - http://www.bohemiancoding.com/sketch -->
    <title>delete</title>
    <desc>Created with Sketch.</desc>
    <defs></defs>
    <g id="icons" stroke="none" stroke-width="1" fill="none" fill-rule="evenodd">
        <g id="delete">
            <g id="Delete">
                <g id="dustbin" transform="translate(4.000000, 3.000000)" fill-rule="nonzero" fill="#FFFFFF">
                    <g id="Capa_1">
                        <g id="Group">
                            <path d="M13.2345283,5.4749589 C13.2345283,5.31971507 13.3617428,5.19376438 13.518606,5.19376438 C13.6754691,5.19376438 13.8027584,5.32028219 13.8027584,5.4749589 L13.8027584,16.2620384 C13.8027584,16.738274 13.6050351,17.1718027 13.287771,17.4863589 C12.9705318,17.8003479 12.5318831,17.9960055 12.0506801,17.9960055 L3.24295062,17.9960055 C2.76172268,17.9960055 2.32252588,17.8003479 2.00583479,17.4863589 C1.68857067,17.1723699 1.49087231,16.7389151 1.49087231,16.2620384 L1.49087231,5.4749589 C1.49087231,5.31971507 1.61813673,5.19376438 1.77497494,5.19376438 C1.93183805,5.19376438 2.05910248,5.32028219 2.05910248,5.4749589 L2.05910248,16.2620384 C2.05910248,16.5830795 2.19289456,16.8765534 2.4071612,17.0885836 C2.62142785,17.300663 2.91798784,17.4336164 3.24235266,17.4336164 L12.050132,17.4336164 C12.3744968,17.4336164 12.670409,17.3006137 12.8847255,17.0885836 C13.0995901,16.875937 13.2333323,16.5830301 13.2333323,16.2626055 L13.2333323,5.4749589 L13.2345283,5.4749589 Z" id="Shape"></path>
                            <path d="M5.52773068,15.5356274 C5.52773068,15.6908712 5.40046626,15.8167973 5.24360314,15.8167973 C5.08674003,15.8167973 4.9594756,15.6908712 4.9594756,15.5356274 L4.9594756,5.5476 C4.9594756,5.39235616 5.08674003,5.26640548 5.24360314,5.26640548 C5.40046626,5.26640548 5.52773068,5.39235616 5.52773068,5.5476 L5.52773068,15.5356274 Z" id="Shape"></path>
                            <path d="M7.93093045,15.5356274 C7.93093045,15.6908712 7.80369094,15.8167973 7.64682782,15.8167973 C7.4899647,15.8167973 7.36270028,15.6908712 7.36270028,15.5356274 L7.36270028,5.5476 C7.36270028,5.39235616 7.4899647,5.26640548 7.64682782,5.26640548 C7.80369094,5.26640548 7.93093045,5.39235616 7.93093045,5.5476 L7.93093045,15.5356274 Z" id="Shape"></path>
                            <path d="M10.3347032,15.5356274 C10.3347032,15.6908712 10.2074887,15.8167973 10.0506255,15.8167973 C9.89373751,15.8167973 9.766498,15.6908712 9.766498,15.5356274 L9.766498,5.5476 C9.766498,5.39235616 9.89373751,5.26640548 10.0506255,5.26640548 C10.2074887,5.26640548 10.3347032,5.39235616 10.3347032,5.5476 L10.3347032,15.5356274 L10.3347032,15.5356274 Z" id="Shape"></path>
                            <path d="M5.36199792,1.73399178 C5.36199792,1.88923562 5.2347335,2.0151863 5.07787038,2.0151863 C4.92103218,2.0151863 4.79376776,1.88923562 4.79376776,1.73399178 C4.79376776,1.25654795 4.99086816,0.823068493 5.3081572,0.509079452 C5.62542133,0.195065753 6.06344713,0 6.54584606,0 L8.74778467,0 C9.22961056,0 9.66763636,0.195657534 9.98485066,0.509646575 C10.3021148,0.823635616 10.4998381,1.25829863 10.4998381,1.73399178 C10.4998381,1.88923562 10.3725985,2.0151863 10.2157354,2.0151863 C10.0588723,2.0151863 9.9316328,1.88923562 9.9316328,1.73399178 C9.9316328,1.41297534 9.79786564,1.11947671 9.58357408,0.907421918 C9.3692576,0.695342466 9.07274744,0.562364384 8.74838262,0.562364384 L6.54646893,0.562364384 C6.22150615,0.562364384 5.92554412,0.694750685 5.71067952,0.906830137 C5.49576509,1.11947671 5.36199792,1.41238356 5.36199792,1.73399178 Z" id="Shape"></path>
                            <path d="M1.0409871,2.54238904 L14.2525938,2.54238904 C14.5313647,2.54238904 14.7858935,2.65544384 14.9705864,2.83823014 L14.9717574,2.8394137 C15.1564502,3.02217534 15.2706843,3.27407671 15.2706843,3.54999452 L15.2706843,4.27640548 C15.2706843,4.43162466 15.1434198,4.55757534 14.9865567,4.55757534 L14.9788581,4.55757534 L0.307024173,4.55757534 C0.150161056,4.55757534 0.0228966335,4.43162466 0.0228966335,4.27640548 L0.0228966335,4.26937808 L0.0228966335,3.54999452 C0.0228966335,3.27466849 0.137130654,3.02217534 0.321823521,2.8394137 L0.323019428,2.83823014 C0.50768738,2.65546849 0.762789263,2.54238904 1.0409871,2.54238904 L1.0409871,2.54238904 Z M14.2526187,3.10477808 L1.0409871,3.10477808 C0.917285481,3.10477808 0.804222453,3.1545863 0.723722972,3.23482192 L0.722527065,3.23600548 C0.641429631,3.31564932 0.591126798,3.42697808 0.591126798,3.54999452 L0.591126798,3.99521096 L14.7018561,3.99521096 L14.7018561,3.54999452 C14.7018561,3.42756986 14.6515284,3.31567397 14.5704808,3.23600548 L14.56926,3.23482192 C14.4888103,3.1545863 14.3763203,3.10477808 14.2526187,3.10477808 Z" id="Shape"></path>
                        </g>
                    </g>
                </g>
                <rect id="Rectangle-2" x="0" y="0" width="24" height="24"></rect>
            </g>
        </g>
    </g>
</svg>