<svg width="16" height="18" viewBox="0 0 16 18" version="1.1" xmlns="http://www.w3.org/2000/svg"
	 xmlns:xlink="http://www.w3.org/1999/xlink" xmlns:figma="http://www.figma.com/figma/ns">
	<title>Delete</title>
	<desc>Created using Figma</desc>
	<g id="Canvas" transform="translate(-424 1237)" figma:type="canvas">
		<g id="Delete" figma:type="frame">
			<g id="dustbin" figma:type="frame">
				<g id="Capa_1" figma:type="frame">
					<g id="Group" figma:type="frame">
						<g id="Shape" figma:type="vector">
							<use xlink:href="#path0_fill" transform="translate(425.491 -1231.81)" fill="#000000"
								 fill-opacity="0.75"/>
						</g>
						<g id="Shape" figma:type="vector">
							<use xlink:href="#path1_fill" transform="translate(428.959 -1231.73)" fill="#000000"
								 fill-opacity="0.75"/>
						</g>
						<g id="Shape" figma:type="vector">
							<use xlink:href="#path2_fill" transform="translate(431.363 -1231.73)" fill="#000000"
								 fill-opacity="0.75"/>
						</g>
						<g id="Shape" figma:type="vector">
							<use xlink:href="#path3_fill" transform="translate(433.766 -1231.73)" fill="#000000"
								 fill-opacity="0.75"/>
						</g>
						<g id="Shape" figma:type="vector">
							<use xlink:href="#path4_fill" transform="translate(428.794 -1237)" fill="#000000"
								 fill-opacity="0.75"/>
						</g>
						<g id="Shape" figma:type="vector-operation">
							<use xlink:href="#path5_fill" transform="translate(424.023 -1234.46)" fill="#000000"
								 fill-opacity="0.75"/>
						</g>
					</g>
				</g>
			</g>
		</g>
	</g>
	<defs>
		<path id="path0_fill"
			  d="M 11.7437 0.281195C 11.7437 0.125951 11.8709 0 12.0277 0C 12.1846 0 12.3119 0.126518 12.3119 0.281195L 12.3119 11.0683C 12.3119 11.5445 12.1142 11.978 11.7969 12.2926C 11.4797 12.6066 11.041 12.8022 10.5598 12.8022L 1.75208 12.8022C 1.27085 12.8022 0.831654 12.6066 0.514962 12.2926C 0.197698 11.9786 0 11.5451 0 11.0683L 0 0.281195C 0 0.125951 0.127264 0 0.284103 0C 0.440966 0 0.56823 0.126518 0.56823 0.281195L 0.56823 11.0683C 0.56823 11.3893 0.702022 11.6828 0.916289 11.8948C 1.13056 12.1069 1.42712 12.2399 1.75148 12.2399L 10.5593 12.2399C 10.8836 12.2399 11.1795 12.1068 11.3939 11.8948C 11.6087 11.6822 11.7425 11.3893 11.7425 11.0688L 11.7425 0.281195L 11.7437 0.281195Z"/>
		<path id="path1_fill"
			  d="M 0.568255 10.2692C 0.568255 10.4245 0.440991 10.5504 0.284128 10.5504C 0.127264 10.5504 0 10.4245 0 10.2692L 0 0.281195C 0 0.125951 0.127264 0 0.284128 0C 0.440991 0 0.568255 0.125951 0.568255 0.281195L 0.568255 10.2692Z"/>
		<path id="path2_fill"
			  d="M 0.56823 10.2692C 0.56823 10.4245 0.440991 10.5504 0.284128 10.5504C 0.127264 10.5504 0 10.4245 0 10.2692L 0 0.281195C 0 0.125951 0.127264 0 0.284128 0C 0.440991 0 0.56823 0.125951 0.56823 0.281195L 0.56823 10.2692Z"/>
		<path id="path3_fill"
			  d="M 0.568205 10.2692C 0.568205 10.4245 0.440991 10.5504 0.284128 10.5504C 0.127239 10.5504 0 10.4245 0 10.2692L 0 0.281195C 0 0.125951 0.127239 0 0.284128 0C 0.440991 0 0.568205 0.125951 0.568205 0.281195L 0.568205 10.2692Z"/>
		<path id="path4_fill"
			  d="M 0.56823 1.73399C 0.56823 1.88924 0.440966 2.01519 0.284103 2.01519C 0.127264 2.01519 0 1.88924 0 1.73399C 0 1.25655 0.1971 0.823068 0.514389 0.509079C 0.831654 0.195066 1.26968 0 1.75208 0L 3.95402 0C 4.43584 0 4.87387 0.195658 5.19108 0.509647C 5.50835 0.823636 5.70607 1.2583 5.70607 1.73399C 5.70607 1.88924 5.57883 2.01519 5.42197 2.01519C 5.2651 2.01519 5.13787 1.88924 5.13787 1.73399C 5.13787 1.41298 5.0041 1.11948 4.78981 0.907422C 4.57549 0.695342 4.27898 0.562364 3.95461 0.562364L 1.7527 0.562364C 1.42774 0.562364 1.13178 0.694751 0.916912 0.90683C 0.701997 1.11948 0.56823 1.41238 0.56823 1.73399Z"/>
		<path id="path5_fill" fill-rule="evenodd"
			  d="M 14.2297 0L 1.0181 0C 0.739899 0 0.484787 0.113083 0.300125 0.295837L 0.29892 0.297028C 0.114227 0.479782 0 0.732285 0 1.0076L 0 1.72699L 0 1.73401C 0 1.88924 0.127258 2.01518 0.284134 2.01518L 14.956 2.01518L 14.9637 2.01518C 15.1205 2.01518 15.2478 1.88924 15.2478 1.73401L 15.2478 1.0076C 15.2478 0.731689 15.1336 0.479782 14.9489 0.297028L 14.9477 0.295837C 14.763 0.113052 14.5085 0 14.2297 0ZM 1.0181 0.562393L 14.2297 0.562393C 14.3534 0.562393 14.4659 0.612198 14.5464 0.692444L 14.5476 0.693619C 14.6286 0.773285 14.679 0.885178 14.679 1.00761L 14.679 1.45282L 0.568237 1.45282L 0.568237 1.00761C 0.568237 0.884598 0.618546 0.77327 0.699631 0.693619L 0.700836 0.692444C 0.781326 0.612198 0.894394 0.562393 1.0181 0.562393Z"/>
	</defs>
</svg>
