<svg width="18" height="18" viewBox="0 0 18 18" version="1.1" xmlns="http://www.w3.org/2000/svg"
	 xmlns:xlink="http://www.w3.org/1999/xlink" xmlns:figma="http://www.figma.com/figma/ns">
	<title>edit icon</title>
	<desc>Created using Figma</desc>
	<g id="Canvas" transform="translate(-471 1237)" figma:type="canvas">
		<g id="edit icon" figma:type="frame">
			<g id="edit" figma:type="frame">
				<g id="Capa_1" figma:type="frame">
					<g id="Shape" figma:type="vector-operation">
						<use xlink:href="#path0_fill" transform="translate(471 -1237)" fill="#000000"
							 fill-opacity="0.75"/>
					</g>
				</g>
			</g>
		</g>
	</g>
	<defs>
		<path id="path0_fill" fill-rule="evenodd"
			  d="M 12.8215 0.845673C 13.9497 -0.281891 15.7847 -0.281891 16.9129 0.845673C 18.0408 1.97357 18.0408 3.80893 16.9126 4.93715L 5.32092 16.5288C 5.31973 16.53 5.31839 16.5309 5.31705 16.5318L 5.31674 16.5321C 5.31528 16.533 5.31384 16.534 5.31256 16.5352C 5.30817 16.5393 5.30356 16.5425 5.29889 16.5457L 5.29779 16.5465C 5.29498 16.5484 5.29218 16.5504 5.28943 16.5526C 5.2695 16.5684 5.24796 16.5815 5.22482 16.5921C 5.2142 16.597 5.20392 16.6012 5.19299 16.6047C 5.18982 16.6058 5.18671 16.6072 5.18359 16.6086L 5.1832 16.6087C 5.17834 16.611 5.17346 16.6132 5.16824 16.6143L 0.39505 17.7506C 0.370605 17.7564 0.345551 17.7592 0.320801 17.7592C 0.279327 17.7592 0.237854 17.7512 0.198975 17.7351C 0.160065 17.7191 0.124084 17.6956 0.0935364 17.6651C 0.0658875 17.6374 0.0462952 17.6043 0.0305481 17.5699C 0.0270081 17.5622 0.0237732 17.5551 0.0209045 17.5471C 0.00836182 17.5127 0.000335693 17.477 0 17.4404C 0 17.4383 0.000305176 17.4363 0.000640869 17.4343C 0.000976562 17.4323 0.00128174 17.4303 0.00128174 17.4282C 0.00192261 17.4066 0.00320435 17.3848 0.00836182 17.3633L 1.14459 12.59C 1.14508 12.5884 1.14581 12.5868 1.14655 12.5852L 1.14682 12.5846C 1.14743 12.5832 1.14804 12.5818 1.14847 12.5804C 1.14978 12.5756 1.1517 12.5711 1.15366 12.5665C 1.15512 12.5632 1.15656 12.5598 1.15778 12.5563C 1.16776 12.5286 1.18094 12.5033 1.19797 12.4795L 1.20114 12.4751C 1.20612 12.4682 1.21103 12.4614 1.21661 12.455C 1.21848 12.4528 1.22012 12.4504 1.22177 12.4479L 1.22214 12.4474C 1.22452 12.4438 1.22693 12.4402 1.2301 12.437L 12.8215 0.845673ZM 16.6674 4.23706C 17.3263 3.35635 17.2581 2.1002 16.4584 1.30017C 15.6587 0.500458 14.4026 0.432312 13.5215 1.09125L 16.6674 4.23706ZM 14.8673 6.07339L 11.6852 2.89125L 12.1397 2.43675L 15.3219 5.6189L 14.8673 6.07339ZM 1.14011 16.164C 1.26578 16.0383 1.46893 16.0383 1.5946 16.164C 1.71997 16.2897 1.71997 16.4931 1.5946 16.6185L 1.35129 16.8618L 4.7999 16.0409L 4.9577 14.6195L 3.31137 14.8024C 3.2998 14.8037 3.2879 14.8044 3.27634 14.8044L 3.276 14.8044L 3.2757 14.8044L 3.27536 14.8044L 3.27502 14.8044C 3.26315 14.8044 3.25159 14.8037 3.23999 14.8024C 3.23294 14.8015 3.22668 14.799 3.22037 14.7964C 3.21552 14.7944 3.2106 14.7924 3.20529 14.7912C 3.18216 14.7857 3.15997 14.7799 3.13876 14.77C 3.12268 14.7622 3.10886 14.7529 3.09439 14.743C 3.07608 14.7301 3.05936 14.7163 3.04395 14.6999C 3.03171 14.687 3.02176 14.6739 3.01178 14.6591C 2.99957 14.6407 2.98962 14.6218 2.98126 14.6009C 2.97452 14.5835 2.96902 14.5665 2.96518 14.5479C 2.96423 14.5435 2.96271 14.5395 2.96118 14.5355L 2.961 14.535C 2.95895 14.5296 2.95691 14.5242 2.95618 14.5183C 2.95544 14.5114 2.95654 14.505 2.95767 14.4985L 2.95773 14.4981C 2.95859 14.4931 2.95941 14.4881 2.95941 14.4829C 2.95941 14.4777 2.95856 14.4726 2.95767 14.4676L 2.95764 14.4673C 2.95654 14.4608 2.95544 14.4543 2.95618 14.4476L 3.13907 12.8012L 1.71771 12.959L 0.89679 16.4073L 1.14011 16.164ZM 5.62854 14.4029L 12.8215 7.20964C 12.9471 7.08397 12.9471 6.88081 12.8215 6.75514C 12.6958 6.62946 12.4926 6.62946 12.367 6.75514L 5.17404 13.9484L 3.63986 14.1187L 3.81021 12.5846L 11.0038 5.39165C 11.1295 5.26596 11.1295 5.06282 11.0038 4.93715C 10.8781 4.81146 10.675 4.81146 10.5493 4.93715L 3.35571 12.1301L 2.33261 12.2439L 11.2307 3.34575L 14.4129 6.52789L 5.51474 15.426L 5.62854 14.4029ZM 12.5942 1.98225L 15.7763 5.1644L 16.2312 4.70958L 13.049 1.52744L 12.5942 1.98225Z"/>
	</defs>
</svg>
