<svg width="32" height="32" viewBox="0 0 32 32" version="1.1" xmlns="http://www.w3.org/2000/svg"
	 xmlns:xlink="http://www.w3.org/1999/xlink" xmlns:figma="http://www.figma.com/figma/ns">
	<title>settings</title>
	<desc>Created using Figma</desc>
	<g id="Canvas" transform="translate(-460 -632)" figma:type="canvas">
		<g id="settings" style="mix-blend-mode:normal;" figma:type="frame">
			<g id="Group" style="mix-blend-mode:normal;" figma:type="frame">
				<g id="Shape" style="mix-blend-mode:normal;" figma:type="vector">
					<use xlink:href="#path0_fill" transform="translate(467.494 632.013)" fill="#FFFFFF"
						 style="mix-blend-mode:normal;"/>
				</g>
				<g id="Shape" style="mix-blend-mode:normal;" figma:type="vector">
					<use xlink:href="#path1_fill" transform="translate(474.485 639.068)" fill="#FFFFFF"
						 style="mix-blend-mode:normal;"/>
				</g>
				<g id="Shape" style="mix-blend-mode:normal;" figma:type="vector-operation">
					<use xlink:href="#path2_fill" transform="translate(460 644.896)" fill="#FFFFFF"
						 style="mix-blend-mode:normal;"/>
				</g>
				<g id="Shape" style="mix-blend-mode:normal;" figma:type="vector-operation">
					<use xlink:href="#path3_fill" transform="translate(465.629 650.578)" fill="#FFFFFF"
						 style="mix-blend-mode:normal;"/>
				</g>
			</g>
		</g>
	</g>
	<defs>
		<path id="path0_fill"
			  d="M 8.17301 0.128395L 6.57301 0.793416C 5.7175 1.14897 5.3126 2.14321 5.66526 2.99918L 6.07669 4C 5.27342 4.59918 4.57465 5.31029 3.97383 6.12016L 2.98118 5.70535C 2.56975 5.53416 2.1126 5.53416 1.70118 5.70535C 1.28975 5.87654 0.963216 6.20576 0.79342 6.62058L 0.127298 8.23374C -0.225355 9.0963 0.179543 10.084 1.03505 10.4395L 2.50444 11.0519C 2.8375 11.1901 3.20975 11.0321 3.34689 10.6963C 3.48403 10.3605 3.3273 9.98518 2.99424 9.84691L 1.52485 9.23457C 1.32893 9.15556 1.2375 8.9251 1.31587 8.72757L 1.98199 7.1144C 2.02118 7.02222 2.09301 6.94321 2.19097 6.9037C 2.2824 6.8642 2.38689 6.8642 2.48485 6.9037L 3.95424 7.51605C 4.24158 7.63457 4.56811 7.5358 4.73791 7.27901C 5.3975 6.27819 6.23342 5.43539 7.22607 4.77037C 7.48077 4.59918 7.58526 4.26337 7.46771 3.98025L 6.86036 2.49877C 6.78199 2.30123 6.87342 2.07737 7.06934 1.99177L 8.66934 1.32675C 8.76077 1.28724 8.86526 1.28724 8.96322 1.32675C 9.05464 1.36626 9.13301 1.43868 9.1722 1.53745L 9.77954 3.01893C 9.89709 3.30864 10.1975 3.47325 10.5044 3.40741C 11.6669 3.17037 12.8555 3.17695 14.0179 3.40741C 14.3183 3.46667 14.6253 3.30206 14.7428 3.01893L 15.3502 1.53745C 15.4285 1.33992 15.6571 1.24774 15.853 1.32675L 17.453 1.99835C 17.5444 2.03786 17.6228 2.11029 17.662 2.20905C 17.7012 2.30123 17.7012 2.40658 17.662 2.50535L 17.0546 3.98683C 16.9371 4.27654 17.0351 4.60576 17.2897 4.77695C 18.2824 5.44198 19.1183 6.28477 19.7779 7.2856C 19.9477 7.54239 20.2808 7.64774 20.5616 7.52922L 22.031 6.91687C 22.1289 6.87737 22.2269 6.87737 22.3248 6.91687C 22.4163 6.95638 22.4946 7.02881 22.5338 7.12757L 23.1934 8.74074C 23.2326 8.83292 23.2326 8.93827 23.1934 9.03704C 23.1542 9.12922 23.0824 9.20823 22.9844 9.24774L 21.5151 9.86008C 21.2277 9.9786 21.071 10.2815 21.1297 10.5909C 21.3648 11.763 21.3583 12.9613 21.1297 14.1333C 21.071 14.4362 21.2342 14.7457 21.5151 14.8642L 22.9844 15.4765C 23.1804 15.5556 23.2718 15.786 23.1934 15.9835L 22.5273 17.5967C 22.4489 17.7942 22.2204 17.8864 22.0244 17.8074L 20.5551 17.1951C 20.2677 17.0765 19.9412 17.1753 19.7714 17.4321C 19.1118 18.4329 18.2759 19.2757 17.2832 19.9407C 17.0285 20.1119 16.924 20.4477 17.0416 20.7309L 17.6489 22.2123C 17.6881 22.3045 17.6881 22.4099 17.6489 22.5086C 17.6097 22.6008 17.5379 22.6798 17.44 22.7193L 15.84 23.3844C 15.7485 23.4239 15.644 23.4239 15.5461 23.3844C 15.4546 23.3449 15.3763 23.2724 15.3371 23.1737L 14.7297 21.6922C 14.5926 21.3564 14.2138 21.1984 13.8873 21.3366C 13.5542 21.4749 13.3975 21.8568 13.5346 22.186L 14.142 23.6675C 14.3118 24.0823 14.6383 24.4115 15.0497 24.5827C 15.2587 24.6683 15.4742 24.7144 15.6897 24.7144C 15.9053 24.7144 16.1273 24.6683 16.3297 24.5827L 17.9297 23.9177C 18.3412 23.7465 18.6677 23.4173 18.8375 23.0025C 19.0073 22.5877 19.0073 22.1267 18.8375 21.7119L 18.4261 20.7111C 19.2293 20.1119 19.9281 19.4008 20.5289 18.5909L 21.5216 19.0058C 22.3771 19.3613 23.3567 18.9531 23.7093 18.0905L 24.3755 16.4774C 24.7281 15.6148 24.3232 14.6272 23.4677 14.2716L 22.4751 13.8568C 22.6187 12.8626 22.6187 11.8551 22.4751 10.8609L 23.4677 10.4461C 23.8791 10.2749 24.2057 9.94568 24.3755 9.53086C 24.5453 9.11605 24.5453 8.65514 24.3755 8.24033L 23.7159 6.62716C 23.5461 6.21235 23.2195 5.88313 22.8081 5.71193C 22.3967 5.54074 21.9395 5.54074 21.5281 5.71193L 20.5355 6.12675C 19.9412 5.31687 19.2359 4.60576 18.4391 4.00658L 18.8506 3.00576C 19.0204 2.59095 19.0204 2.13004 18.8506 1.71523C 18.6808 1.30041 18.3542 0.971193 17.9428 0.8L 16.3428 0.128395C 15.4873 -0.22716 14.5077 0.18107 14.1551 1.04362L 13.7436 2.04444C 12.7575 1.89959 11.7583 1.89959 10.7722 2.04444L 10.3608 1.04362C 10.191 0.628807 9.86444 0.299589 9.45301 0.128395C 9.04158 -0.0427984 8.58444 -0.0427984 8.17301 0.128395Z"/>
		<path id="path1_fill"
			  d="M 10.5209 5.26091C 10.5013 2.35062 8.14373 0 5.26373 0C 5.25067 0 5.23761 0 5.22455 0C 3.82047 0.0131687 2.50128 0.572839 1.51516 1.58025C 0.529039 2.58765 -0.00647158 3.92428 5.90316e-05 5.33992C 5.90316e-05 5.69547 0.293937 5.98519 0.64659 5.98519L 0.65312 5.98519C 1.0123 5.98519 1.29965 5.68889 1.29312 5.32675C 1.28659 4.26008 1.69149 3.25268 2.43598 2.48889C 3.18047 1.7251 4.17312 1.3037 5.23108 1.29712C 5.23761 1.29712 5.25067 1.29712 5.2572 1.29712C 7.4319 1.29712 9.20822 3.0749 9.22128 5.26749C 9.23435 7.47325 7.47108 9.27737 5.28332 9.29712C 4.92414 9.29712 4.63679 9.59342 4.64332 9.95556C 4.64332 10.3111 4.9372 10.6008 5.28986 10.6008C 5.28986 10.6008 5.28986 10.6008 5.29639 10.6008C 8.20251 10.5811 10.5405 8.18436 10.5209 5.26091Z"/>
		<path id="path2_fill" fill-rule="evenodd"
			  d="M 10.0963 19.0881L 8.83591 19.0881C 8.07184 19.0881 7.44489 18.456 7.43835 17.679L 7.43835 17.0272C 6.81143 16.856 6.2106 16.6058 5.64899 16.2766L 5.19183 16.7374C 4.9306 17.0074 4.57797 17.1523 4.20572 17.1523C 3.83347 17.1523 3.4808 17.0008 3.2196 16.7374L 2.33142 15.842C 1.7894 15.2955 1.7894 14.4 2.33142 13.8535L 2.78857 13.3926C 2.46204 12.8264 2.21387 12.2206 2.04407 11.5885L 1.39755 11.5885C 0.626953 11.5885 0 10.9564 0 10.1794L 0 8.90863C 0 8.13171 0.626953 7.49957 1.39755 7.49957L 2.04407 7.49957C 2.21387 6.86749 2.46204 6.26172 2.78857 5.6955L 2.33142 5.23456C 1.7894 4.68805 1.7894 3.7926 2.33142 3.24609L 3.2196 2.35065C 3.4808 2.08069 3.83347 1.93579 4.20572 1.93579C 4.57797 1.93579 4.9306 2.08722 5.19183 2.35065L 5.64899 2.81152C 6.2106 2.4823 6.81143 2.23212 7.43835 2.06091L 7.43835 1.40906C 7.43835 0.63208 8.06531 0 8.83591 0L 10.0963 0C 10.8669 0 11.4939 0.63208 11.4939 1.40906L 11.4939 2.06091C 12.1208 2.23212 12.7216 2.4823 13.2833 2.81152L 13.7404 2.35065C 14.0016 2.08069 14.3543 1.93579 14.7265 1.93579C 15.0988 1.93579 15.4514 2.08722 15.7126 2.35065L 16.6008 3.24609C 16.8686 3.50946 17.0122 3.86499 17.0122 4.24036C 17.0122 4.61566 16.862 4.97119 16.6008 5.23456L 16.1437 5.6955C 16.4702 6.26172 16.7184 6.86749 16.8882 7.49957L 17.5347 7.49957C 18.3053 7.49957 18.9323 8.13171 18.9323 8.90863L 18.9323 10.1794C 18.9323 10.9564 18.3053 11.5885 17.5347 11.5885L 16.8882 11.5885C 16.7184 12.2206 16.4702 12.8264 16.1437 13.3926L 16.6008 13.8535C 16.8686 14.1169 17.0122 14.4724 17.0122 14.8477C 17.0122 15.223 16.862 15.5786 16.6008 15.842L 15.7126 16.7374C 15.4514 17.0074 15.0988 17.1523 14.7265 17.1523C 14.3543 17.1523 14.0016 17.0008 13.7404 16.7374L 13.2833 16.2766C 12.7216 16.6058 12.1208 16.856 11.4939 17.0272L 11.4939 17.679C 11.4939 18.456 10.8669 19.0881 10.0963 19.0881ZM 5.55756 14.8017C 5.68164 14.8017 5.80573 14.8412 5.91675 14.9136C 6.61551 15.3877 7.39264 15.7103 8.21552 15.8881C 8.52246 15.9473 8.73795 16.2173 8.73795 16.5268L 8.73795 17.6922C 8.73795 17.7515 8.78366 17.7975 8.84244 17.7975L 10.1028 17.7975C 10.1616 17.7975 10.2073 17.7515 10.2073 17.6922L 10.2073 16.5268C 10.2073 16.2173 10.4294 15.9473 10.7298 15.8881C 11.5526 15.7234 12.3298 15.4008 13.0286 14.9268C 13.2833 14.749 13.6294 14.7885 13.8449 15.0058L 14.6612 15.8289C 14.6873 15.8552 14.7135 15.8618 14.7331 15.8618C 14.7527 15.8618 14.7788 15.8552 14.8049 15.8289L 15.6931 14.9333C 15.7192 14.907 15.7257 14.8807 15.7257 14.8609C 15.7257 14.8412 15.7192 14.8148 15.6931 14.7885L 14.8767 13.9655C 14.6612 13.7482 14.6286 13.3992 14.7984 13.1424C 15.2686 12.4379 15.5886 11.6544 15.7518 10.8247C 15.8106 10.5153 16.0784 10.298 16.3853 10.298L 17.5412 10.298C 17.6 10.298 17.6457 10.2519 17.6457 10.1926L 17.6457 8.92181C 17.6457 8.86255 17.6 8.81647 17.5412 8.81647L 16.3853 8.81647C 16.0784 8.81647 15.8106 8.59259 15.7518 8.28973C 15.5886 7.46008 15.2686 6.67657 14.7984 5.97205C 14.622 5.71527 14.6612 5.36627 14.8767 5.14899L 15.6931 4.32593C 15.7192 4.29962 15.7257 4.27325 15.7257 4.25354C 15.7257 4.23376 15.7192 4.20746 15.6931 4.18109L 14.8049 3.28564C 14.7788 3.25928 14.7527 3.25269 14.7331 3.25269C 14.7135 3.25269 14.6873 3.25928 14.6612 3.28564L 13.8449 4.10864C 13.6294 4.32593 13.2833 4.35889 13.0286 4.18768C 12.3298 3.71362 11.5526 3.39099 10.7298 3.22638C 10.4229 3.16711 10.2073 2.89716 10.2073 2.58765L 10.2073 1.42224C 10.2073 1.36298 10.1616 1.31689 10.1028 1.31689L 8.84244 1.31689C 8.78366 1.31689 8.73795 1.36298 8.73795 1.42224L 8.73795 2.58765C 8.73795 2.89716 8.51593 3.16711 8.21552 3.22638C 7.39264 3.39099 6.61551 3.71362 5.91675 4.18768C 5.66205 4.36548 5.31592 4.32593 5.1004 4.10864L 4.28409 3.27246C 4.25797 3.24609 4.23184 3.2395 4.21225 3.2395C 4.19266 3.2395 4.16653 3.24609 4.14041 3.27246L 3.25226 4.16791C 3.21307 4.20746 3.21307 4.27325 3.25226 4.31281L 4.06857 5.1358C 4.28409 5.35309 4.31674 5.70209 4.14694 5.95886C 3.67673 6.66339 3.35672 7.44696 3.19348 8.27655C 3.1347 8.58606 2.86694 8.80328 2.56 8.80328L 1.40408 8.80328C 1.34531 8.80328 1.29959 8.84943 1.29959 8.90869L 1.29959 10.1794C 1.29959 10.2387 1.34531 10.2848 1.40408 10.2848L 2.56 10.2848C 2.86694 10.2848 3.1347 10.5087 3.19348 10.8115C 3.35672 11.6412 3.67673 12.4247 4.14694 13.1292C 4.32327 13.386 4.28409 13.735 4.06857 13.9523L 3.25226 14.7753C 3.21307 14.8148 3.21307 14.8807 3.25226 14.9202L 4.14041 15.8157C 4.16653 15.842 4.19266 15.8486 4.21225 15.8486C 4.23184 15.8486 4.25797 15.842 4.28409 15.8157L 5.1004 14.9926C 5.22449 14.8675 5.38776 14.8017 5.55756 14.8017Z"/>
		<path id="path3_fill" fill-rule="evenodd"
			  d="M 3.83347 0C 5.9494 0 7.67346 1.73828 7.67346 3.87158C 7.67346 6.00494 5.95593 7.74323 3.84 7.74323C 1.72409 7.74323 0 6.00494 0 3.87158C 0 1.73828 1.71756 0 3.83347 0ZM 3.84 1.30371C 2.43591 1.30371 1.29306 2.45599 1.29306 3.87158C 1.29306 5.28064 2.43591 6.43951 3.84 6.43951C 5.24408 6.43951 6.38693 5.28723 6.38693 3.87158C 6.38693 2.45599 5.24408 1.30371 3.84 1.30371Z"/>
	</defs>
</svg>
