<svg width="18" height="18" viewBox="0 0 18 18" version="1.1" xmlns="http://www.w3.org/2000/svg"
	 xmlns:xlink="http://www.w3.org/1999/xlink" xmlns:figma="http://www.figma.com/figma/ns">
	<title>Share</title>
	<desc>Created using Figma</desc>
	<g id="Canvas" transform="translate(-447 1237)" figma:type="canvas">
		<g id="Share" figma:type="frame">
			<g id="share" figma:type="frame">
				<g id="Shape" figma:type="vector-operation">
					<use xlink:href="#path0_fill" transform="translate(447.304 -1237)" fill="#000000"
						 fill-opacity="0.75"/>
				</g>
			</g>
		</g>
	</g>
	<defs>
		<path id="path0_fill" fill-rule="evenodd"
			  d="M 11.1554 13.3133C 11.2744 13.1275 11.412 12.9518 11.5719 12.7919C 12.7614 11.6021 14.6965 11.6021 15.8861 12.7919C 16.4624 13.3679 16.7797 14.1343 16.7797 14.9492C 16.7797 15.764 16.4624 16.5301 15.8861 17.1064C 15.2914 17.701 14.5101 17.9985 13.7288 17.9985C 12.9475 17.9985 12.1662 17.701 11.5716 17.1064C 10.9952 16.5304 10.678 15.764 10.678 14.9492C 10.678 14.5705 10.7494 14.2035 10.8806 13.86L 5.60135 10.6557C 5.05588 11.4867 4.11713 12.0374 3.05084 12.0374C 1.36861 12.0374 0 10.6688 0 8.98657C 0 7.30434 1.36861 5.93573 3.05084 5.93573C 4.11713 5.93573 5.05618 6.4864 5.60165 7.31746L 10.8818 4.13756C 10.7524 3.79953 10.6783 3.43404 10.6783 3.05084C 10.6783 1.36861 12.0469 0 13.7291 0C 15.4113 0 16.78 1.36861 16.78 3.05084C 16.78 4.73308 15.4113 6.1017 13.7291 6.1017C 12.6479 6.1017 11.6985 5.53485 11.157 4.68427L 5.88385 7.85989C 6.02298 8.20891 6.10199 8.58844 6.10199 8.98657C 6.10199 9.3847 6.02298 9.76424 5.88354 10.1133L 11.1554 13.3133ZM 16.1698 3.05084C 16.1698 1.70512 15.0749 0.610168 13.7291 0.610168C 12.3831 0.610168 11.2885 1.70512 11.2885 3.05084C 11.2885 4.39658 12.3834 5.49153 13.7291 5.49153C 15.0749 5.49153 16.1698 4.39658 16.1698 3.05084ZM 3.05115 11.4273C 1.70543 11.4273 0.610474 10.3323 0.610474 8.98657C 0.610474 7.64085 1.70543 6.5459 3.05115 6.5459C 4.39688 6.5459 5.49182 7.64085 5.49182 8.98657C 5.49182 10.3323 4.39688 11.4273 3.05115 11.4273ZM 12.0033 16.675C 12.9548 17.6266 14.5031 17.6266 15.4547 16.675C 15.916 16.214 16.1698 15.6008 16.1698 14.9491C 16.1698 14.2975 15.916 13.6843 15.455 13.2233C 14.9791 12.7473 14.3542 12.5097 13.7291 12.5097C 13.104 12.5097 12.4792 12.7473 12.0033 13.2233C 11.5423 13.6843 11.2885 14.2975 11.2885 14.9491C 11.2885 15.6008 11.5423 16.214 12.0033 16.675Z"/>
	</defs>
</svg>
