<svg width="24" height="24" viewBox="0 0 24 24" version="1.1" xmlns="http://www.w3.org/2000/svg"
	 xmlns:xlink="http://www.w3.org/1999/xlink">
	<title>Frame 24</title>
	<desc>Created using Figma</desc>
	<g id="Canvas" transform="translate(-24901 -5946)">
		<clipPath id="clip-0" clip-rule="evenodd">
			<path d="M 24901 5946L 24925 5946L 24925 5970L 24901 5970L 24901 5946Z" fill="#FFFFFF"/>
		</clipPath>
		<g id="Frame 24" clip-path="url(#clip-0)">
			<g id="link off">
				<g id="Capa_1" opacity="0.7">
					<g id="Group">
						<g id="Shape">
							<use xlink:href="#path0_fill" transform="translate(24909.8 5946)" fill="#FFFFFF"/>
						</g>
						<g id="Shape">
							<use xlink:href="#path1_fill" transform="translate(24901 5953.72)" fill="#FFFFFF"/>
						</g>
					</g>
				</g>
			</g>
		</g>
	</g>
	<defs>
		<path id="path0_fill"
			  d="M 13.5318 1.65919C 11.3189 -0.553499 7.71797 -0.552626 5.50463 1.65919L 1.49102 5.67241C 1.15 6.0134 1.15 6.56613 1.49102 6.90712C 1.83204 7.2481 2.38483 7.2481 2.72584 6.90712L 6.73945 2.89389C 7.47781 2.15604 8.46462 1.74913 9.5178 1.74913C 10.5714 1.74913 11.5582 2.15604 12.2966 2.89433C 13.0349 3.63262 13.4419 4.61934 13.4419 5.67285C 13.4419 6.72593 13.0349 7.71265 12.2966 8.45094L 7.04859 13.6997C 5.51598 15.2313 3.0232 15.2313 1.49058 13.6997C 1.14957 13.3588 0.59678 13.3588 0.255763 13.6997C -0.0852542 14.0407 -0.0852542 14.5939 0.255763 14.9344C 1.36221 16.0408 2.81579 16.594 4.26937 16.594C 5.72295 16.594 7.17653 16.0408 8.28298 14.9344L 13.5318 9.68608C 14.6003 8.61815 15.1889 7.19265 15.1889 5.67285C 15.1889 4.15261 14.6003 2.72755 13.5318 1.65919Z"/>
		<path id="path1_fill"
			  d="M 11.8456 9.99492L 8.44945 13.3908C 7.71109 14.1291 6.72428 14.536 5.67066 14.536C 4.61748 14.536 3.63024 14.1291 2.89188 13.3908C 1.3597 11.8588 1.3597 9.36578 2.89188 7.83375L 7.83204 2.89406C 8.5704 2.1562 9.55721 1.74929 10.6108 1.74929C 11.664 1.74929 12.6508 2.1562 13.3892 2.89406C 13.7302 3.23504 14.283 3.23504 14.624 2.89406C 14.965 2.55307 14.965 2.00034 14.624 1.65935C 12.4115 -0.552899 8.81055 -0.553336 6.59678 1.65935L 1.65662 6.59948C 0.588593 7.6674 0 9.0929 0 10.6127C 0 12.1321 0.588593 13.5576 1.65705 14.6255C 2.72508 15.6939 4.15071 16.2824 5.67023 16.2824C 7.19018 16.2824 8.61581 15.6939 9.68383 14.6255L 13.08 11.2296C 13.421 10.8886 13.421 10.3359 13.08 9.99492C 12.739 9.65393 12.1867 9.65393 11.8456 9.99492Z"/>
	</defs>
</svg>
