<svg width="20" height="20" viewBox="0 0 20 20" version="1.1" xmlns="http://www.w3.org/2000/svg" xmlns:xlink="http://www.w3.org/1999/xlink">
<title>Frame 21</title>
<desc>Created using Figma</desc>
<g id="Canvas" transform="translate(-27854 -4979)">
<clipPath id="clip-0" clip-rule="evenodd">
<path d="M 27854 4979L 27874 4979L 27874 4999L 27854 4999L 27854 4979Z" fill="#000"/>
</clipPath>
<g id="Frame 21" clip-path="url(#clip-0)">
<g id="calendar">
<g id="Group">
<g id="Shape">
<use xlink:href="#path0_fill" transform="translate(27856 4981)" fill="#000"/>
</g>
<g id="Shape">
<use xlink:href="#path1_fill" transform="translate(27867.1 4990.6)" fill="#000"/>
</g>
</g>
</g>
</g>
</g>
<defs>
<path id="path0_fill" fill-rule="evenodd" d="M 13.7598 1.35645L 13.7598 8.47656C 15.2539 8.99658 16.334 10.4399 16.3301 12.1299C 16.3301 14.25 14.627 15.9868 12.543 15.9868C 10.8262 15.9868 9.36719 14.8066 8.90625 13.2065L 0 13.2065L 0 1.35645L 2.95312 1.35645L 2.95312 0L 3.65039 0L 3.65039 1.35645L 6.5332 1.35645L 6.5332 0L 7.23047 0L 7.23047 1.35645L 10.1133 1.35645L 10.1133 0L 10.8066 0L 10.8066 1.35645L 13.7598 1.35645ZM 2.95312 2.0498L 0.697266 2.0498L 0.697266 5.24658L 13.0664 5.24658L 13.0664 2.0498L 10.8047 2.0498L 10.8047 3.54297L 10.1113 3.54297L 10.1113 2.0498L 7.22656 2.0498L 7.22656 3.54297L 6.5332 3.54297L 6.5332 2.0498L 3.64648 2.0498L 3.64648 3.54297L 2.95312 3.54297L 2.95312 2.0498ZM 8.78125 12.5132L 0.697266 12.5132L 0.697266 5.94336L 13.0664 5.94336L 13.0664 8.31006C 12.8965 8.28662 12.7246 8.27344 12.5469 8.27344C 10.4648 8.27344 8.75977 10.0103 8.75977 12.1299C 8.75977 12.2603 8.76758 12.3867 8.78125 12.5132ZM 9.45312 12.127C 9.45312 13.8667 10.8438 15.29 12.5469 15.29C 14.2461 15.29 15.6406 13.8667 15.6406 12.127C 15.6406 10.3867 14.25 8.96338 12.5469 8.96338C 10.8438 8.96338 9.45312 10.3901 9.45312 12.127Z"/>
<path id="path1_fill" d="M 1.11333 2.04L 0 2.04L 0 2.73333L 1.81 2.73333L 1.81 0L 1.11333 0L 1.11333 2.04Z"/>
</defs>
</svg>
