<svg width="32" height="32" viewBox="0 0 32 32" version="1.1" xmlns="http://www.w3.org/2000/svg" xmlns:xlink="http://www.w3.org/1999/xlink" xmlns:figma="http://www.figma.com/figma/ns">
<title>wrench</title>
<desc>Created using Figma</desc>
<g id="Canvas" transform="translate(-460 -440)" figma:type="canvas">
<g id="wrench" style="mix-blend-mode:normal;" figma:type="frame">
<g id="Layer_1" style="mix-blend-mode:normal;" figma:type="frame">
<g id="Shape" style="mix-blend-mode:normal;" figma:type="vector-operation">
<use xlink:href="#path0_fill" transform="translate(474.997 440)" fill="#FFFFFF" style="mix-blend-mode:normal;"/>
</g>
<g id="Shape" style="mix-blend-mode:normal;" figma:type="vector-operation">
<use xlink:href="#path1_fill" transform="translate(460.047 441)" fill="#FFFFFF" style="mix-blend-mode:normal;"/>
</g>
</g>
</g>
</g>
<defs>
<path id="path0_fill" fill-rule="evenodd" d="M 14.0275 0.988376L 15.958 2.9075C 17.2164 4.15863 17.2946 6.26596 16.1322 7.60508L 13.2609 10.9129C 13.2234 10.9562 13.1793 10.9932 13.1301 11.0228L 7.548 14.3738L 6.841 16.4825C 6.78124 16.6607 6.63299 16.7954 6.44921 16.8385C 6.40774 16.8482 6.36575 16.853 6.32403 16.853C 6.18121 16.853 6.04211 16.7971 5.93871 16.6943L 0.159568 10.9491C 0.026054 10.8163 -0.0287861 10.6242 0.0145794 10.4415C 0.0579144 10.2589 0.193382 10.1115 0.372581 10.0521L 2.49313 9.34937L 5.79571 3.88031C 5.82534 3.83133 5.8626 3.7873 5.90603 3.74988L 9.2987 0.826206C 10.6474 -0.335965 12.7686 -0.26318 14.0275 0.988376ZM 12.4926 10.1398L 15.3072 6.89728C 16.1049 5.9784 16.0511 4.53223 15.1874 3.67365L 13.2569 1.75452C 12.3936 0.896121 10.9382 0.846988 10.0125 1.64481L 6.68539 4.51194L 3.32363 10.0788C 3.25674 10.1895 3.15215 10.2729 3.02877 10.3138L 1.55352 10.8026L 2.85592 12.0974L 2.85656 12.0979L 4.78301 14.013L 4.78371 14.0138L 6.08596 15.3085L 6.57772 13.8419C 6.61867 13.7196 6.70208 13.6159 6.81295 13.5494L 12.4926 10.1398Z"/>
<path id="path1_fill" fill-rule="evenodd" d="M 29.3637 20.7656C 27.764 19.1752 25.4095 18.6225 23.2762 19.31L 11.6965 7.79798C 12.388 5.67719 11.8319 3.33637 10.2323 1.74597C 8.54697 0.07062 6.02393 -0.453489 3.80439 0.411349C 3.6333 0.47803 3.50742 0.625979 3.46985 0.804873C 3.43225 0.983706 3.48792 1.16941 3.61792 1.29868L 7.08402 4.74445L 4.77231 7.04257L 1.30625 3.59674C 1.17618 3.46756 0.989657 3.41236 0.809573 3.44953C 0.629611 3.48688 0.480716 3.61197 0.413699 3.78214C -0.456052 5.98856 0.0709255 8.49692 1.7562 10.1725C 3.35596 11.7628 5.71045 12.3157 7.84372 11.6281L 12.1736 15.9327L 6.78153 21.2934L 3.35199 23.1996C 3.25663 23.2527 3.17945 23.333 3.13059 23.4302L 1.58948 26.4943C 1.48459 26.7029 1.52567 26.9547 1.69153 27.1197L 3.61786 29.0348C 3.72245 29.1388 3.86194 29.1934 4.0033 29.1934C 4.08606 29.1934 4.16944 29.1747 4.24686 29.1362L 7.32904 27.6042C 7.42679 27.5556 7.5076 27.4789 7.56095 27.384L 9.47843 23.9745L 14.8707 18.614L 19.4235 23.1402C 18.732 25.261 19.2881 27.6018 20.8878 29.1922C 22.0337 30.3313 23.5667 30.9381 25.1285 30.9381C 25.8636 30.9381 26.6052 30.8036 27.3156 30.5269C 27.4867 30.4602 27.6126 30.3123 27.6502 30.1333C 27.6877 29.9545 27.6321 29.7688 27.5021 29.6396L 24.036 26.1937L 26.3476 23.8957L 29.8137 27.3414C 29.9437 27.4707 30.1303 27.5261 30.3104 27.4886C 30.4903 27.4513 30.6392 27.3262 30.7062 27.156C 31.5761 24.9495 31.0491 22.4411 29.3637 20.7656ZM 8.65436 23.2615C 8.6189 23.2968 8.5886 23.3367 8.56412 23.3802L 6.69162 26.7097L 4.11078 27.9926L 2.73981 26.6296L 4.03015 24.0638L 7.37918 22.2023C 7.42298 22.178 7.46314 22.1479 7.4986 22.1126L 12.9442 16.6988L 14.1 17.8479L 8.65436 23.2615ZM 26.733 22.7465L 29.9362 25.931C 30.252 24.3521 29.7646 22.6961 28.5932 21.5316C 27.2142 20.1608 25.1497 19.7322 23.3334 20.4396C 23.132 20.5181 22.9026 20.4706 22.7493 20.3183L 10.6821 8.32178C 10.5291 8.1695 10.4812 7.94156 10.5602 7.74109C 11.2719 5.93555 10.8406 3.883 9.4617 2.51212C 8.29038 1.34757 6.62479 0.862521 5.03647 1.17691L 8.23972 4.36151C 8.45249 4.57309 8.45249 4.91599 8.23972 5.12757L 5.15756 8.19171C 4.94474 8.40311 4.59983 8.40323 4.387 8.19171L 1.18372 5.00711C 0.867923 6.58603 1.35547 8.24204 2.52674 9.40653C 3.90573 10.7773 5.97037 11.2061 7.78647 10.4985C 7.85095 10.4734 7.91834 10.4612 7.98511 10.4612C 8.12705 10.4612 8.26639 10.5163 8.37055 10.6198L 20.4379 22.6165C 20.591 22.7687 20.6389 22.9967 20.5598 23.1971C 19.8481 25.0027 20.2794 27.0552 21.6583 28.4261C 22.8295 29.5905 24.4952 30.0751 26.0836 29.7613L 22.8802 26.5768C 22.7781 26.4751 22.7207 26.3374 22.7207 26.1937C 22.7207 26.05 22.7781 25.9122 22.8802 25.8106L 25.9624 22.7465C 26.1752 22.535 26.5201 22.535 26.733 22.7465Z"/>
</defs>
</svg>
