<svg width="30" height="30" viewBox="0 0 30 30" fill="none" xmlns="http://www.w3.org/2000/svg">
	<g clip-path="url(#clip0)">
		<path
			d="M15.7532 14.4019L1.46472 0.249908C1.12829 -0.0833028 0.588743 -0.0833028 0.252318 0.249908C-0.0841061 0.583119 -0.0841061 1.11751 0.252318 1.45073L13.9315 14.9992L0.252318 28.5477C-0.0841061 28.8809 -0.0841061 29.4153 0.252318 29.7485C0.417357 29.912 0.639524 30 0.855343 30C1.07116 30 1.29333 29.9183 1.45837 29.7485L15.7469 15.5965C16.0833 15.2696 16.0833 14.7289 15.7532 14.4019Z"
			transform="translate(23 30) rotate(-180)" fill="white"/>
		<path
			d="M15.7532 14.4019L15.9292 14.2243L15.9292 14.2243L15.7532 14.4019ZM1.46472 0.249908L1.64064 0.0722854L1.64064 0.0722854L1.46472 0.249908ZM0.252318 1.45073L0.0763919 1.62835L0.252318 1.45073ZM13.9315 14.9992L14.1074 15.1768L14.2867 14.9992L14.1074 14.8216L13.9315 14.9992ZM0.252318 28.5477L0.428245 28.7253L0.428245 28.7253L0.252318 28.5477ZM0.252318 29.7485L0.428245 29.5709L0.428245 29.5709L0.252318 29.7485ZM1.45837 29.7485L1.28241 29.5709L1.27912 29.5742L1.45837 29.7485ZM15.7469 15.5965L15.5726 15.4172L15.571 15.4189L15.7469 15.5965ZM15.9292 14.2243L1.64064 0.0722854L1.28879 0.427531L15.5773 14.5796L15.9292 14.2243ZM1.64064 0.0722854C1.20678 -0.357428 0.51025 -0.357428 0.0763919 0.0722854L0.428245 0.427531C0.667236 0.190823 1.0498 0.190823 1.28879 0.427531L1.64064 0.0722854ZM0.0763919 0.0722854C-0.358797 0.503318 -0.358797 1.19732 0.0763919 1.62835L0.428245 1.2731C0.190585 1.03771 0.190585 0.662921 0.428245 0.427531L0.0763919 0.0722854ZM0.0763919 1.62835L13.7555 15.1768L14.1074 14.8216L0.428245 1.2731L0.0763919 1.62835ZM13.7555 14.8216L0.0763919 28.3701L0.428245 28.7253L14.1074 15.1768L13.7555 14.8216ZM0.0763919 28.3701C-0.358797 28.8011 -0.358797 29.4951 0.0763919 29.9261L0.428245 29.5709C0.190585 29.3355 0.190585 28.9607 0.428245 28.7253L0.0763919 28.3701ZM0.0763919 29.9261C0.288241 30.136 0.573632 30.25 0.855343 30.25V29.75C0.705416 29.75 0.546472 29.688 0.428245 29.5709L0.0763919 29.9261ZM0.855343 30.25C1.1328 30.25 1.42156 30.145 1.63761 29.9228L1.27912 29.5742C1.1651 29.6915 1.00952 29.75 0.855343 29.75V30.25ZM1.63429 29.9261L15.9228 15.7741L15.571 15.4189L1.28244 29.5709L1.63429 29.9261ZM15.9211 15.7758C16.3583 15.351 16.3583 14.6494 15.9292 14.2243L15.5773 14.5796C15.8083 14.8084 15.8083 15.1882 15.5727 15.4172L15.9211 15.7758Z"
			transform="translate(23 30) rotate(-180)" fill="white"/>
	</g>
	<defs>
		<clipPath id="clip0">
			<rect width="30" height="30" fill="white" transform="translate(30 30) rotate(-180)"/>
		</clipPath>
	</defs>
</svg>
