<?xml version="1.0" encoding="UTF-8"?>
<svg width="50px" height="19px" viewBox="0 0 50 19" version="1.1" xmlns="http://www.w3.org/2000/svg" xmlns:xlink="http://www.w3.org/1999/xlink">
    <!-- Generator: Sketch 53.2 (72643) - https://sketchapp.com -->
    <title>Desktop HD Copy 25</title>
    <desc>Created with Sketch.</desc>
    <g id="Desktop-HD-Copy-25" stroke="none" stroke-width="1" fill="none" fill-rule="evenodd">
        <g id="logo1" transform="translate(3.000000, 2.000000)" fill-rule="nonzero">
            <path d="M5.45596837,0.275289844 L10.1450184,10.8393143 C10.2775049,11.137795 10.1413826,11.4864761 9.84098068,11.6181152 C9.76557598,11.6511583 9.68408039,11.6682625 9.60166801,11.6683417 C9.16490194,11.6680497 7.63247176,10.5417526 4.09343584,8.29032641 C4.09343584,8.29032641 4.09343584,8.29032641 4.09343584,8.29032641 L4.09343584,8.29032641 C2.65001204,7.37206447 2.13686441,5.51943905 2.9041565,3.99665154 L4.78171237,0.270408912 C4.84660061,0.14163003 4.97911708,0.0603015075 5.12406074,0.0603015075 L5.12406074,0.0603015075 C5.26779243,0.0603015075 5.39796855,0.144621188 5.45596837,0.275289844 Z" id="Mask" fill="#E6E6E6"></path>
            <ellipse id="Oval-Copy-13" fill="#1CC7DD" cx="1.69931034" cy="9.9798995" rx="1.69931034" ry="1.68844221"></ellipse>
            <path d="M11.4500922,5.68483643 C11.4500922,5.10943658 11.3706086,4.68353427 11.211639,4.40711672 C11.0526694,4.13069916 10.734735,3.99249245 10.2578262,3.99249245 L9.91717874,3.99249245 L9.91717874,3.65402366 L11.4500922,3.65402366 C11.8702262,3.65402366 12.1909993,3.71043456 12.4124212,3.82325806 C12.6338432,3.93608155 12.7956491,4.10531426 12.8978438,4.33096124 L12.9830057,4.33096124 C13.2214601,4.0940319 13.5308784,3.89377321 13.9112699,3.73017914 C14.2916615,3.56658507 14.7203052,3.48478927 15.197214,3.48478927 C16.0488369,3.48478927 16.7443185,3.71043287 17.2836796,4.16172684 C17.8230408,4.61302085 18.0927172,5.40277342 18.0927172,6.53100837 L18.0927172,11.6080402 L16.5598038,11.6080402 L16.5598038,6.53100837 C16.5598038,5.74124389 16.3809657,5.16303219 16.023284,4.79635583 C15.6656025,4.42967947 15.2199265,4.24634405 14.6862428,4.24634405 C14.0844294,4.24634405 13.5166893,4.54532181 12.9830057,5.14328631 L12.9830057,11.6080402 L11.4500922,11.6080402 L11.4500922,5.68483643 Z M23.0150726,11.8957387 C22.3905492,11.8957387 21.77739,11.8111223 21.1755765,11.6418871 C20.5737631,11.4726519 20.0826679,11.230085 19.7022763,10.9141792 C19.3218848,10.5982734 19.1316919,10.2372436 19.1316919,9.83107907 L19.1316919,8.02027101 L19.4382746,8.02027101 C19.6313091,9.14850595 20.0060176,9.96364349 20.5624111,10.465708 C21.1188047,10.9677726 21.8852538,11.2188011 22.8617813,11.2188011 C23.4749498,11.2188011 24.0001094,11.0664917 24.4372758,10.7618683 C24.8744422,10.4572448 25.093022,10.034163 25.093022,9.49261025 C25.093022,9.01875158 24.9454096,8.60695198 24.6501804,8.25719917 C24.3549512,7.90744636 23.8780495,7.5407755 23.2194611,7.1571756 L21.1244794,5.92176452 C20.3977612,5.49303528 19.8839565,5.05867131 19.5830497,4.61865972 C19.282143,4.17864809 19.1316919,3.64274453 19.1316919,3.01093296 C19.1316919,2.14219206 19.4354328,1.44551744 20.0429238,0.920888193 C20.6504148,0.39625895 21.4480895,0.133948259 22.435972,0.133948259 C23.0150756,0.133948259 23.588493,0.215744065 24.1562416,0.379338128 C24.7239902,0.542932198 25.1923757,0.779857982 25.5614123,1.09012259 C25.9304488,1.40038719 26.1149644,1.75859641 26.1149644,2.16476099 L26.1149644,3.97556901 L25.8083817,3.97556901 C25.6153472,2.84733408 25.2491548,2.03783765 24.7097937,1.54705545 C24.1704325,1.05627326 23.4124996,0.810885837 22.435972,0.810885837 C21.9136433,0.810885837 21.4537739,0.968836357 21.0563499,1.28474214 C20.6589259,1.60064792 20.4602169,2.01244749 20.4602169,2.52015322 C20.4602169,2.98272954 20.6049906,3.36632367 20.8945424,3.67094711 C21.1840941,3.97557054 21.6695119,4.33095921 22.3508102,4.73712377 L24.4457919,5.97253485 C25.21793,6.43511118 25.7629604,6.86383402 26.0808996,7.25871626 C26.3988389,7.65359849 26.5578061,8.1556555 26.5578061,8.76490236 C26.5578061,9.7126197 26.2398716,10.4713463 25.6039932,11.0411049 C24.9681148,11.6108636 24.10515,11.8957387 23.0150726,11.8957387 Z M28.7104781,14.4850249 C29.2668717,14.4850249 29.7239024,14.3581004 30.081584,14.1042475 C30.4392656,13.8503946 30.7486839,13.3850047 31.0098483,12.7080638 L31.3504957,11.7772746 L28.6253162,5.17713324 C28.307377,4.36480406 27.6828629,3.91351685 26.7517553,3.82325806 L26.7517553,3.48478927 L28.1995069,3.48478927 C29.1873894,3.48478927 29.8686775,3.93607648 30.2433915,4.83866442 L32.1850819,9.52645719 L34.3311608,3.65402366 L35.1827794,3.65402366 L31.8614668,12.7080638 C31.5321727,13.5993693 31.1688191,14.202966 30.7713951,14.5188718 C30.3739711,14.8347776 29.8573276,14.9927281 29.2214492,14.9927281 L28.7104781,14.9927281 L28.7104781,14.4850249 Z M37.3535827,5.68483643 C37.3535827,5.10943658 37.2740991,4.68353427 37.1151294,4.40711672 C36.9561599,4.13069916 36.6382254,3.99249245 36.1613166,3.99249245 L35.8206692,3.99249245 L35.8206692,3.65402366 L37.3535827,3.65402366 C37.7737166,3.65402366 38.0944897,3.71043456 38.3159117,3.82325806 C38.5373336,3.93608155 38.6991395,4.10531426 38.8013343,4.33096124 L38.8864962,4.33096124 C39.1249505,4.0940319 39.4343688,3.89377321 39.8147604,3.73017914 C40.195152,3.56658507 40.6237956,3.48478927 41.1007045,3.48478927 C41.9523273,3.48478927 42.6478089,3.71043287 43.18717,4.16172684 C43.7265312,4.61302085 43.9962077,5.40277342 43.9962077,6.53100837 L43.9962077,11.6080402 L42.4632942,11.6080402 L42.4632942,6.53100837 C42.4632942,5.74124389 42.2844561,5.16303219 41.9267745,4.79635583 C41.5690929,4.42967947 41.123417,4.24634405 40.5897333,4.24634405 C39.9879199,4.24634405 39.4201798,4.54532181 38.8864962,5.14328631 L38.8864962,11.6080402 L37.3535827,11.6080402 L37.3535827,5.68483643 Z" id="nSyn" fill="#E6E6E6"></path>
        </g>
    </g>
</svg>