<?xml version="1.0" encoding="UTF-8"?>
<svg width="66px" height="25px" viewBox="0 0 66 25" version="1.1" xmlns="http://www.w3.org/2000/svg"
>
	<!-- Generator: Sketch 53.2 (72643) - https://sketchapp.com -->
	<title>Desktop HD Copy 29</title>
	<desc>Created with Sketch.</desc>
	<g id="Desktop-HD-Copy-29" stroke="none" stroke-width="1" fill="none" fill-rule="evenodd">
		<g id="logo1-copy-6" transform="translate(3.000000, 2.000000)" fill-rule="nonzero">
			<path
				d="M7.1919583,0.385405782 L13.3729788,15.1750401 C13.5476201,15.592913 13.3681861,16.0810665 12.9722018,16.2653613 C12.8728047,16.3116217 12.7653787,16.3355675 12.6567442,16.3356784 C12.0810071,16.3352696 10.0609855,14.7584537 5.3958927,11.606457 C5.3958927,11.606457 5.3958927,11.606457 5.3958927,11.606457 L5.3958927,11.606457 C3.49319769,10.3208903 2.81677581,7.72721466 3.8282063,5.59531215 L6.3031663,0.378572477 C6.3887008,0.198282042 6.5633816,0.0844221106 6.7544437,0.0844221106 L6.7544437,0.0844221106 C6.9439082,0.0844221106 7.115504,0.202469664 7.1919583,0.385405782 Z"
				id="Mask" fill="#E6E6E6"></path>
			<ellipse id="Oval-Copy-13" fill="#1CC7DD" cx="2.24" cy="13.9718593" rx="2.24" ry="2.3638191"></ellipse>
			<path
				d="M15.0933034,7.95877101 C15.0933034,7.15321122 14.9885295,6.55694798 14.7789787,6.16996341 C14.5694279,5.78297882 14.1503325,5.58948943 13.52168,5.58948943 L13.0726447,5.58948943 L13.0726447,5.11563313 L15.0933034,5.11563313 C15.6471163,5.11563313 16.0699536,5.19460838 16.361828,5.35256128 C16.6537024,5.51051417 16.866992,5.74743996 17.0017032,6.06334573 L17.1139621,6.06334573 C17.4282883,5.73164467 17.8361579,5.45128249 18.3375831,5.2222508 C18.8390083,4.9932191 19.4040387,4.87870497 20.0326912,4.87870497 C21.155285,4.87870497 22.0720562,5.19460602 22.7830322,5.82641758 C23.4940083,6.4582292 23.8494909,7.56388278 23.8494909,9.14341171 L23.8494909,16.2512563 L21.8288323,16.2512563 L21.8288323,9.14341171 C21.8288323,8.03774145 21.5930911,7.22824506 21.1216017,6.71489816 C20.6501124,6.20155126 20.0626304,5.94488166 19.3591383,5.94488166 C18.5658388,5.94488166 17.8174541,6.36345054 17.1139621,7.20060083 L17.1139621,16.2512563 L15.0933034,16.2512563 L15.0933034,7.95877101 Z M30.3380503,16.6540342 C29.5148149,16.6540342 28.7065595,16.5355713 27.9132599,16.2986419 C27.1199604,16.0617126 26.4726077,15.722119 25.9711824,15.2798508 C25.4697572,14.8375827 25.2190484,14.3321411 25.2190484,13.7635107 L25.2190484,11.2283794 L25.6231801,11.2283794 C25.8776347,12.8079083 26.3715686,13.9491009 27.1049965,14.6519913 C27.8384244,15.3548816 28.8487436,15.7063216 30.1359845,15.7063216 C30.944252,15.7063216 31.6365078,15.4930883 32.2127726,15.0666156 C32.7890374,14.6401427 33.0771654,14.0478282 33.0771654,13.2896544 C33.0771654,12.6262522 32.8825854,12.0497328 32.4934196,11.5600788 C32.1042538,11.0704249 31.4756107,10.5570857 30.6074715,10.0200458 L27.8459047,8.29047033 C26.887958,7.69024939 26.2106699,7.08213983 25.8140201,6.46612361 C25.4173703,5.85010732 25.2190484,5.09984234 25.2190484,4.21530615 C25.2190484,2.99906888 25.6194342,2.02372441 26.4202177,1.28924347 C27.2210013,0.55476253 28.2724816,0.187527562 29.5746904,0.187527562 C30.3380542,0.187527562 31.0939226,0.302041691 31.8423185,0.531073379 C32.5907143,0.760105078 33.2081316,1.09180118 33.6945889,1.52617162 C34.1810462,1.96054207 34.4242712,2.46203498 34.4242712,3.03066539 L34.4242712,5.56579662 L34.0201395,5.56579662 C33.7656849,3.98626771 33.2829768,2.85297271 32.5720008,2.16587763 C31.8610247,1.47878256 30.8619313,1.13524017 29.5746904,1.13524017 C28.8861662,1.13524017 28.2799747,1.3563709 27.7560976,1.79863899 C27.2322205,2.24090709 26.9702859,2.81742649 26.9702859,3.52821451 C26.9702859,4.17582136 27.161124,4.71285314 27.5428059,5.13932595 C27.9244877,5.56579875 28.5643566,6.0633429 29.4624316,6.63197328 L32.2239984,8.36154879 C33.2418168,9.00915565 33.960266,9.60936763 34.3793677,10.1622028 C34.7984694,10.7150379 35.0080171,11.4179177 35.0080171,12.2708633 C35.0080171,13.5976676 34.5889217,14.6598848 33.7507183,15.4575469 C32.912515,16.255209 31.7749704,16.6540342 30.3380503,16.6540342 Z M37.8456302,20.2790349 C38.5790581,20.2790349 39.1815077,20.1013406 39.6529971,19.7459465 C40.1244865,19.3905525 40.5323561,18.7390066 40.8766182,17.7912893 L41.3256534,16.4881844 L37.7333714,7.24798654 C37.3142697,6.11072568 36.4910466,5.4789236 35.2636774,5.35256128 L35.2636774,4.87870497 L37.1720773,4.87870497 C38.474286,4.87870497 39.3723476,5.51050707 39.8662888,6.77413019 L42.4257898,13.3370401 L45.254712,5.11563313 L46.3773001,5.11563313 L41.9992063,17.7912893 C41.5651367,19.0391171 41.0861706,19.8841524 40.5622935,20.3264205 C40.0384164,20.7686886 39.3573864,20.9898193 38.5191831,20.9898193 L37.8456302,20.9898193 L37.8456302,20.2790349 Z M49.2388135,7.95877101 C49.2388135,7.15321122 49.1340397,6.55694798 48.9244888,6.16996341 C48.714938,5.78297882 48.2958426,5.58948943 47.6671901,5.58948943 L47.2181548,5.58948943 L47.2181548,5.11563313 L49.2388135,5.11563313 C49.7926264,5.11563313 50.2154637,5.19460838 50.5073381,5.35256128 C50.7992125,5.51051417 51.0125021,5.74743996 51.1472134,6.06334573 L51.2594722,6.06334573 C51.5737984,5.73164467 51.981668,5.45128249 52.4830933,5.2222508 C52.9845185,4.9932191 53.5495488,4.87870497 54.1782014,4.87870497 C55.3007951,4.87870497 56.2175663,5.19460602 56.9285423,5.82641758 C57.6395184,6.4582292 57.9950011,7.56388278 57.9950011,9.14341171 L57.9950011,16.2512563 L55.9743424,16.2512563 L55.9743424,9.14341171 C55.9743424,8.03774145 55.7386012,7.22824506 55.2671119,6.71489816 C54.7956225,6.20155126 54.2081406,5.94488166 53.5046485,5.94488166 C52.7113489,5.94488166 51.9629643,6.36345054 51.2594722,7.20060083 L51.2594722,16.2512563 L49.2388135,16.2512563 L49.2388135,7.95877101 Z"
				id="nSyn" fill="#E6E6E6"></path>
		</g>
	</g>
</svg>
