<svg width="20" height="20" viewBox="0 0 20 20" version="1.1" xmlns="http://www.w3.org/2000/svg"
	 xmlns:xlink="http://www.w3.org/1999/xlink">
	<title>Frame 8</title>
	<desc>Created using Figma</desc>
	<g id="Canvas" transform="translate(-23042 -7418)">
		<clipPath id="clip-0" clip-rule="evenodd">
			<path d="M 23042 7418L 23062 7418L 23062 7438L 23042 7438L 23042 7418Z" fill="#FFFFFF"/>
		</clipPath>
		<g id="Frame 8" clip-path="url(#clip-0)">
			<g id="folder">
				<g id="Capa_1">
					<g id="Group">
						<g id="Shape">
							<use xlink:href="#path0_fill" transform="translate(23043 7420)" fill="#FFFFFF"/>
						</g>
						<g id="Shape">
							<use xlink:href="#path1_fill" transform="translate(23045.4 7428.45)" fill="#FFFFFF"/>
						</g>
						<g id="Shape">
							<use xlink:href="#path2_fill" transform="translate(23045.4 7430.26)" fill="#FFFFFF"/>
						</g>
						<g id="Shape">
							<use xlink:href="#path2_fill" transform="translate(23045.4 7432.08)" fill="#FFFFFF"/>
						</g>
					</g>
				</g>
			</g>
		</g>
	</g>
	<defs>
		<path id="path0_fill" fill-rule="evenodd"
			  d="M 17.0938 2.41504L 8.40625 2.41504L 8.40625 0.911621C 8.40625 0.40918 8 0 7.5 0L 0.90625 0C 0.40625 0 0 0.408691 0 0.911621L 0 5.13232L 0 5.73584L 0 15.0884C 0 15.5908 0.40625 16 0.90625 16L 17.0938 16C 17.5938 16 18 15.5913 18 15.0884L 18 5.73584L 18 5.13232L 18 3.32666C 18 2.82373 17.5938 2.41504 17.0938 2.41504ZM 17.4004 15.0884C 17.4004 15.2583 17.2637 15.3965 17.0938 15.3965L 0.90625 15.3965C 0.736328 15.3965 0.599609 15.2583 0.599609 15.0884L 0.599609 5.73584L 17.4004 5.73584L 17.4004 15.0884ZM 0.599609 0.912109L 0.599609 5.13232L 17.4004 5.13232L 17.4004 3.32715C 17.4004 3.15723 17.2637 3.01904 17.0938 3.01904L 7.80469 3.01904L 7.80469 0.912109C 7.80469 0.742188 7.66797 0.604004 7.5 0.604004L 0.90625 0.604004C 0.736328 0.604004 0.599609 0.742188 0.599609 0.912109Z"/>
		<path id="path1_fill"
			  d="M 0.300007 0.603777L 4.50011 0.603777C 4.66571 0.603777 4.80012 0.468833 4.80012 0.301889C 4.80012 0.134944 4.66571 0 4.50011 0L 0.300007 0C 0.134403 0 0 0.134944 0 0.301889C 0 0.468833 0.134403 0.603777 0.300007 0.603777Z"/>
		<path id="path2_fill"
			  d="M 0.300007 0.603777L 6.90017 0.603777C 7.06577 0.603777 7.20018 0.468833 7.20018 0.301889C 7.20018 0.134944 7.06577 0 6.90017 0L 0.300007 0C 0.134403 0 0 0.134944 0 0.301889C 0 0.468833 0.134403 0.603777 0.300007 0.603777Z"/>
	</defs>
</svg>
