<svg width="20" height="20" viewBox="0 0 20 20" version="1.1" xmlns="http://www.w3.org/2000/svg" xmlns:xlink="http://www.w3.org/1999/xlink">
<title>Frame 10</title>
<desc>Created using Figma</desc>
<g id="Canvas" transform="translate(-23117 -7404)">
<clipPath id="clip-0" clip-rule="evenodd">
<path d="M 23117 7404L 23137 7404L 23137 7424L 23117 7424L 23117 7404Z" fill="#FFFFFF"/>
</clipPath>
<g id="Frame 10" clip-path="url(#clip-0)">
<g id="geo filter">
<g id="Shape">
<use xlink:href="#path0_fill" transform="translate(23119 7406)" fill="#FFFFFF"/>
</g>
<g id="Shape">
<use xlink:href="#path1_fill" transform="translate(23133.2 7413.68)" fill="#FFFFFF"/>
</g>
</g>
</g>
</g>
<defs>
<path id="path0_fill" fill-rule="evenodd" d="M 8 0C 10.1367 0 12.1465 0.832031 13.6562 2.34326C 15.168 3.854 16 5.86328 16 8C 16 10.1367 15.168 12.146 13.6562 13.6567C 12.1465 15.168 10.1367 16 8 16C 5.86328 16 3.85352 15.168 2.34375 13.6567C 0.832031 12.146 0 10.1367 0 8C 0 5.86328 0.832031 3.854 2.34375 2.34326C 3.85352 0.832031 5.86328 0 8 0ZM 4.72266 2.4585C 5.06836 1.83936 5.46094 1.33203 5.89062 0.945801C 4.15039 1.4668 2.67969 2.61523 1.74023 4.12744L 4.01172 4.12744C 4.20508 3.5249 4.44141 2.96387 4.72266 2.4585ZM 1.38672 4.76514L 3.83008 4.76514C 3.59961 5.67529 3.46875 6.66162 3.44531 7.68164L 0.644531 7.68164C 0.689453 6.63916 0.951172 5.65234 1.38672 4.76514ZM 3.44531 8.31885L 0.644531 8.31885C 0.689453 9.36133 0.951172 10.3481 1.38672 11.2354L 3.83008 11.2354C 3.59961 10.3252 3.46875 9.33887 3.44531 8.31885ZM 1.74023 11.8726L 4.01172 11.8726C 4.20508 12.4751 4.44141 13.0361 4.72266 13.5415C 5.06836 14.1606 5.46094 14.668 5.89062 15.0542C 4.15039 14.5332 2.67969 13.3848 1.74023 11.8726ZM 7.68164 15.2739L 7.68164 11.8726L 4.68359 11.8726C 4.84961 12.3608 5.05078 12.8169 5.28125 13.2314C 5.94336 14.4238 6.78711 15.1367 7.68164 15.2739ZM 7.68164 11.2354L 4.49023 11.2354C 4.24609 10.334 4.10742 9.3457 4.08398 8.31885L 7.68164 8.31885L 7.68164 11.2354ZM 4.08398 7.68164L 7.68164 7.68164L 7.68164 4.76514L 4.49023 4.76514C 4.24609 5.66602 4.10742 6.6543 4.08398 7.68164ZM 7.68164 4.12744L 4.68359 4.12744C 4.84961 3.63916 5.05078 3.18311 5.28125 2.76855C 5.94336 1.57617 6.78711 0.863281 7.68164 0.726074L 7.68164 4.12744ZM 11.9883 4.12744L 14.2598 4.12744C 13.3203 2.61523 11.8496 1.4668 10.1094 0.945801C 10.5371 1.33203 10.9316 1.83936 11.2754 2.4585C 11.5566 2.96387 11.7949 3.5249 11.9883 4.12744ZM 8.31836 4.12744L 8.31836 0.726074C 9.21289 0.863281 10.0547 1.57617 10.7188 2.76855C 10.9492 3.18311 11.1484 3.63916 11.3164 4.12744L 8.31836 4.12744ZM 11.5098 4.76514L 8.31836 4.76514L 8.31836 7.68164L 11.916 7.68164C 11.8926 6.6543 11.7539 5.66602 11.5098 4.76514ZM 11.916 8.31885C 11.8926 9.3457 11.7539 10.334 11.5098 11.2354L 8.31836 11.2354L 8.31836 8.31885L 11.916 8.31885ZM 8.31836 11.8726L 8.31836 15.2739C 9.21289 15.1367 10.0547 14.4238 10.7188 13.2314C 10.9492 12.8169 11.1484 12.3608 11.3164 11.8726L 8.31836 11.8726ZM 10.1094 15.0542C 10.5371 14.6685 10.9316 14.1606 11.2754 13.5415C 11.5566 13.0361 11.7949 12.4751 11.9883 11.8726L 14.2598 11.8726C 13.3203 13.3848 11.8496 14.5332 10.1094 15.0542ZM 12.5527 8.31885C 12.5312 9.33887 12.3984 10.3252 12.168 11.2354L 14.6113 11.2354C 15.0918 10.2583 15.3613 9.16016 15.3613 8C 15.3613 6.84033 15.0918 5.74219 14.6113 4.76514L 12.168 4.76514C 12.3984 5.67529 12.5312 6.66162 12.5527 7.68164L 13.5449 7.68164C 13.7207 7.68164 13.8633 7.82422 13.8633 8C 13.8633 8.17627 13.7207 8.31885 13.5449 8.31885L 12.5527 8.31885Z"/>
<path id="path1_fill" d="M 0.414344 0L 0.318719 0C 0.142688 0 0 0.142688 0 0.318719C 0 0.49475 0.142688 0.637438 0.318719 0.637438L 0.414344 0.637438C 0.590375 0.637438 0.733063 0.49475 0.733063 0.318719C 0.733094 0.142688 0.590344 0 0.414344 0Z"/>
</defs>
</svg>
