<svg width="23" height="23" viewBox="0 0 23 23" version="1.1" xmlns="http://www.w3.org/2000/svg" xmlns:xlink="http://www.w3.org/1999/xlink">
<title>Frame 13</title>
<desc>Created using Figma</desc>
<g id="Canvas" transform="translate(-23489 -7396)">
<clipPath id="clip-0" clip-rule="evenodd">
<path d="M 23489 7396L 23512 7396L 23512 7419L 23489 7419L 23489 7396Z" fill="#FFFFFF"/>
</clipPath>
<g id="Frame 13" clip-path="url(#clip-0)">
<g id="image">
<g id="Layer_1">
<g id="Shape">
<use xlink:href="#path0_fill" transform="translate(23490 7402.4)" fill="#FFFFFF"/>
</g>
<g id="Shape">
<use xlink:href="#path1_fill" transform="translate(23492 7400)" fill="#FFFFFF"/>
</g>
<g id="Shape">
<use xlink:href="#path2_fill" transform="translate(23500.5 7405.17)" fill="#FFFFFF"/>
</g>
</g>
</g>
</g>
</g>
<defs>
<path id="path0_fill" fill-rule="evenodd" d="M 18.6191 0L 0.445312 0C 0.222656 0 0 0.152344 0 0.373047L 0 13.1733C 0 13.394 0.222656 13.6001 0.445312 13.6001L 18.6191 13.6001C 18.8418 13.6001 18.9805 13.394 18.9805 13.1733L 18.9805 0.373047C 18.9805 0.152344 18.8418 0 18.6191 0ZM 18.1719 12.8008L 0.806641 12.8008L 0.806641 11.3398L 6.49219 5.72949L 11.8711 10.667C 12.0293 10.8135 12.2832 10.8091 12.4355 10.6567L 15.3828 7.72168L 18.1719 10.1553L 18.1719 12.8008ZM 15.6309 6.87354L 18.1719 9.09326L 18.1719 0.80127L 0.806641 0.80127L 0.806641 10.209L 6.19531 4.8916C 6.34766 4.73926 6.61523 4.73535 6.77539 4.88135L 12.1406 9.81885L 15.0918 6.8916C 15.2402 6.74268 15.4727 6.73486 15.6309 6.87354Z"/>
<path id="path1_fill" d="M 18.6187 0L 0.445634 0C 0.222427 0 0 0.152262 0 0.37314L 0 2L 0.807678 2L 0.807678 0.799985L 18.173 0.799985L 18.173 12.8L 17.3654 12.8L 17.3654 13.6L 18.6187 13.6C 18.8419 13.6 18.9808 13.394 18.9808 13.1731L 18.9808 0.37314C 18.9807 0.152262 18.8419 0 18.6187 0Z"/>
<path id="path2_fill" fill-rule="evenodd" d="M 0 2C 0 0.897461 0.90625 0 2.01953 0C 3.13281 0 4.03906 0.897461 4.03906 2C 4.03906 3.10254 3.13281 4 2.01953 4C 0.90625 4 0 3.10254 0 2ZM 0.806641 1.99951C 0.806641 2.66064 1.34961 3.19873 2.01758 3.19873C 2.68555 3.19873 3.23047 2.66064 3.23047 1.99951C 3.23047 1.33789 2.68555 0.799805 2.01758 0.799805C 1.34961 0.799805 0.806641 1.33789 0.806641 1.99951Z"/>
</defs>
</svg>
