<svg width="22" height="22" viewBox="0 0 22 22" version="1.1" xmlns="http://www.w3.org/2000/svg"
	 xmlns:xlink="http://www.w3.org/1999/xlink">
	<title>Frame 12</title>
	<desc>Created using Figma</desc>
	<g id="Canvas" transform="translate(-23412 -7398)">
		<clipPath id="clip-0" clip-rule="evenodd">
			<path d="M 23412 7398L 23434 7398L 23434 7420L 23412 7420L 23412 7398Z" fill="#FFFFFF"/>
		</clipPath>
		<g id="Frame 12" clip-path="url(#clip-0)">
			<g id="SCREENS ICON">
				<g id="Rectangle 5">
					<mask id="mask0_outline_ins">
						<use xlink:href="#path0_fill" fill="white" transform="translate(23413 7401)"/>
					</mask>
					<g mask="url(#mask0_outline_ins)">
						<use xlink:href="#path1_stroke_2x" transform="translate(23413 7401)" fill="#FFFFFF"/>
					</g>
				</g>
				<g id="Line">
					<use xlink:href="#path2_stroke" transform="translate(23422 7401.5)" fill="#FFFFFF"/>
				</g>
				<g id="Line">
					<use xlink:href="#path3_stroke" transform="translate(23413.5 7408)" fill="#FFFFFF"/>
				</g>
			</g>
		</g>
	</g>
	<defs>
		<path id="path0_fill" fill-rule="evenodd" d="M 0 0L 20 0L 20 16L 0 16L 0 0Z"/>
		<path id="path1_stroke_2x"
			  d="M 0 0L 0 -1L -1 -1L -1 0L 0 0ZM 20 0L 21 0L 21 -1L 20 -1L 20 0ZM 20 16L 20 17L 21 17L 21 16L 20 16ZM 0 16L -1 16L -1 17L 0 17L 0 16ZM 0 1L 20 1L 20 -1L 0 -1L 0 1ZM 19 0L 19 16L 21 16L 21 0L 19 0ZM 20 15L 0 15L 0 17L 20 17L 20 15ZM 1 16L 1 0L -1 0L -1 16L 1 16Z"/>
		<path id="path2_stroke"
			  d="M 1.5 0L 1.5 -0.5L 0.5 -0.5L 0.5 0L 1.5 0ZM 0.5 0.5L 0.5 1L 1.5 1L 1.5 0.5L 0.5 0.5ZM 1.5 1.5L 1.5 1L 0.5 1L 0.5 1.5L 1.5 1.5ZM 0.5 2.5L 0.5 3L 1.5 3L 1.5 2.5L 0.5 2.5ZM 1.5 3.5L 1.5 3L 0.5 3L 0.5 3.5L 1.5 3.5ZM 0.5 4.5L 0.5 5L 1.5 5L 1.5 4.5L 0.5 4.5ZM 1.5 5.5L 1.5 5L 0.5 5L 0.5 5.5L 1.5 5.5ZM 0.5 6.5L 0.5 7L 1.5 7L 1.5 6.5L 0.5 6.5ZM 1.5 7.5L 1.5 7L 0.5 7L 0.5 7.5L 1.5 7.5ZM 0.5 8.5L 0.5 9L 1.5 9L 1.5 8.5L 0.5 8.5ZM 1.5 9.5L 1.5 9L 0.5 9L 0.5 9.5L 1.5 9.5ZM 0.5 10.5L 0.5 11L 1.5 11L 1.5 10.5L 0.5 10.5ZM 1.5 11.5L 1.5 11L 0.5 11L 0.5 11.5L 1.5 11.5ZM 0.5 12.5L 0.5 13L 1.5 13L 1.5 12.5L 0.5 12.5ZM 1.5 13.5L 1.5 13L 0.5 13L 0.5 13.5L 1.5 13.5ZM 0.5 14.5L 0.5 15L 1.5 15L 1.5 14.5L 0.5 14.5ZM 0.5 0L 0.5 0.5L 1.5 0.5L 1.5 0L 0.5 0ZM 0.5 1.5L 0.5 2.5L 1.5 2.5L 1.5 1.5L 0.5 1.5ZM 0.5 3.5L 0.5 4.5L 1.5 4.5L 1.5 3.5L 0.5 3.5ZM 0.5 5.5L 0.5 6.5L 1.5 6.5L 1.5 5.5L 0.5 5.5ZM 0.5 7.5L 0.5 8.5L 1.5 8.5L 1.5 7.5L 0.5 7.5ZM 0.5 9.5L 0.5 10.5L 1.5 10.5L 1.5 9.5L 0.5 9.5ZM 0.5 11.5L 0.5 12.5L 1.5 12.5L 1.5 11.5L 0.5 11.5ZM 0.5 13.5L 0.5 14.5L 1.5 14.5L 1.5 13.5L 0.5 13.5Z"/>
		<path id="path3_stroke"
			  d="M 0 0.5L -0.5 0.5L -0.5 1.5L 0 1.5L 0 0.5ZM 0.5 1.5L 1 1.5L 1 0.5L 0.5 0.5L 0.5 1.5ZM 1.5 0.5L 1 0.5L 1 1.5L 1.5 1.5L 1.5 0.5ZM 2.5 1.5L 3 1.5L 3 0.5L 2.5 0.5L 2.5 1.5ZM 3.5 0.5L 3 0.5L 3 1.5L 3.5 1.5L 3.5 0.5ZM 4.5 1.5L 5 1.5L 5 0.5L 4.5 0.5L 4.5 1.5ZM 5.5 0.5L 5 0.5L 5 1.5L 5.5 1.5L 5.5 0.5ZM 6.5 1.5L 7 1.5L 7 0.5L 6.5 0.5L 6.5 1.5ZM 7.5 0.5L 7 0.5L 7 1.5L 7.5 1.5L 7.5 0.5ZM 8.5 1.5L 9 1.5L 9 0.5L 8.5 0.5L 8.5 1.5ZM 9.5 0.5L 9 0.5L 9 1.5L 9.5 1.5L 9.5 0.5ZM 10.5 1.5L 11 1.5L 11 0.5L 10.5 0.5L 10.5 1.5ZM 11.5 0.5L 11 0.5L 11 1.5L 11.5 1.5L 11.5 0.5ZM 12.5 1.5L 13 1.5L 13 0.5L 12.5 0.5L 12.5 1.5ZM 13.5 0.5L 13 0.5L 13 1.5L 13.5 1.5L 13.5 0.5ZM 14.5 1.5L 15 1.5L 15 0.5L 14.5 0.5L 14.5 1.5ZM 15.5 0.5L 15 0.5L 15 1.5L 15.5 1.5L 15.5 0.5ZM 16.5 1.5L 17 1.5L 17 0.5L 16.5 0.5L 16.5 1.5ZM 17.5 0.5L 17 0.5L 17 1.5L 17.5 1.5L 17.5 0.5ZM 18.5 1.5L 19 1.5L 19 0.5L 18.5 0.5L 18.5 1.5ZM 0 1.5L 0.5 1.5L 0.5 0.5L 0 0.5L 0 1.5ZM 1.5 1.5L 2.5 1.5L 2.5 0.5L 1.5 0.5L 1.5 1.5ZM 3.5 1.5L 4.5 1.5L 4.5 0.5L 3.5 0.5L 3.5 1.5ZM 5.5 1.5L 6.5 1.5L 6.5 0.5L 5.5 0.5L 5.5 1.5ZM 7.5 1.5L 8.5 1.5L 8.5 0.5L 7.5 0.5L 7.5 1.5ZM 9.5 1.5L 10.5 1.5L 10.5 0.5L 9.5 0.5L 9.5 1.5ZM 11.5 1.5L 12.5 1.5L 12.5 0.5L 11.5 0.5L 11.5 1.5ZM 13.5 1.5L 14.5 1.5L 14.5 0.5L 13.5 0.5L 13.5 1.5ZM 15.5 1.5L 16.5 1.5L 16.5 0.5L 15.5 0.5L 15.5 1.5ZM 17.5 1.5L 18.5 1.5L 18.5 0.5L 17.5 0.5L 17.5 1.5Z"/>
	</defs>
</svg>
