<svg width="20" height="20" viewBox="0 0 20 20" version="1.1" xmlns="http://www.w3.org/2000/svg"
	 xmlns:xlink="http://www.w3.org/1999/xlink">
	<title>Frame 9</title>
	<desc>Created using Figma</desc>
	<g id="Canvas" transform="translate(-22870 -7404)">
		<clipPath id="clip-0" clip-rule="evenodd">
			<path d="M 22870 7404L 22890 7404L 22890 7424L 22870 7424L 22870 7404Z" fill="#FFFFFF"/>
		</clipPath>
		<g id="Frame 9" clip-path="url(#clip-0)">
			<g id="Orientation icon">
				<g id="Group 12">
					<g id="Rectangle 5">
						<mask id="mask0_outline_ins">
							<use xlink:href="#path0_fill" fill="white" transform="translate(22872 7409.64)"/>
						</mask>
						<g mask="url(#mask0_outline_ins)">
							<use xlink:href="#path1_stroke_2x" transform="translate(22872 7409.64)" fill="#FFFFFF"/>
						</g>
					</g>
					<g id="Rectangle 5">
						<mask id="mask1_outline_ins">
							<use xlink:href="#path0_fill" fill="white"
								 transform="matrix(0.984808 0.173648 -0.173648 0.984808 22876 7406.53)"/>
						</mask>
						<g mask="url(#mask1_outline_ins)">
							<use xlink:href="#path2_stroke_2x"
								 transform="matrix(0.984808 0.173648 -0.173648 0.984808 22876 7406.53)" fill="#FFFFFF"/>
						</g>
					</g>
				</g>
			</g>
		</g>
	</g>
	<defs>
		<path id="path0_fill" fill-rule="evenodd" d="M 0 0L 11.6364 0L 11.6364 11.6364L 0 11.6364L 0 0Z"/>
		<path id="path1_stroke_2x"
			  d="M 0 0L 0 -1L -1 -1L -1 0L 0 0ZM 11.6364 0L 12.6364 0L 12.6364 -1L 11.6364 -1L 11.6364 0ZM 11.6364 11.6364L 11.6364 12.6364L 12.6364 12.6364L 12.6364 11.6364L 11.6364 11.6364ZM 0 11.6364L -1 11.6364L -1 12.6364L 0 12.6364L 0 11.6364ZM 0 1L 11.6364 1L 11.6364 -1L 0 -1L 0 1ZM 10.6364 0L 10.6364 11.6364L 12.6364 11.6364L 12.6364 0L 10.6364 0ZM 11.6364 10.6364L 0 10.6364L 0 12.6364L 11.6364 12.6364L 11.6364 10.6364ZM 1 11.6364L 1 0L -1 0L -1 11.6364L 1 11.6364Z"/>
		<path id="path2_stroke_2x"
			  d="M 0 0L 0 -0.5L -0.5 -0.5L -0.5 0L 0 0ZM 11.6364 0L 12.1364 0L 12.1364 -0.5L 11.6364 -0.5L 11.6364 0ZM 11.6364 11.6364L 11.6364 12.1364L 12.1364 12.1364L 12.1364 11.6364L 11.6364 11.6364ZM 0 11.6364L -0.5 11.6364L -0.5 12.1364L 0 12.1364L 0 11.6364ZM -0.5 0L -0.5 0.484848L 0.5 0.484848L 0.5 0L -0.5 0ZM -0.5 1.45455L -0.5 2.42424L 0.5 2.42424L 0.5 1.45455L -0.5 1.45455ZM -0.5 3.39394L -0.5 4.36364L 0.5 4.36364L 0.5 3.39394L -0.5 3.39394ZM -0.5 5.33333L -0.5 6.30303L 0.5 6.30303L 0.5 5.33333L -0.5 5.33333ZM -0.5 7.27273L -0.5 8.24242L 0.5 8.24242L 0.5 7.27273L -0.5 7.27273ZM -0.5 9.21212L -0.5 10.1818L 0.5 10.1818L 0.5 9.21212L -0.5 9.21212ZM -0.5 11.1515L -0.5 11.6364L 0.5 11.6364L 0.5 11.1515L -0.5 11.1515ZM 0 12.1364L 0.484848 12.1364L 0.484848 11.1364L 0 11.1364L 0 12.1364ZM 1.45455 12.1364L 2.42424 12.1364L 2.42424 11.1364L 1.45455 11.1364L 1.45455 12.1364ZM 3.39394 12.1364L 4.36364 12.1364L 4.36364 11.1364L 3.39394 11.1364L 3.39394 12.1364ZM 5.33333 12.1364L 6.30303 12.1364L 6.30303 11.1364L 5.33333 11.1364L 5.33333 12.1364ZM 7.27273 12.1364L 8.24242 12.1364L 8.24242 11.1364L 7.27273 11.1364L 7.27273 12.1364ZM 9.21212 12.1364L 10.1818 12.1364L 10.1818 11.1364L 9.21212 11.1364L 9.21212 12.1364ZM 11.1515 12.1364L 11.6364 12.1364L 11.6364 11.1364L 11.1515 11.1364L 11.1515 12.1364ZM 12.1364 11.6364L 12.1364 11.1515L 11.1364 11.1515L 11.1364 11.6364L 12.1364 11.6364ZM 12.1364 10.1818L 12.1364 9.21212L 11.1364 9.21212L 11.1364 10.1818L 12.1364 10.1818ZM 12.1364 8.24242L 12.1364 7.27273L 11.1364 7.27273L 11.1364 8.24242L 12.1364 8.24242ZM 12.1364 6.30303L 12.1364 5.33333L 11.1364 5.33333L 11.1364 6.30303L 12.1364 6.30303ZM 12.1364 4.36364L 12.1364 3.39394L 11.1364 3.39394L 11.1364 4.36364L 12.1364 4.36364ZM 12.1364 2.42424L 12.1364 1.45455L 11.1364 1.45455L 11.1364 2.42424L 12.1364 2.42424ZM 12.1364 0.484848L 12.1364 0L 11.1364 0L 11.1364 0.484848L 12.1364 0.484848ZM 11.6364 -0.5L 11.1515 -0.5L 11.1515 0.5L 11.6364 0.5L 11.6364 -0.5ZM 10.1818 -0.5L 9.21212 -0.5L 9.21212 0.5L 10.1818 0.5L 10.1818 -0.5ZM 8.24242 -0.5L 7.27273 -0.5L 7.27273 0.5L 8.24242 0.5L 8.24242 -0.5ZM 6.30303 -0.5L 5.33333 -0.5L 5.33333 0.5L 6.30303 0.5L 6.30303 -0.5ZM 4.36364 -0.5L 3.39394 -0.5L 3.39394 0.5L 4.36364 0.5L 4.36364 -0.5ZM 2.42424 -0.5L 1.45455 -0.5L 1.45455 0.5L 2.42424 0.5L 2.42424 -0.5ZM 0.484848 -0.5L 0 -0.5L 0 0.5L 0.484848 0.5L 0.484848 -0.5ZM 0 0L 0 -1L -1 -1L -1 0L 0 0ZM 11.6364 0L 12.6364 0L 12.6364 -1L 11.6364 -1L 11.6364 0ZM 11.6364 11.6364L 11.6364 12.6364L 12.6364 12.6364L 12.6364 11.6364L 11.6364 11.6364ZM 0 11.6364L -1 11.6364L -1 12.6364L 0 12.6364L 0 11.6364ZM -1 0L -1 0.484848L 1 0.484848L 1 0L -1 0ZM -1 1.45455L -1 2.42424L 1 2.42424L 1 1.45455L -1 1.45455ZM -1 3.39394L -1 4.36364L 1 4.36364L 1 3.39394L -1 3.39394ZM -1 5.33333L -1 6.30303L 1 6.30303L 1 5.33333L -1 5.33333ZM -1 7.27273L -1 8.24242L 1 8.24242L 1 7.27273L -1 7.27273ZM -1 9.21212L -1 10.1818L 1 10.1818L 1 9.21212L -1 9.21212ZM -1 11.1515L -1 11.6364L 1 11.6364L 1 11.1515L -1 11.1515ZM 0 12.6364L 0.484848 12.6364L 0.484848 10.6364L 0 10.6364L 0 12.6364ZM 1.45455 12.6364L 2.42424 12.6364L 2.42424 10.6364L 1.45455 10.6364L 1.45455 12.6364ZM 3.39394 12.6364L 4.36364 12.6364L 4.36364 10.6364L 3.39394 10.6364L 3.39394 12.6364ZM 5.33333 12.6364L 6.30303 12.6364L 6.30303 10.6364L 5.33333 10.6364L 5.33333 12.6364ZM 7.27273 12.6364L 8.24242 12.6364L 8.24242 10.6364L 7.27273 10.6364L 7.27273 12.6364ZM 9.21212 12.6364L 10.1818 12.6364L 10.1818 10.6364L 9.21212 10.6364L 9.21212 12.6364ZM 11.1515 12.6364L 11.6364 12.6364L 11.6364 10.6364L 11.1515 10.6364L 11.1515 12.6364ZM 12.6364 11.6364L 12.6364 11.1515L 10.6364 11.1515L 10.6364 11.6364L 12.6364 11.6364ZM 12.6364 10.1818L 12.6364 9.21212L 10.6364 9.21212L 10.6364 10.1818L 12.6364 10.1818ZM 12.6364 8.24242L 12.6364 7.27273L 10.6364 7.27273L 10.6364 8.24242L 12.6364 8.24242ZM 12.6364 6.30303L 12.6364 5.33333L 10.6364 5.33333L 10.6364 6.30303L 12.6364 6.30303ZM 12.6364 4.36364L 12.6364 3.39394L 10.6364 3.39394L 10.6364 4.36364L 12.6364 4.36364ZM 12.6364 2.42424L 12.6364 1.45455L 10.6364 1.45455L 10.6364 2.42424L 12.6364 2.42424ZM 12.6364 0.484848L 12.6364 0L 10.6364 0L 10.6364 0.484848L 12.6364 0.484848ZM 11.6364 -1L 11.1515 -1L 11.1515 1L 11.6364 1L 11.6364 -1ZM 10.1818 -1L 9.21212 -1L 9.21212 1L 10.1818 1L 10.1818 -1ZM 8.24242 -1L 7.27273 -1L 7.27273 1L 8.24242 1L 8.24242 -1ZM 6.30303 -1L 5.33333 -1L 5.33333 1L 6.30303 1L 6.30303 -1ZM 4.36364 -1L 3.39394 -1L 3.39394 1L 4.36364 1L 4.36364 -1ZM 2.42424 -1L 1.45455 -1L 1.45455 1L 2.42424 1L 2.42424 -1ZM 0.484848 -1L 0 -1L 0 1L 0.484848 1L 0.484848 -1Z"/>
	</defs>
</svg>
