<svg width="26" height="26" viewBox="0 0 26 26" version="1.1" xmlns="http://www.w3.org/2000/svg"
	 xmlns:xlink="http://www.w3.org/1999/xlink">
	<title>Frame 14</title>
	<desc>Created using Figma</desc>
	<g id="Canvas" transform="translate(-27250 -4790)">
		<clipPath id="clip-0" clip-rule="evenodd">
			<path d="M 27250 4790L 27276 4790L 27276 4816L 27250 4816L 27250 4790Z" fill="#FFFFFF"/>
		</clipPath>
		<g id="Frame 14" clip-path="url(#clip-0)">
			<g id="Group 11">
				<g id="Vector">
					<use xlink:href="#path0_fill" transform="translate(27253 4798)" fill="#727272"/>
				</g>
			</g>
		</g>
	</g>
	<defs>
		<path id="path0_fill"
			  d="M 1.9 5C 1.9 3.29 3.29 1.9 5 1.9L 9 1.9L 9 0L 5 0C 2.24 0 0 2.24 0 5C 0 7.76 2.24 10 5 10L 9 10L 9 8.1L 5 8.1C 3.29 8.1 1.9 6.71 1.9 5ZM 6 6L 14 6L 14 4L 6 4L 6 6ZM 15 0L 11 0L 11 1.9L 15 1.9C 16.71 1.9 18.1 3.29 18.1 5C 18.1 6.71 16.71 8.1 15 8.1L 11 8.1L 11 10L 15 10C 17.76 10 20 7.76 20 5C 20 2.24 17.76 0 15 0Z"/>
	</defs>
</svg>
