<svg width="20" height="20" viewBox="0 0 20 20" version="1.1" xmlns="http://www.w3.org/2000/svg"
	 xmlns:xlink="http://www.w3.org/1999/xlink">
	<title>Frame 11</title>
	<desc>Created using Figma</desc>
	<g id="Canvas" transform="translate(-23299 -7388)">
		<clipPath id="clip-0" clip-rule="evenodd">
			<path d="M 23299 7388L 23319 7388L 23319 7408L 23299 7408L 23299 7388Z" fill="#FFFFFF"/>
		</clipPath>
		<g id="Frame 11" clip-path="url(#clip-0)">
			<g id="calendar">
				<g id="Group">
					<g id="Shape">
						<use xlink:href="#path0_fill" transform="translate(23301 7390)" fill="#FFFFFF"/>
					</g>
					<g id="Shape">
						<use xlink:href="#path1_fill" transform="translate(23311.9 7399.61)" fill="#FFFFFF"/>
					</g>
				</g>
			</g>
		</g>
	</g>
	<defs>
		<path id="path0_fill" fill-rule="evenodd"
			  d="M 13.4824 1.35791L 13.4824 8.48389C 14.9453 9.00391 16.0039 10.4487 16 12.1401C 16 14.2617 14.3301 16 12.2891 16C 10.6074 16 9.17773 14.8188 8.72656 13.2178L 0 13.2178L 0 1.35791L 2.89453 1.35791L 2.89453 0L 3.57617 0L 3.57617 1.35791L 6.40039 1.35791L 6.40039 0L 7.08398 0L 7.08398 1.35791L 9.9082 1.35791L 9.9082 0L 10.5879 0L 10.5879 1.35791L 13.4824 1.35791ZM 2.89453 2.05127L 0.683594 2.05127L 0.683594 5.25049L 12.8027 5.25049L 12.8027 2.05127L 10.5859 2.05127L 10.5859 3.5459L 9.90625 3.5459L 9.90625 2.05127L 7.08203 2.05127L 7.08203 3.5459L 6.40234 3.5459L 6.40234 2.05127L 3.57422 2.05127L 3.57422 3.5459L 2.89453 3.5459L 2.89453 2.05127ZM 8.60352 12.5234L 0.683594 12.5234L 0.683594 5.94824L 12.8027 5.94824L 12.8027 8.31689C 12.6367 8.29346 12.4668 8.28027 12.2949 8.28027C 10.252 8.28027 8.58398 10.0181 8.58398 12.1401C 8.58398 12.27 8.58984 12.397 8.60352 12.5234ZM 9.26172 12.1367C 9.26172 13.8779 10.623 15.3027 12.293 15.3027C 13.959 15.3027 15.3242 13.8779 15.3242 12.1367C 15.3242 10.395 13.9609 8.9707 12.293 8.9707C 10.623 8.9707 9.26172 10.3984 9.26172 12.1367Z"/>
		<path id="path1_fill"
			  d="M 1.09083 2.04168L 0 2.04168L 0 2.73559L 1.77341 2.73559L 1.77341 0L 1.09083 0L 1.09083 2.04168Z"/>
	</defs>
</svg>
