<svg width="24" height="24" viewBox="0 0 24 24" version="1.1" xmlns="http://www.w3.org/2000/svg" xmlns:xlink="http://www.w3.org/1999/xlink">
<title>Frame 27</title>
<desc>Created using Figma</desc>
<g id="Canvas" transform="translate(-27913 -4848)">
<clipPath id="clip-0" clip-rule="evenodd">
<path d="M 27913 4848L 27937 4848L 27937 4872L 27913 4872L 27913 4848Z" fill="#FFFFFF"/>
</clipPath>
<g id="Frame 27" clip-path="url(#clip-0)">
<g id="placeholder">
<g id="Group">
<g id="Vector">
<use xlink:href="#path0_fill" transform="translate(27922.9 4854.6)" fill="#FFFFFF"/>
<use xlink:href="#path1_stroke" transform="translate(27922.9 4854.6)" fill="#FFFFFF"/>
</g>
<g id="Vector">
<use xlink:href="#path2_fill" transform="translate(27919.2 4851)" fill="#FFFFFF"/>
<use xlink:href="#path3_stroke" transform="translate(27919.2 4851)" fill="#FFFFFF"/>
</g>
<g id="Vector">
<use xlink:href="#path4_fill" transform="translate(27916 4863.9)" fill="#FFFFFF"/>
<use xlink:href="#path5_stroke" transform="translate(27916 4863.9)" fill="#FFFFFF"/>
</g>
</g>
</g>
</g>
</g>
<defs>
<path id="path0_fill" d="M 2.1 4.2C 3.258 4.2 4.2 3.2577 4.2 2.1C 4.2 0.9423 3.258 0 2.1 0C 0.942 0 0 0.9423 0 2.1C 0 3.2577 0.942 4.2 2.1 4.2ZM 2.1 0.6C 2.9271 0.6 3.6 1.2729 3.6 2.1C 3.6 2.9271 2.9271 3.6 2.1 3.6C 1.2729 3.6 0.6 2.9271 0.6 2.1C 0.6 1.2729 1.2729 0.6 2.1 0.6Z"/>
<path id="path1_stroke" d="M 2.1 4.45C 3.39609 4.45 4.45 3.39575 4.45 2.1L 3.95 2.1C 3.95 3.11965 3.11991 3.95 2.1 3.95L 2.1 4.45ZM 4.45 2.1C 4.45 0.804252 3.39609 -0.25 2.1 -0.25L 2.1 0.25C 3.11991 0.25 3.95 1.08035 3.95 2.1L 4.45 2.1ZM 2.1 -0.25C 0.803906 -0.25 -0.25 0.804252 -0.25 2.1L 0.25 2.1C 0.25 1.08035 1.08009 0.25 2.1 0.25L 2.1 -0.25ZM -0.25 2.1C -0.25 3.39575 0.803906 4.45 2.1 4.45L 2.1 3.95C 1.08009 3.95 0.25 3.11965 0.25 2.1L -0.25 2.1ZM 2.1 0.85C 2.78903 0.85 3.35 1.41097 3.35 2.1L 3.85 2.1C 3.85 1.13483 3.06517 0.35 2.1 0.35L 2.1 0.85ZM 3.35 2.1C 3.35 2.78903 2.78903 3.35 2.1 3.35L 2.1 3.85C 3.06517 3.85 3.85 3.06517 3.85 2.1L 3.35 2.1ZM 2.1 3.35C 1.41097 3.35 0.85 2.78903 0.85 2.1L 0.35 2.1C 0.35 3.06517 1.13483 3.85 2.1 3.85L 2.1 3.35ZM 0.85 2.1C 0.85 1.41097 1.41097 0.85 2.1 0.85L 2.1 0.35C 1.13483 0.35 0.35 1.13483 0.35 2.1L 0.85 2.1Z"/>
<path id="path2_fill" d="M 5.75311 16.4271L 10.3554 9.78C 12.0816 7.4787 11.832 3.696 9.82111 1.6854C 8.73451 0.5985 7.28971 0 5.75311 0C 4.21651 0 2.77171 0.5985 1.68511 1.6851C -0.325788 3.6957 -0.575389 7.4784 1.14391 9.7707L 5.75311 16.4271ZM 2.10931 2.1093C 3.08281 1.1361 4.37671 0.6 5.75311 0.6C 7.12951 0.6 8.42341 1.1361 9.39691 2.1093C 11.2119 3.924 11.4354 7.3404 9.86881 9.429L 5.75311 15.3729L 1.63081 9.42C 0.0708116 7.3404 0.294611 3.924 2.10931 2.1093Z"/>
<path id="path3_stroke" d="M 5.75311 16.4271L 5.54758 16.5694L 5.75312 16.8663L 5.95865 16.5694L 5.75311 16.4271ZM 10.3554 9.78L 10.1553 9.62988L 10.1499 9.63769L 10.3554 9.78ZM 9.82111 1.6854L 9.64431 1.86215L 9.64435 1.86219L 9.82111 1.6854ZM 1.68511 1.6851L 1.86188 1.86189L 1.86189 1.86188L 1.68511 1.6851ZM 1.14391 9.7707L 1.34959 9.62828L 1.34391 9.6207L 1.14391 9.7707ZM 2.10931 2.1093L 1.93256 1.9325L 1.93253 1.93252L 2.10931 2.1093ZM 9.39691 2.1093L 9.57367 1.93251L 9.57366 1.9325L 9.39691 2.1093ZM 9.86881 9.429L 9.66867 9.27888L 9.66327 9.28668L 9.86881 9.429ZM 5.75311 15.3729L 5.54758 15.5152L 5.75312 15.812L 5.95865 15.5152L 5.75311 15.3729ZM 1.63081 9.42L 1.83649 9.27757L 1.8308 9.26998L 1.63081 9.42ZM 5.95865 16.5694L 10.561 9.92231L 10.1499 9.63769L 5.54757 16.2848L 5.95865 16.5694ZM 10.5554 9.93001C 12.3549 7.53096 12.0983 3.60876 9.99788 1.50861L 9.64435 1.86219C 11.5657 3.78324 11.8083 7.42643 10.1554 9.62999L 10.5554 9.93001ZM 9.99791 1.50865C 8.86443 0.374848 7.35603 -0.25 5.75311 -0.25L 5.75311 0.25C 7.2234 0.25 8.6046 0.822152 9.64431 1.86215L 9.99791 1.50865ZM 5.75311 -0.25C 4.1502 -0.25 2.64181 0.374844 1.50833 1.50832L 1.86189 1.86188C 2.90161 0.822156 4.28282 0.25 5.75311 0.25L 5.75311 -0.25ZM 1.50835 1.50831C -0.591921 3.60827 -0.848862 7.53044 0.943914 9.9207L 1.34391 9.6207C -0.301916 7.42636 -0.0596564 3.78313 1.86188 1.86189L 1.50835 1.50831ZM 0.938377 9.91302L 5.54758 16.5694L 5.95865 16.2848L 1.34945 9.62838L 0.938377 9.91302ZM 2.28606 2.2861C 3.2127 1.35975 4.44304 0.85 5.75311 0.85L 5.75311 0.35C 4.31038 0.35 2.95292 0.912454 1.93256 1.9325L 2.28606 2.2861ZM 5.75311 0.85C 7.06318 0.85 8.29352 1.35975 9.22016 2.2861L 9.57366 1.9325C 8.55331 0.912454 7.19584 0.35 5.75311 0.35L 5.75311 0.85ZM 9.22015 2.28609C 10.9452 4.01086 11.1624 7.2877 9.66882 9.27899L 10.0688 9.57901C 11.7084 7.3931 11.4786 3.83714 9.57367 1.93251L 9.22015 2.28609ZM 9.66327 9.28668L 5.54757 15.2306L 5.95865 15.5152L 10.0743 9.57132L 9.66327 9.28668ZM 5.95864 15.2306L 1.83634 9.27767L 1.42528 9.56233L 5.54758 15.5152L 5.95864 15.2306ZM 1.8308 9.26998C 0.343992 7.28795 0.561086 4.01108 2.28609 2.28608L 1.93253 1.93252C 0.0281368 3.83692 -0.202369 7.39284 1.43083 9.57002L 1.8308 9.26998Z"/>
<path id="path4_fill" d="M 12.6351 0.00234343C 12.4701 -0.0177566 12.3213 0.100443 12.3021 0.265143C 12.2829 0.429843 12.4005 0.578943 12.5649 0.598143C 15.7197 0.969543 17.4 1.97034 17.4 2.55024C 17.4 3.36444 14.2044 4.50024 9 4.50024C 3.7956 4.50024 0.6 3.36444 0.6 2.55024C 0.6 1.97034 2.2803 0.969543 5.4351 0.598143C 5.5995 0.578943 5.7171 0.429543 5.6979 0.265143C 5.6784 0.100443 5.5296 -0.0183566 5.3649 0.00234343C 2.2062 0.374343 0 1.42194 0 2.55024C 0 3.81744 3.0915 5.10024 9 5.10024C 14.9085 5.10024 18 3.81744 18 2.55024C 18 1.42194 15.7938 0.374343 12.6351 0.00234343Z"/>
<path id="path5_stroke" d="M 12.6351 0.00234343L 12.6049 0.250511L 12.6059 0.250628L 12.6351 0.00234343ZM 12.5649 0.598143L 12.5941 0.349858L 12.5939 0.349831L 12.5649 0.598143ZM 5.4351 0.598143L 5.4061 0.349831L 5.40587 0.349858L 5.4351 0.598143ZM 5.6979 0.265143L 5.94621 0.236143L 5.94617 0.235749L 5.6979 0.265143ZM 5.3649 0.00234343L 5.39414 0.250635L 5.39608 0.250392L 5.3649 0.00234343ZM 12.6653 -0.245822C 12.3617 -0.282812 12.0889 -0.0650517 12.0538 0.236195L 12.5504 0.294091C 12.5537 0.265938 12.5785 0.247299 12.6049 0.250509L 12.6653 -0.245822ZM 12.0538 0.236195C 12.0187 0.537448 12.2338 0.811175 12.5359 0.846456L 12.5939 0.349831C 12.5672 0.346711 12.5471 0.322238 12.5504 0.294091L 12.0538 0.236195ZM 12.5357 0.846429C 14.0934 1.02901 15.2651 1.36165 16.0623 1.72371C 16.4551 1.90115 16.7327 2.07262 16.9234 2.24086C 17.1175 2.41085 17.15 2.51839 17.15 2.55024L 17.65 2.55024C 17.65 2.29215 17.4725 2.05712 17.2529 1.86476C 17.03 1.67064 16.6904 1.45997 16.2687 1.2683C 15.437 0.892139 14.1912 0.538672 12.5941 0.349858L 12.5357 0.846429ZM 17.15 2.55024C 17.15 2.56771 17.141 2.61751 17.0662 2.70106C 16.9851 2.79336 16.8708 2.88014 16.6939 2.98218C 16.3302 3.19408 15.7989 3.40003 15.0874 3.58898C 13.6532 3.97114 11.5854 4.25081 9 4.25024L 9 4.75024C 11.619 4.74968 13.7512 4.46145 15.2159 4.07216C 15.9539 3.87538 16.5468 3.64472 16.9448 3.41467C 17.1488 3.29572 17.3249 3.16019 17.4388 3.03453C 17.5591 2.90013 17.65 2.73632 17.65 2.55024L 17.15 2.55024ZM 9 4.25024C 6.41459 4.25081 4.34679 3.97114 2.91264 3.58898C 2.20114 3.40003 1.66984 3.19408 1.30608 2.98218C 1.12919 2.88014 1.0149 2.79336 0.933754 2.70106C 0.858968 2.61751 0.85 2.56771 0.85 2.55024L 0.35 2.55024C 0.35 2.73632 0.440895 2.90013 0.561197 3.03453C 0.67514 3.16019 0.851171 3.29572 1.05518 3.41467C 1.45323 3.64472 2.04611 3.87538 2.78406 4.07216C 4.24881 4.46145 6.38101 4.74968 9 4.75024L 9 4.25024ZM 0.85 2.55024C 0.85 2.51839 0.88252 2.41085 1.07657 2.24086C 1.26733 2.07262 1.54493 1.90115 1.9377 1.72371C 2.73489 1.36165 3.9066 1.02901 5.46433 0.846429L 5.40587 0.349858C 3.8088 0.538672 2.56296 0.892139 1.7313 1.2683C 1.30964 1.45997 0.969991 1.67064 0.747108 1.86476C 0.527518 2.05712 0.35 2.29215 0.35 2.55024L 0.85 2.55024ZM 5.4641 0.846456C 5.7663 0.811162 5.98135 0.53702 5.94621 0.236143L 5.44959 0.294143C 5.45285 0.322066 5.4327 0.346725 5.4061 0.349831L 5.4641 0.846456ZM 5.94617 0.235749C 5.91068 -0.0639802 5.63888 -0.284057 5.33372 -0.245705L 5.39608 0.250392C 5.42032 0.247344 5.44612 0.264867 5.44963 0.294537L 5.94617 0.235749ZM 5.33566 -0.245941C 3.73884 -0.0572537 2.35836 0.308488 1.39069 0.766853C 0.901724 0.999762 0.490785 1.27322 0.215094 1.5539C -0.069168 1.84538 -0.25 2.18161 -0.25 2.55024L 0.25 2.55024C 0.25 2.35472 0.344943 2.13689 0.573053 1.90299C 0.809733 1.65828 1.14776 1.43504 1.60518 1.21851C 2.53029 0.777999 3.83226 0.433941 5.39414 0.250628L 5.33566 -0.245941ZM -0.25 2.55024C -0.25 2.9764 0.00984193 3.35881 0.421485 3.68031C 0.824961 3.99371 1.43568 4.29298 2.20877 4.53876C 3.74015 5.02328 6.02807 5.34962 9 5.35024L 9 4.85024C 6.06343 4.85087 3.85135 4.5358 2.35985 4.06213C 1.62151 3.8288 1.09007 3.56978 0.729249 3.28625C 0.376596 3.01083 0.25 2.75769 0.25 2.55024L -0.25 2.55024ZM 9 5.35024C 11.9719 5.34962 14.2598 5.02328 15.7912 4.53876C 16.5643 4.29298 17.175 3.99371 17.5785 3.68031C 17.9902 3.35881 18.25 2.9764 18.25 2.55024L 17.75 2.55024C 17.75 2.75769 17.6234 3.01083 17.2708 3.28625C 16.9099 3.56978 16.3785 3.8288 15.6401 4.06213C 14.1487 4.5358 11.9366 4.85087 9 4.85024L 9 5.35024ZM 18.25 2.55024C 18.25 2.18161 18.0692 1.84538 17.7849 1.5539C 17.5092 1.27322 17.0983 0.999762 16.6093 0.766853C 15.6416 0.308488 14.2612 -0.0572537 12.6643 -0.245941L 12.6059 0.250628C 14.1677 0.433941 15.4697 0.777999 16.3948 1.21851C 16.8522 1.43504 17.1903 1.65828 17.4269 1.90299C 17.6551 2.13689 17.75 2.35472 17.75 2.55024L 18.25 2.55024Z"/>
</defs>
</svg>
