<?xml version="1.0" encoding="UTF-8"?>
<svg width="24px" height="24px" viewBox="0 0 24 24" version="1.1" xmlns="http://www.w3.org/2000/svg"
	 xmlns:xlink="http://www.w3.org/1999/xlink">
	<!-- Generator: Sketch 46.2 (44496) - http://www.bohemiancoding.com/sketch -->
	<title>Artboard</title>
	<desc>Created with Sketch.</desc>
	<defs>
		<circle id="path-1" cx="10" cy="10" r="1"></circle>
		<filter x="-100.0%" y="-50.0%" width="300.0%" height="300.0%" filterUnits="objectBoundingBox" id="filter-2">
			<feOffset dx="0" dy="1" in="SourceAlpha" result="shadowOffsetOuter1"></feOffset>
			<feGaussianBlur stdDeviation="0.5" in="shadowOffsetOuter1" result="shadowBlurOuter1"></feGaussianBlur>
			<feColorMatrix values="0 0 0 0 0   0 0 0 0 0   0 0 0 0 0  0 0 0 0.24 0" type="matrix"
						   in="shadowBlurOuter1"></feColorMatrix>
		</filter>
		<path
			d="M0.837163622,11 L7.16283638,11 C7.6252771,11 8,10.5523899 8,10 C8,9.44761011 7.6252771,9 7.16283638,9 L0.837163622,9 C0.3747229,8.99993296 0,9.44754307 0,10 C0,10.5524569 0.3747229,11 0.837163622,11 Z"
			id="path-3"></path>
		<filter x="-25.0%" y="-50.0%" width="150.0%" height="300.0%" filterUnits="objectBoundingBox" id="filter-4">
			<feOffset dx="0" dy="1" in="SourceAlpha" result="shadowOffsetOuter1"></feOffset>
			<feGaussianBlur stdDeviation="0.5" in="shadowOffsetOuter1" result="shadowBlurOuter1"></feGaussianBlur>
			<feColorMatrix values="0 0 0 0 0   0 0 0 0 0   0 0 0 0 0  0 0 0 0.24 0" type="matrix"
						   in="shadowBlurOuter1"></feColorMatrix>
		</filter>
		<path
			d="M11,0.837163622 C11,0.3747229 10.5523899,0 10,0 C9.44761011,0 9,0.3747229 9,0.837163622 L9,7.16283638 C9,7.6252771 9.44761011,8 10,8 C10.5523899,8 11,7.6252771 11,7.16283638 L11,0.837163622 Z"
			id="path-5"></path>
		<filter x="-100.0%" y="-12.5%" width="300.0%" height="150.0%" filterUnits="objectBoundingBox" id="filter-6">
			<feOffset dx="0" dy="1" in="SourceAlpha" result="shadowOffsetOuter1"></feOffset>
			<feGaussianBlur stdDeviation="0.5" in="shadowOffsetOuter1" result="shadowBlurOuter1"></feGaussianBlur>
			<feColorMatrix values="0 0 0 0 0   0 0 0 0 0   0 0 0 0 0  0 0 0 0.24 0" type="matrix"
						   in="shadowBlurOuter1"></feColorMatrix>
		</filter>
		<path
			d="M20,10 C20,9.44761011 19.6252771,9 19.1628364,9 L12.8371636,9 C12.3747229,9 12,9.44761011 12,10 C12,10.5523899 12.3747229,11 12.8371636,11 L19.1628364,11 C19.6249404,11 20,10.5523899 20,10 Z"
			id="path-7"></path>
		<filter x="-25.0%" y="-50.0%" width="150.0%" height="300.0%" filterUnits="objectBoundingBox" id="filter-8">
			<feOffset dx="0" dy="1" in="SourceAlpha" result="shadowOffsetOuter1"></feOffset>
			<feGaussianBlur stdDeviation="0.5" in="shadowOffsetOuter1" result="shadowBlurOuter1"></feGaussianBlur>
			<feColorMatrix values="0 0 0 0 0   0 0 0 0 0   0 0 0 0 0  0 0 0 0.24 0" type="matrix"
						   in="shadowBlurOuter1"></feColorMatrix>
		</filter>
		<path
			d="M9,19.1628364 C9,19.6252771 9.44761011,20 10,20 C10.5523899,20 11,19.6252771 11,19.1628364 L11,12.8371636 C11,12.3747229 10.5523899,12 10,12 C9.44761011,12 9,12.3747229 9,12.8371636 L9,19.1628364 Z"
			id="path-9"></path>
		<filter x="-100.0%" y="-12.5%" width="300.0%" height="150.0%" filterUnits="objectBoundingBox" id="filter-10">
			<feOffset dx="0" dy="1" in="SourceAlpha" result="shadowOffsetOuter1"></feOffset>
			<feGaussianBlur stdDeviation="0.5" in="shadowOffsetOuter1" result="shadowBlurOuter1"></feGaussianBlur>
			<feColorMatrix values="0 0 0 0 0   0 0 0 0 0   0 0 0 0 0  0 0 0 0.24 0" type="matrix"
						   in="shadowBlurOuter1"></feColorMatrix>
		</filter>
	</defs>
	<g id="Page-1" stroke="none" stroke-width="1" fill="none" fill-rule="evenodd">
		<g id="Artboard" fill-rule="nonzero">
			<g id="cross-shaped-target" transform="translate(2.000000, 2.000000)">
				<g id="Oval">
					<use fill="black" fill-opacity="1" filter="url(#filter-2)" xlink:href="#path-1"></use>
					<use fill="#FFEC00" fill-rule="evenodd" xlink:href="#path-1"></use>
				</g>
				<g id="Shape">
					<use fill="black" fill-opacity="1" filter="url(#filter-4)" xlink:href="#path-3"></use>
					<use fill="#FFEC00" fill-rule="evenodd" xlink:href="#path-3"></use>
				</g>
				<g id="Shape">
					<use fill="black" fill-opacity="1" filter="url(#filter-6)" xlink:href="#path-5"></use>
					<use fill="#FFEC00" fill-rule="evenodd" xlink:href="#path-5"></use>
				</g>
				<g id="Shape">
					<use fill="black" fill-opacity="1" filter="url(#filter-8)" xlink:href="#path-7"></use>
					<use fill="#FFEC00" fill-rule="evenodd" xlink:href="#path-7"></use>
				</g>
				<g id="Shape">
					<use fill="black" fill-opacity="1" filter="url(#filter-10)" xlink:href="#path-9"></use>
					<use fill="#FFEC00" fill-rule="evenodd" xlink:href="#path-9"></use>
				</g>
			</g>
		</g>
	</g>
</svg>
