<svg width="24" height="24" viewBox="0 0 24 24" version="1.1" xmlns="http://www.w3.org/2000/svg"
	 xmlns:xlink="http://www.w3.org/1999/xlink">
	<title>Frame 33</title>
	<desc>Created using Figma</desc>
	<g id="Canvas" transform="translate(-28726 -4968)">
		<clipPath id="clip-0" clip-rule="evenodd">
			<path d="M 28726 4968L 28750 4968L 28750 4992L 28726 4992L 28726 4968Z" fill="#FFFFFF"/>
		</clipPath>
		<g id="Frame 33" clip-path="url(#clip-0)">
			<g id="Component">
				<g id="heatmap icon">
					<g id="Rectangle 58">
						<mask id="mask0_outline_ins">
							<use xlink:href="#path0_fill" fill="white" transform="translate(28731 4974)"/>
						</mask>
						<g mask="url(#mask0_outline_ins)">
							<use xlink:href="#path1_stroke_2x" transform="translate(28731 4974)" fill="#FFFFFF"/>
						</g>
					</g>
					<g id="Line 21">
						<use xlink:href="#path2_stroke" transform="matrix(4.16334e-17 -1 1 4.16334e-17 28735.8 4986.03)"
							 fill="#FFFFFF"/>
					</g>
					<g id="Line 21">
						<use xlink:href="#path3_stroke" transform="matrix(6.12323e-17 1 -1 6.12323e-17 28741 4975)"
							 fill="#FFFFFF"/>
					</g>
					<g id="Line 23">
						<use xlink:href="#path4_stroke" transform="translate(28732 4979)" fill="#FFFFFF"/>
					</g>
					<g id="Line 23">
						<use xlink:href="#path4_stroke" transform="translate(28732 4983)" fill="#FFFFFF"/>
					</g>
					<g id="Rectangle 59">
						<use xlink:href="#path5_fill" transform="translate(28741 4983)" fill="#FFFFFF"/>
					</g>
					<g id="Rectangle 59">
						<use xlink:href="#path5_fill" transform="translate(28741 4975)" fill="#FFFFFF"
							 fill-opacity="0.4"/>
					</g>
					<g id="Rectangle 59">
						<use xlink:href="#path6_fill" transform="translate(28736 4979)" fill="#FFFFFF"
							 fill-opacity="0.8"/>
					</g>
				</g>
			</g>
		</g>
	</g>
	<defs>
		<path id="path0_fill" d="M 0 0L 15 0L 15 13L 0 13L 0 0Z"/>
		<path id="path1_stroke_2x"
			  d="M 0 0L 0 -1L -1 -1L -1 0L 0 0ZM 15 0L 16 0L 16 -1L 15 -1L 15 0ZM 15 13L 15 14L 16 14L 16 13L 15 13ZM 0 13L -1 13L -1 14L 0 14L 0 13ZM 0 1L 15 1L 15 -1L 0 -1L 0 1ZM 14 0L 14 13L 16 13L 16 0L 14 0ZM 15 12L 0 12L 0 14L 15 14L 15 12ZM 1 13L 1 0L -1 0L -1 13L 1 13Z"/>
		<path id="path2_stroke" d="M 0 0.5L 11.0341 0.5L 11.0341 -0.5L 0 -0.5L 0 0.5Z"/>
		<path id="path3_stroke" d="M 0 0.5L 11 0.5L 11 -0.5L 0 -0.5L 0 0.5Z"/>
		<path id="path4_stroke" d="M 0 0L 13 0L 13 -1L 0 -1L 0 0Z"/>
		<path id="path5_fill" d="M 0 0L 4 0L 4 3L 0 3L 0 0Z"/>
		<path id="path6_fill" d="M 0 0L 5 0L 5 3L 0 3L 0 0Z"/>
	</defs>
</svg>
