<svg width="30" height="30" viewBox="0 0 30 30" version="1.1" xmlns="http://www.w3.org/2000/svg"
	 xmlns:xlink="http://www.w3.org/1999/xlink">
	<title>Frame 54</title>
	<desc>Created using Figma</desc>
	<g id="Canvas" transform="translate(-30237 -5066)">
		<clipPath id="clip-0" clip-rule="evenodd">
			<path d="M 30237 5066L 30267 5066L 30267 5096L 30237 5096L 30237 5066Z" fill="#FFFFFF"/>
		</clipPath>
		<g id="Frame 54" clip-path="url(#clip-0)">
			<g id="access-denied">
				<g id="Group">
					<g id="Group">
						<g id="Group">
							<g id="Vector">
								<use xlink:href="#path0_fill" transform="translate(30242 5071)" fill="#FFFFFF"/>
								<mask id="mask0_outline_ins">
									<use xlink:href="#path0_fill" fill="white" transform="translate(30242 5071)"/>
								</mask>
								<g mask="url(#mask0_outline_ins)">
									<use xlink:href="#path1_stroke_2x" transform="translate(30242 5071)"/>
								</g>
							</g>
						</g>
					</g>
				</g>
			</g>
		</g>
	</g>
	<defs>
		<path id="path0_fill"
			  d="M 11.952 9.99969L 19.5983 2.35613C 20.1339 1.81765 20.1339 0.942252 19.5983 0.403861C 19.0598 -0.13462 18.1817 -0.13462 17.646 0.403861L 9.99974 8.04743L 2.35612 0.403861C 1.81764 -0.13462 0.942247 -0.13462 0.403859 0.403861C -0.134529 0.942342 -0.13462 1.81774 0.403859 2.35613L 8.04739 9.99969L 0.403859 17.646C -0.13462 18.1816 -0.13462 19.0599 0.403859 19.5983C 0.942338 20.1339 1.81773 20.1339 2.35612 19.5983L 9.99965 11.952L 17.6459 19.5983C 18.1816 20.1339 19.0598 20.1339 19.5982 19.5983C 20.1338 19.0598 20.1338 18.1816 19.5982 17.646L 11.952 9.99969Z"/>
		<path id="path1_stroke_2x"
			  d="M 11.952 9.99969L 11.7753 9.82289L 11.5984 9.99966L 11.7752 10.1765L 11.952 9.99969ZM 19.5983 2.35613L 19.775 2.53294L 19.7755 2.53244L 19.5983 2.35613ZM 19.5983 0.403861L 19.7755 0.227533L 19.775 0.227085L 19.5983 0.403861ZM 17.646 0.403861L 17.8227 0.58067L 17.8232 0.580173L 17.646 0.403861ZM 9.99974 8.04743L 9.82296 8.2242L 9.99971 8.40095L 10.1765 8.22423L 9.99974 8.04743ZM 2.35612 0.403861L 2.17934 0.580637L 2.17934 0.580638L 2.35612 0.403861ZM 0.403859 2.35613L 0.580636 2.17935L 0.580621 2.17934L 0.403859 2.35613ZM 8.04739 9.99969L 8.2242 10.1764L 8.40091 9.99966L 8.22417 9.82292L 8.04739 9.99969ZM 0.403859 17.646L 0.580173 17.8232L 0.580668 17.8227L 0.403859 17.646ZM 0.403859 19.5983L 0.227096 19.775L 0.227546 19.7755L 0.403859 19.5983ZM 2.35612 19.5983L 2.53245 19.7755L 2.53293 19.775L 2.35612 19.5983ZM 9.99965 11.952L 10.1764 11.7752L 9.99962 11.5984L 9.82284 11.7752L 9.99965 11.952ZM 17.6459 19.5983L 17.8227 19.4215L 17.6459 19.5983ZM 19.5982 19.5983L 19.7745 19.7755L 19.7754 19.7746L 19.5982 19.5983ZM 19.5982 17.646L 19.4214 17.8228L 19.4214 17.8228L 19.5982 17.646ZM 12.1287 10.1765L 19.775 2.53294L 19.4215 2.17932L 11.7753 9.82289L 12.1287 10.1765ZM 19.7755 2.53244C 20.4082 1.89644 20.4082 0.86346 19.7755 0.227534L 19.421 0.580188C 19.8596 1.02104 19.8597 1.73885 19.421 2.17982L 19.7755 2.53244ZM 19.775 0.227085C 19.1392 -0.408771 18.1024 -0.40944 17.4688 0.227549L 17.8232 0.580173C 18.2609 0.140199 18.9804 0.139531 19.4215 0.580637L 19.775 0.227085ZM 17.4692 0.227053L 9.82299 7.87062L 10.1765 8.22423L 17.8227 0.580669L 17.4692 0.227053ZM 10.1765 7.87065L 2.53289 0.227084L 2.17934 0.580638L 9.82296 8.2242L 10.1765 7.87065ZM 2.53289 0.227085C 1.89679 -0.40902 0.863098 -0.409041 0.227067 0.2271L 0.580651 0.580622C 1.0214 0.139801 1.73848 0.139779 2.17934 0.580637L 2.53289 0.227085ZM 0.227067 0.2271C -0.408904 0.863181 -0.409059 1.89687 0.227097 2.53292L 0.580621 2.17934C 0.13982 1.73861 0.139847 1.0215 0.580651 0.580622L 0.227067 0.2271ZM 0.227082 2.5329L 7.87061 10.1765L 8.22417 9.82292L 0.580636 2.17935L 0.227082 2.5329ZM 7.87058 9.82295L 0.227051 17.4692L 0.580668 17.8227L 8.2242 10.1764L 7.87058 9.82295ZM 0.227546 17.4687C -0.409431 18.1024 -0.408784 19.1393 0.227097 19.775L 0.580621 19.4215C 0.139544 18.9805 0.140191 18.2609 0.580172 17.8232L 0.227546 17.4687ZM 0.227546 19.7755C 0.863541 20.4082 1.89652 20.4082 2.53245 19.7755L 2.17979 19.421C 1.73894 19.8597 1.02114 19.8597 0.580172 19.421L 0.227546 19.7755ZM 2.53293 19.775L 10.1765 12.1287L 9.82284 11.7752L 2.17931 19.4215L 2.53293 19.775ZM 9.82287 12.1287L 17.4691 19.775L 17.8227 19.4215L 10.1764 11.7752L 9.82287 12.1287ZM 17.4691 19.775C 18.1027 20.4086 19.1388 20.4079 19.7745 19.7755L 19.4218 19.421C 18.9807 19.8599 18.2605 19.8593 17.8227 19.4215L 17.4691 19.775ZM 19.7754 19.7746C 20.4078 19.1388 20.4085 18.1028 19.7749 17.4692L 19.4214 17.8228C 19.8592 18.2605 19.8598 18.9807 19.4209 19.4219L 19.7754 19.7746ZM 19.7749 17.4692L 12.1288 9.82292L 11.7752 10.1765L 19.4214 17.8228L 19.7749 17.4692Z"/>
	</defs>
</svg>
