<svg width="24" height="24" viewBox="0 0 24 24" version="1.1" xmlns="http://www.w3.org/2000/svg" xmlns:xlink="http://www.w3.org/1999/xlink">
<title>Frame 34</title>
<desc>Created using Figma</desc>
<g id="Canvas" transform="translate(-28766 -4968)">
<clipPath id="clip-0" clip-rule="evenodd">
<path d="M 28766 4968L 28790 4968L 28790 4992L 28766 4992L 28766 4968Z" fill="#FFFFFF"/>
</clipPath>
<g id="Frame 34" clip-path="url(#clip-0)">
<g id="Group">
<g id="cancel">
<g id="Vector">
<use xlink:href="#path0_fill" transform="translate(28774 4976)" fill="#FFFFFF"/>
</g>
</g>
</g>
</g>
</g>
<defs>
<path id="path0_fill" d="M 5.15069 4.12785C 5.07763 4.05479 5.07763 3.94521 5.15069 3.87215L 7.89041 1.13242C 7.96347 1.05936 8 0.949772 8 0.876712C 8 0.803653 7.96347 0.694064 7.89041 0.621005L 7.379 0.109589C 7.30594 0.0365297 7.19635 0 7.12329 0C 7.0137 0 6.94064 0.0365297 6.86758 0.109589L 4.12785 2.84932C 4.05479 2.92237 3.94521 2.92237 3.87215 2.84932L 1.13242 0.109589C 1.05936 0.0365297 0.949772 0 0.876712 0C 0.803653 0 0.694064 0.0365297 0.621005 0.109589L 0.109589 0.621005C 0.0365297 0.694064 0 0.803653 0 0.876712C 0 0.949772 0.0365297 1.05936 0.109589 1.13242L 2.84932 3.87215C 2.92237 3.94521 2.92237 4.05479 2.84932 4.12785L 0.109589 6.86758C 0.0365297 6.94064 0 7.05023 0 7.12329C 0 7.19635 0.0365297 7.30594 0.109589 7.379L 0.621005 7.89041C 0.694064 7.96347 0.803653 8 0.876712 8C 0.949772 8 1.05936 7.96347 1.13242 7.89041L 3.87215 5.15069C 3.94521 5.07763 4.05479 5.07763 4.12785 5.15069L 6.86758 7.89041C 6.94064 7.96347 7.05023 8 7.12329 8C 7.19635 8 7.30594 7.96347 7.379 7.89041L 7.89041 7.379C 7.96347 7.30594 8 7.19635 8 7.12329C 8 7.05023 7.96347 6.94064 7.89041 6.86758L 5.15069 4.12785Z"/>
</defs>
</svg>
