<svg width="24" height="24" viewBox="0 0 24 24" version="1.1" xmlns="http://www.w3.org/2000/svg" xmlns:xlink="http://www.w3.org/1999/xlink">
<title>Frame 28</title>
<desc>Created using Figma</desc>
<g id="Canvas" transform="translate(-27921 -4897)">
<clipPath id="clip-0" clip-rule="evenodd">
<path d="M 27921 4897L 27945 4897L 27945 4921L 27921 4921L 27921 4897Z" fill="#FFFFFF"/>
</clipPath>
<g id="Frame 28" clip-path="url(#clip-0)">
<g id="pin">
<g id="Vector">
<use xlink:href="#path0_fill" transform="translate(27928 4899)" fill="#FFFFFF"/>
</g>
</g>
</g>
</g>
<defs>
<path id="path0_fill" d="M 7.3117 1.78217e-08L 1.62217 0C 1.40727 3.4383e-09 1.20477 0.0841464 1.05201 0.236916C 0.899242 0.389686 0.815127 0.592162 0.815127 0.807079L 0.815127 1.97731C 0.815127 2.42232 1.17718 2.78433 1.62215 2.78436L 1.72583 2.78436L 1.42704 6.69857L 1.01617 6.69857C 0.792986 6.69857 0.570859 6.7927 0.406739 6.95683C 0.262249 7.10132 0.1728 7.28882 0.15491 7.48476L 0.00340159 9.14429C -0.0164857 9.3618 0.0513076 9.56782 0.194228 9.72438C 0.337148 9.88095 0.536135 9.96717 0.754524 9.96717L 3.75314 9.96718C 3.75605 10.9995 3.7617 12.4471 3.77029 12.6397C 3.78284 12.929 3.80367 13.2136 3.82955 13.489C 3.88148 14.04 3.95886 14.5542 4.04728 14.9949C 4.09134 15.2153 4.13784 15.4172 4.18364 15.5963C 4.33583 16.1546 4.60484 16.1142 4.7301 15.5963C 4.77589 15.4172 4.82237 15.2152 4.86645 14.9949C 4.95488 14.5542 5.03223 14.0399 5.08416 13.489C 5.11004 13.2136 5.13087 12.9289 5.14342 12.6397C 5.15201 12.4471 5.15766 10.9994 5.16057 9.96715L 8.17938 9.96715C 8.38482 9.96715 8.57559 9.88954 8.71654 9.74858C 8.8733 9.59181 8.95128 9.37156 8.93051 9.14426L 8.77891 7.48476C 8.73934 7.05125 8.353 6.69857 7.91768 6.69854L 7.50681 6.69854L 7.20802 2.78433L 7.3117 2.78433C 7.52661 2.78433 7.72905 2.70018 7.88184 2.54738C 8.03461 2.39461 8.11872 2.19214 8.11875 1.97725L 8.11875 0.807022C 8.11872 0.362037 7.7567 1.07022e-08 7.3117 1.78217e-08Z"/>
</defs>
</svg>
