<?xml version="1.0" encoding="UTF-8"?>
<svg width="24px" height="24px" viewBox="0 0 24 24" version="1.1" xmlns="http://www.w3.org/2000/svg"
	 xmlns:xlink="http://www.w3.org/1999/xlink">
	<!-- Generator: Sketch 44.1 (41455) - http://www.bohemiancoding.com/sketch -->
	<title>shadow_mouse</title>
	<desc>Created with Sketch.</desc>
	<defs></defs>
	<g id="states-example" stroke="none" stroke-width="1" fill="none" fill-rule="evenodd">
		<g id="shadow_mouse">
			<path
				d="M23.2318041,11.2319677 L10.1099755,3.66601613 C9.63232653,3.39224194 9.01219592,3.3946129 8.53787755,3.67762903 C8.30125714,3.81853226 8.11430204,4.01803226 7.98573061,4.24854839 L9.35049796,5.03585484 L9.34736327,4.95930645 L22.4629224,12.5716613 L15.1441469,14.5129032 L10.012898,19.9936129 C10.0050612,20.0022258 9.99565714,20.0029516 9.99257143,20.0029516 L9.81702857,15.9213548 L8.97462857,16.144129 L8.31379592,16.8502903 L8.45333878,20.0423387 C8.48066939,20.6571935 8.87603265,21.1925 9.46236735,21.4059839 C9.63232653,21.467871 9.81075918,21.4996613 9.99257143,21.4996613 C10.4199184,21.4996613 10.8318367,21.3216935 11.123902,21.0107097 L15.9669061,15.8386613 L22.852751,14.0164516 C23.4556408,13.8578871 23.9004245,13.3597903 23.9833959,12.7479355 C24.0654367,12.1378226 23.7702857,11.5429032 23.2318041,11.2319677 Z"
				id="Shape" fill="#FFFFFF" fill-rule="nonzero" opacity="0.75"></path>
			<path
				d="M17.092849,11.8747903 C17.1420245,11.5134839 16.9667265,11.1600645 16.6489469,10.9766774 L1.37250612,2.16785484 C1.23007347,2.0858871 1.0701551,2.04572581 0.912097959,2.04572581 C0.749289796,2.04572581 0.5856,2.08825806 0.440914286,2.17491935 C0.155804082,2.34509677 -0.013322449,2.65670968 0.000832653061,2.98540323 L0.769616327,20.443129 C0.785289796,20.8073871 1.02097959,21.1253387 1.36623673,21.2513871 C1.46865306,21.2885 1.57444898,21.3062581 1.6802449,21.3062581 C1.93004082,21.3062581 2.17420408,21.2049355 2.34955102,21.0162258 L8.16044082,14.8107742 L16.4249143,12.6249839 C16.7804571,12.530629 17.0434286,12.2351774 17.092849,11.8747903 Z"
				id="Shape" fill="#FFFFFF" fill-rule="nonzero" opacity="0.75"></path>
			<rect id="Rectangle-8" x="0" y="0" width="24" height="24"></rect>
		</g>
	</g>
</svg>
