<svg width="25" height="25" xmlns="http://www.w3.org/2000/svg">
 <!-- Created with Method Draw - http://github.com/duopixel/Method-Draw/ -->

 <g>
	 <title>background</title>
	 <!-- Set very small, but not zero, opacity, so that the rect remains clickable -->
	 <rect fill="lightgray" fill-opacity="0.01" id="canvas_background" height="27" width="27" y="-1" x="-1"/>
 </g>
 <g>
  <title>Layer 1</title>
  <path stroke="#fff" stroke-width="1.5" d="m28.338983,30.999996c1.457189,0 2.660954,-1.171233 2.660954,-2.58904l0,-30.821907c0,-1.417807 -1.203764,-2.58904 -2.660954,-2.58904l-31.678029,0c-1.457189,0 -2.660954,1.171233 -2.660954,2.58904l0,30.821907c0,1.417807 1.203764,2.58904 2.660954,2.58904l31.678029,0zm0,-2.58904l-31.678029,0l0,-30.821907l31.678029,0l0,30.821907zm-14.508537,-19.23287l0,-2.958902l2.407531,0c0.380137,0 0.570205,-0.431508 0.31678,-0.739726l-3.738007,-3.575341c-0.126713,-0.184932 -0.443493,-0.184932 -0.633561,0l-3.67465,3.575341c-0.31678,0.308219 -0.063355,0.739726 0.31678,0.739726l2.344174,0l0,2.958902l2.660954,0l-0.000001,0zm6.398962,7.705477l3.67465,-3.575341c0.190068,-0.184932 0.190068,-0.493151 0,-0.616438l-3.67465,-3.636985c-0.253424,-0.246576 -0.760272,-0.061644 -0.760272,0.308219l0,2.342464l-2.977734,0l0,2.58904l2.977734,0l0,2.28082c0,0.431508 0.506848,0.616438 0.760272,0.308219l0,0.000001zm-14.635249,-0.308219l0,-2.28082l2.977734,0l0,-2.58904l-2.977734,0l0,-2.342464c0,-0.369863 -0.506848,-0.554795 -0.760272,-0.308219l-3.738007,3.636985c-0.190068,0.123287 -0.190068,0.431508 0,0.616438l3.738007,3.575341c0.253424,0.308219 0.760272,0.123287 0.760272,-0.308219l0,-0.000001zm7.222591,7.520545l3.738007,-3.575341c0.253424,-0.308219 0.063355,-0.801369 -0.31678,-0.801369l-2.407531,0l0,-2.835616l-2.660954,0l0,2.835616l-2.344174,0c-0.380137,0 -0.633561,0.493151 -0.31678,0.801369l3.67465,3.575341c0.190068,0.184932 0.506848,0.184932 0.633561,0l0.000001,0z" id="svg_1"/>
 </g>
</svg>
