<?xml version="1.0" standalone="no"?>
<!DOCTYPE svg PUBLIC "-//W3C//DTD SVG 1.1//EN" "http://www.w3.org/Graphics/SVG/1.1/DTD/svg11.dtd" >
<svg xmlns="http://www.w3.org/2000/svg">
<metadata>Generated by IcoMoon</metadata>
<defs>
<font id="AnSyn" horiz-adv-x="1024">
<font-face units-per-em="1024" ascent="870.850439882698" descent="-153.14956011730206" />
<missing-glyph horiz-adv-x="1024" />
<glyph unicode="&#x20;" horiz-adv-x="0" d="" />
<glyph unicode="&#xe800;" glyph-name="layer-add" d="M533.001 399.050h128.125c12.3 0 21.525-9.225 21.525-21.525 0-11.275-9.225-20.5-21.525-20.5h-128.125v-128.125c0-12.3-9.225-21.525-20.5-21.525-12.3 0-21.525 9.225-21.525 21.525v128.125h-128.125c-11.275 0-21.525 9.225-21.525 20.5 0 12.3 10.25 21.525 21.525 21.525h128.125v128.125c0 12.3 9.225 21.525 21.525 21.525 11.275 0 20.5-9.225 20.5-21.525v-128.125z" />
<glyph unicode="&#xe801;" glyph-name="annotation-arrow" d="M668.301 590.725h-252.15c-11.275 0-20.5 9.225-20.5 20.5-1.025 12.3 9.225 21.525 20.5 21.525l303.4 1.025c0 0 0 0 0 0 8.2 0 16.4-5.125 19.475-13.325 1.025-4.1 2.050-7.175 1.025-11.275v-299.3c0-12.3-10.25-21.525-21.525-21.525-12.3 0-21.525 9.225-21.525 21.525l1.025 250.1-404.875-404.875c-9.225-8.2-22.55-8.2-30.75 0s-8.2 22.55 0 30.75l405.9 404.875z" />
<glyph unicode="&#xe802;" glyph-name="annotation-circle" d="M512.5 78.225c-165.025 0-299.3 134.275-299.3 299.3s134.275 299.3 299.3 299.3c165.025 0 299.3-134.275 299.3-299.3s-134.275-299.3-299.3-299.3zM512.5 121.275c141.45 0 256.25 114.8 256.25 256.25s-114.8 256.25-256.25 256.25c-141.45 0-256.25-114.8-256.25-256.25s114.8-256.25 256.25-256.25z" />
<glyph unicode="&#xe803;" glyph-name="annotation-color" d="M780.026 718.85c-20.5 0-38.95-7.175-52.275-22.55l-310.575-321.85c0 0 0 0 0 0s0 0 0 0l-68.675-70.725c-57.4-3.075-154.775-39.975-168.1-167.075-2.050-5.125-11.275-28.7-31.775-31.775-14.35-3.075-20.5-14.35-20.5-23.575 1.025-28.7 57.4-39.975 80.975-43.050 8.2-1.025 20.5-2.050 34.85-2.050 61.5 0 166.050 21.525 208.075 157.85l381.3 395.65c13.325 14.35 21.525 33.825 20.5 54.325 0 20.5-7.175 38.95-21.525 53.3s-32.8 21.525-52.275 21.525zM432.55 331.4l47.15-49.2-46.125-47.15-47.15 48.175 46.125 48.175zM306.475 86.425c-42.025-13.325-85.075-10.25-112.75-3.075 18.45 18.45 25.625 42.025 25.625 44.075 1.025 1.025 1.025 2.050 1.025 3.075 11.275 113.775 101.475 129.15 129.15 131.2l61.5-61.5c-19.475-58.425-54.325-97.375-104.55-113.775zM804.626 619.425l-296.225-307.5-48.175 48.175 296.225 307.5c12.3 13.325 34.85 13.325 47.15 0 6.15-6.15 10.25-14.35 10.25-23.575s-3.075-18.45-9.225-24.6z" />
<glyph unicode="&#xe804;" glyph-name="annotation-linestring" d="M460.225 725c-4.1 10.25 1.025 23.575 11.275 27.675 11.275 5.125 23.575 0 28.7-11.275l170.15-393.6c4.1-7.175 2.050-16.4-3.075-22.55l-312.625-353.625c-8.2-8.2-21.525-9.225-30.75-2.050-8.2 8.2-9.225 21.525-1.025 30.75l303.4 343.375-166.050 381.3z" />
<glyph unicode="&#xe805;" glyph-name="annotation-point" d="M512.5 462.6c47.15 0 85.075-37.925 85.075-85.075s-37.925-85.075-85.075-85.075c-47.15 0-85.075 37.925-85.075 85.075s37.925 85.075 85.075 85.075zM256.25 527.175h-43.050v149.65h149.65v-43.050h-106.6v-106.6zM362.85 121.275v-43.050h-149.65v149.65h43.050v-106.6h106.6zM662.151 633.775v43.050h149.65v-149.65h-43.050v106.6h-106.6zM768.751 227.875h43.050v-149.65h-149.65v43.050h106.6v106.6zM449.975 633.775v43.050h128.125v-43.050h-128.125zM768.751 442.1h43.050v-128.125h-43.050v128.125zM213.2 442.1h43.050v-128.125h-43.050v128.125zM449.975 78.225v43.050h128.125v-43.050h-128.125z" />
<glyph unicode="&#xe806;" glyph-name="annotation-polygon" d="M222.425 538.45c-29.725 6.15-51.25 31.775-51.25 63.55 0 34.85 28.7 63.55 63.55 63.55 20.5 0 38.95-9.225 51.25-24.6l322.875 77.9c15.375 3.075 28.7-9.225 26.65-24.6l-56.375-308.525 238.825-78.925c18.45-6.15 20.5-29.725 4.1-38.95l-508.4-220.375c-12.3-7.175-28.7 1.025-30.75 15.375l-60.475 475.6zM299.3 599.95c-1.025-23.575-14.35-45.1-34.85-55.35l56.375-444.85 437.675 181.425-210.125 70.725c-10.25 3.075-16.4 13.325-14.35 23.575l53.3 294.175-288.025-69.7z" />
<glyph unicode="&#xe807;" glyph-name="annotation-rectangle" d="M256.25 121.275h512.5v512.5h-512.5v-512.5zM213.2 676.825h598.601v-598.601h-598.601v598.601z" />
<glyph unicode="&#xe808;" glyph-name="annotation-weight" d="M171.175 197.125v42.025h682.651v-42.025h-682.651zM171.175 101.8v20.5h682.651v-20.5h-682.651zM171.175 303.725v63.55h682.651v-63.55h-682.651zM171.175 442.1v85.075h682.651v-85.075h-682.651zM171.175 590.725v128.125h682.651v-128.125h-682.651z" />
<glyph unicode="&#xe809;" glyph-name="annotations" d="M514.55 279.125c-71.75 39.975-119.925 116.85-119.925 205 0 22.55 3.075 44.075 9.225 64.575h-190.65v-342.35h261.375l39.975 72.775zM536.076 317.050l74.825 135.3c8.2 14.35 29.725 14.35 37.925 0l74.825-135.3c58.425 32.8 98.4 95.325 98.4 167.075 0 106.6-86.1 192.7-192.7 192.7-105.575 0-191.675-86.1-191.675-192.7 0-71.75 39.975-134.275 98.4-167.075zM744.151 279.125l117.875-211.15c8.2-14.35-2.050-31.775-18.45-31.775h-427.425c-16.4 0-26.65 17.425-18.45 31.775l53.3 96.35h-258.3c-12.3 0-21.525 9.225-21.525 21.525v384.375c0 11.275 9.225 20.5 21.525 20.5h227.55c38.95 76.875 117.875 128.125 209.1 128.125 130.175 0 234.725-104.55 234.725-234.725 0-88.15-48.175-165.025-119.925-205zM452.025 78.225h354.65l-177.325 319.8-177.325-319.8z" />
<glyph unicode="&#xe80a;" glyph-name="automatic-image-processing" d="M704.176 576.375c8.2 8.2 21.525 8.2 29.725 0s8.2-21.525 0-29.725l-61.5-62.525c-8.2-8.2-21.525-8.2-30.75 0-8.2 9.225-8.2 22.55 0 30.75l62.525 61.5zM769.776 459.525c12.3 0 21.525-10.25 21.525-21.525 0-12.3-9.225-21.525-21.525-21.525h-87.125c-11.275 0-21.525 9.225-21.525 21.525 0 11.275 10.25 21.525 21.525 21.525h87.125zM733.901 329.35c8.2-8.2 8.2-21.525 0-29.725s-21.525-8.2-29.725 0l-62.525 61.5c-8.2 8.2-8.2 21.525 0 29.725 9.225 9.225 22.55 9.225 30.75 0l61.5-61.5zM617.051 263.75c0-12.3-9.225-21.525-21.525-21.525-11.275 0-21.525 9.225-21.525 21.525v87.125c0 11.275 10.25 21.525 21.525 21.525 12.3 0 21.525-10.25 21.525-21.525v-87.125zM421.275 416.475c-12.3 0-21.525 9.225-21.525 21.525 0 11.275 9.225 21.525 21.525 21.525h87.125c11.275 0 21.525-10.25 21.525-21.525 0-12.3-10.25-21.525-21.525-21.525h-87.125zM457.15 546.65c-8.2 8.2-8.2 21.525 0 29.725s21.525 8.2 29.725 0l62.525-61.5c8.2-8.2 8.2-21.525 0-30.75-9.225-8.2-22.55-8.2-30.75 0l-61.5 62.525zM574.001 612.25c0 12.3 10.25 21.525 21.525 21.525 12.3 0 21.525-9.225 21.525-21.525v-87.125c0-11.275-9.225-21.525-21.525-21.525-11.275 0-21.525 10.25-21.525 21.525v87.125zM293.15 104.875c-9.225-8.2-22.55-8.2-30.75 0s-8.2 21.525 0 30.75l256.25 255.225c8.2 9.225 21.525 9.225 30.75 0 8.2-8.2 8.2-21.525 0-29.725l-256.25-256.25z" />
<glyph unicode="&#xe80b;" glyph-name="back-to-base-map" d="M683.676 359.075c0 12.3-10.25 22.55-22.55 22.55h-241.9l90.2 85.075c6.15 5.125 8.2 13.325 7.175 21.525-2.050 8.2-8.2 14.35-15.375 16.4-8.2 2.050-16.4 0-21.525-5.125l-131.2-124.025c-4.1-4.1-7.175-10.25-7.175-16.4s3.075-12.3 7.175-16.4l131.2-124.025c8.2-8.2 22.55-8.2 30.75 1.025s8.2 23.575-1.025 31.775l-90.2 85.075h241.9c12.3 0 22.55 10.25 22.55 22.55z" />
<glyph unicode="&#xe80c;" glyph-name="close" d="M536.076 371.375l113.775-112.75c8.2-8.2 8.2-22.55 0-30.75s-22.55-8.2-30.75 0l-112.75 112.75-112.75-112.75c-8.2-8.2-22.55-8.2-30.75 0s-8.2 22.55 0 30.75l112.75 112.75-112.75 112.75c-8.2 8.2-8.2 22.55 0 30.75s22.55 8.2 30.75 0l112.75-113.775 112.75 113.775c8.2 8.2 22.55 8.2 30.75 0s8.2-22.55 0-30.75l-113.775-112.75z" />
<glyph unicode="&#xe80d;" glyph-name="delete" d="M384.375 528.2h85.075c12.3 0 21.525 9.225 21.525 20.5v21.525h43.050v20.5h-43.050v-20.5h43.050v-21.525c0-11.275 9.225-20.5 21.525-20.5h-171.175v-342.35h256.25v342.35h-256.25zM662.151 570.225v0h43.050c27.675 0 27.675-42.025 0-42.025h-21.525v-363.875c0-11.275-10.25-20.5-21.525-20.5h-299.3c-11.275 0-21.525 9.225-21.525 20.5v363.875h-20.5v42.025h42.025c-11.275 0-21.525-9.225-21.525-21.525v-20.5h-20.5c-28.7 0-28.7 42.025 0 42.025h128.125v42.025c0 12.3 9.225 21.525 20.5 21.525h86.1c11.275 0 21.525-9.225 21.525-21.525v-42.025h128.125v-42.025h-21.525v20.5c0 12.3-10.25 21.525-21.525 21.525zM448.95 442.1c0 11.275 9.225 20.5 20.5 20.5 12.3 0 21.525-9.225 21.525-20.5v-171.175c0-12.3-9.225-21.525-21.525-21.525-11.275 0-20.5 9.225-20.5 21.525v171.175zM577.076 270.925c0-12.3-10.25-21.525-21.525-21.525-12.3 0-21.525 9.225-21.525 21.525v171.175c0 11.275 9.225 20.5 21.525 20.5 11.275 0 21.525-9.225 21.525-20.5v-171.175z" />
<glyph unicode="&#xe80e;" glyph-name="edit" d="M631.401 450.3l-61.5 61.5-189.625-189.625 61.5-61.5 189.625 189.625zM660.101 480.025c13.325 16.4 12.3 42.025-3.075 57.4-16.4 15.375-41 16.4-58.425 3.075l61.5-60.475zM411.025 233l-58.425 59.45-7.175-65.6 65.6 6.15zM565.801 566.125c32.8 32.8 87.125 32.8 119.925 0s32.8-86.1 0-118.9l-253.175-253.175-133.25-13.325 14.35 133.25 252.15 252.15z" />
<glyph unicode="&#xe80f;" glyph-name="layer-export" d="M492 583.55l-48.175-49.2c-8.2-8.2-21.525-9.225-30.75 0-8.2 8.2-8.2 21.525 0 29.725l85.075 87.125c1.025 0 1.025 0 1.025 0 8.2 9.225 21.525 8.2 29.725 0 0 0 0 0 0 0l86.1-87.125c8.2-8.2 7.175-21.525-1.025-29.725-8.2-9.225-21.525-8.2-29.725 0l-49.2 50.225v-290.075c0-11.275-9.225-21.525-21.525-21.525-11.275 0-20.5 10.25-21.525 21.525v289.050zM600.651 442.1c-12.3 0-21.525 10.25-21.525 21.525 0 12.3 9.225 21.525 21.525 21.525h128.125c11.275 0 20.5-9.225 20.5-21.525v-341.325c0-12.3-9.225-21.525-20.5-21.525h-428.45c-12.3 0-21.525 9.225-21.525 21.525v341.325c0 12.3 9.225 21.525 21.525 21.525h128.125c12.3 0 21.525-9.225 21.525-21.525 0-11.275-9.225-21.525-21.525-21.525h-106.6v-298.275h385.4v298.275h-106.6z" />
<glyph unicode="&#xe810;" glyph-name="favorite-full" d="M358.75 107.95c-16.4-8.2-33.825 5.125-30.75 22.55l28.7 171.175-124.025 119.925c-13.325 13.325-6.15 34.85 11.275 36.9l172.2 24.6 76.875 155.8c8.2 15.375 30.75 15.375 38.95 0l76.875-155.8 172.2-24.6c17.425-2.050 24.6-23.575 12.3-36.9l-125.050-119.925 29.725-171.175c3.075-17.425-15.375-30.75-30.75-22.55l-154.775 80.975-153.75-80.975z" />
<glyph unicode="&#xe811;" glyph-name="favorite-empty" d="M502.25 231.975c7.175 3.075 14.35 3.075 20.5 0l125.050-65.6-23.575 138.375c-1.025 7.175 1.025 14.35 6.15 19.475l101.475 98.4-140.425 20.5c-7.175 1.025-12.3 5.125-16.4 11.275l-62.525 127.1-62.525-127.1c-3.075-6.15-9.225-10.25-16.4-11.275l-140.425-20.5 101.475-98.4c5.125-5.125 7.175-12.3 6.15-19.475l-23.575-138.375 125.050 65.6zM358.75 107.95c-16.4-8.2-33.825 5.125-30.75 22.55l28.7 171.175-124.025 119.925c-13.325 13.325-6.15 34.85 11.275 36.9l172.2 24.6 76.875 155.8c8.2 15.375 30.75 15.375 38.95 0l76.875-155.8 172.2-24.6c17.425-2.050 24.6-23.575 12.3-36.9l-125.050-119.925 29.725-171.175c3.075-17.425-15.375-30.75-30.75-22.55l-154.775 80.975-153.75-80.975z" />
<glyph unicode="&#xe812;" glyph-name="frame-mode" d="M405.9 313.975v170.15h176.3v128.125h-304.425v-298.275h128.125zM448.95 313.975h133.25v128.125h-133.25v-128.125zM625.251 484.125h165.025v-384.375h-384.375v171.175h-171.175v384.375h390.525v-171.175zM625.251 442.1v-171.175h-176.3v-128.125h298.275v299.3h-121.975z" />
<glyph unicode="&#xe813;" glyph-name="layer-import" d="M533.001 351.9l48.175 49.2c8.2 8.2 22.55 9.225 30.75 0 8.2-8.2 8.2-21.525 0-29.725l-85.075-87.125c0 0 0 0-1.025 0-8.2-9.225-21.525-8.2-29.725 0 0 0 0 0 0 0l-85.075 87.125c-8.2 8.2-8.2 21.525 0 29.725 8.2 9.225 21.525 8.2 29.725 0l49.2-50.225v292.125c0 11.275 9.225 20.5 21.525 20.5 11.275 0 21.525-9.225 21.525-20.5v-291.1zM597.576 448.25c-11.275 0-21.525 10.25-21.525 21.525 0 12.3 10.25 21.525 21.525 21.525h128.125c12.3 0 21.525-9.225 21.525-21.525v-341.325c0-12.3-9.225-21.525-21.525-21.525h-427.425c-12.3 0-21.525 9.225-21.525 21.525v341.325c0 12.3 9.225 21.525 21.525 21.525h128.125c11.275 0 20.5-9.225 20.5-21.525 0-11.275-9.225-21.525-20.5-21.525h-107.625v-298.275h385.4v298.275h-106.6z" />
<glyph unicode="&#xe814;" glyph-name="status-bar-orientation" d="M259.325 826.475h506.35c27.675 0 54.325-27.675 62.525-64.575l145.55-713.401c13.325-63.55-18.45-119.925-67.65-119.925h-786.176c-50.225 0-82 56.375-68.675 119.925l145.55 713.401c8.2 36.9 34.85 64.575 62.525 64.575zM540.176 3.4h165.025l-19.475 187.575h-145.55v-187.575zM319.8 3.4h165.025v187.575h-145.55l-19.475-187.575zM263.425 3.4l19.475 187.575h-144.525l-32.8-161.95c-4.1-16.4 1.025-25.625 14.35-25.625h143.5zM761.576 3.4h144.525c12.3 0 17.425 9.225 13.325 25.625l-32.8 161.95h-144.525l19.475-187.575zM663.176 415.45h-123v-149.65h138.375l-15.375 149.65zM361.825 415.45v0l-15.375-149.65h138.375v149.65h-123zM305.45 415.45h-120.95l-30.75-149.65h136.325l15.375 149.65zM719.551 415.45l15.375-149.65h136.325l-30.75 149.65h-120.95zM654.976 489.25l-11.275 112.75h-103.525v-112.75h114.8zM370.025 489.25h114.8v112.75h-103.525l-11.275-112.75zM313.65 489.25l11.275 112.75h-102.5l-22.55-112.75h113.775zM712.376 489.25h112.75l-22.55 112.75h-102.5l12.3-112.75zM628.326 751.65h-88.15v-74.825h96.35l-8.2 74.825zM396.675 751.65l-7.175-74.825h95.325v74.825h-88.15zM340.3 751.65h-80.975c-2.050 0-7.175-5.125-8.2-9.225l-13.325-65.6h94.3l8.2 74.825zM684.701 751.65l8.2-74.825h94.3l-13.325 65.6c-1.025 4.1-6.15 9.225-8.2 9.225h-80.975z" />
<glyph unicode="&#xe815;" glyph-name="layers-hide" d="M502.25 231.975l27.675 46.125 233.7 112.75c11.275 5.125 23.575 0 28.7-10.25 5.125-11.275 1.025-23.575-10.25-28.7l-256.25-123c-5.125-3.075-12.3-3.075-18.45 0l-5.125 3.075zM385.4 287.325l-134.275 64.575c-10.25 5.125-14.35 17.425-9.225 28.7 4.1 10.25 17.425 15.375 27.675 10.25l138.375-66.625-22.55-36.9zM588.351 624.55l-22.55-36.9-49.2 25.625-210.125-108.65 159.9-83.025-22.55-36.9-192.7 100.45c-15.375 8.2-15.375 29.725 0 37.925l256.25 133.25c6.15 3.075 13.325 3.075 19.475 0l61.5-31.775zM702.126 565.1l80.975-42.025c15.375-8.2 15.375-29.725 0-37.925l-187.575-97.375 42.025 69.7 89.175 47.15-47.15 24.6 22.55 35.875zM444.85 136.65l21.525 35.875 50.225-23.575 247.025 118.9c11.275 5.125 23.575 0 28.7-10.25 5.125-11.275 1.025-23.575-10.25-28.7l-256.25-123c-5.125-3.075-12.3-3.075-18.45 0l-62.525 30.75zM328 192l-76.875 36.9c-10.25 5.125-14.35 17.425-9.225 28.7 4.1 10.25 17.425 15.375 27.675 10.25l80.975-38.95-22.55-36.9zM689.826 708.6c5.125 10.25 18.45 13.325 28.7 7.175s13.325-18.45 7.175-28.7l-384.375-640.626c-6.15-10.25-18.45-13.325-28.7-7.175s-13.325 18.45-7.175 28.7l384.375 640.626z" />
<glyph unicode="&#xe816;" glyph-name="layers-show" d="M763.626 390.85c11.275 5.125 23.575 0 28.7-10.25 5.125-11.275 1.025-23.575-10.25-28.7l-256.25-123c-5.125-3.075-12.3-3.075-18.45 0l-256.25 123c-10.25 5.125-14.35 17.425-9.225 28.7 4.1 10.25 17.425 15.375 27.675 10.25l247.025-118.9 247.025 118.9zM251.125 485.15c-15.375 8.2-15.375 29.725 0 37.925l256.25 133.25c6.15 3.075 13.325 3.075 19.475 0l256.25-133.25c15.375-8.2 15.375-29.725 0-37.925l-256.25-133.25c-6.15-3.075-13.325-3.075-19.475 0l-256.25 133.25zM516.6 394.95l210.125 109.675-210.125 108.65-210.125-108.65 210.125-109.675zM763.626 267.85c11.275 5.125 23.575 0 28.7-10.25 5.125-11.275 1.025-23.575-10.25-28.7l-256.25-123c-5.125-3.075-12.3-3.075-18.45 0l-256.25 123c-10.25 5.125-14.35 17.425-9.225 28.7 4.1 10.25 17.425 15.375 27.675 10.25l247.025-118.9 247.025 118.9z" />
<glyph unicode="&#xe817;" glyph-name="change-map" d="M962.476 835.7c-6.15 4.1-14.35 4.1-21.525 0l-296.225-169.125-252.15 168.1c-1.025 2.050-4.1 2.050-6.15 3.075 0 0-1.025 0-1.025 0-2.050 1.025-4.1 1.025-6.15 1.025-1.025 0-1.025 0-2.050-1.025-2.050 0-5.125-1.025-7.175-2.050 0 0 0 0 0 0s0 0 0 0l-307.5-175.275c-7.175-4.1-11.275-11.275-11.275-19.475v-703.151c0-7.175 4.1-14.35 11.275-18.45 6.15-4.1 15.375-4.1 21.525 0l296.225 169.125 252.15-169.125c0 0 0 0 0 0 1.025 0 1.025 0 1.025 0 1.025-1.025 2.050-1.025 3.075-1.025 1.025-1.025 1.025-1.025 2.050-1.025 2.050-1.025 3.075-1.025 5.125-1.025 0 0 1.025 0 1.025 0s0 0 0 0 0 0 0 0 0 0 0 0c2.050 0 3.075 0 5.125 1.025 0 0 1.025 0 1.025 0 1.025 1.025 3.075 1.025 4.1 2.050 0 0 0 0 0 0l307.5 176.3c7.175 3.075 11.275 10.25 11.275 18.45v703.151c0 7.175-4.1 14.35-11.275 18.45zM358.75 126.4l-263.425-150.675v652.926l263.425 150.675v-652.926zM622.176-20.175l-219.35 146.575v648.826l219.35-145.55v-649.851zM929.676 126.4l-263.425-150.675v652.926l263.425 150.675v-652.926z" />
<glyph unicode="&#xe818;" glyph-name="link" d="M467.4 270.925c12.3 0 21.525-9.225 21.525-21.525 0-11.275-9.225-21.525-21.525-21.525h-112.75c-77.9 0-141.45 67.65-141.45 149.65s63.55 149.65 141.45 149.65h112.75c12.3 0 21.525-9.225 21.525-21.525 0-11.275-9.225-21.525-21.525-21.525h-112.75c-54.325 0-98.4-47.15-98.4-106.6s44.075-106.6 98.4-106.6h112.75zM555.551 484.125c-11.275 0-21.525 10.25-21.525 21.525 0 12.3 10.25 21.525 21.525 21.525h124.025c77.9 0 140.425-67.65 140.425-149.65s-62.525-149.65-140.425-149.65h-124.025c-11.275 0-21.525 10.25-21.525 21.525 0 12.3 10.25 21.525 21.525 21.525h124.025c53.3 0 97.375 47.15 97.375 106.6s-44.075 106.6-97.375 106.6h-124.025zM405.9 359.075c-12.3 0-21.525 10.25-21.525 21.525 0 12.3 9.225 21.525 21.525 21.525h213.2c12.3 0 21.525-9.225 21.525-21.525 0-11.275-9.225-21.525-21.525-21.525h-213.2z" />
<glyph unicode="&#xe819;" glyph-name="main-cases" d="M515.575 61.825c-34.85 0-62.525 28.7-62.525 64.575 0 34.85 27.675 63.55 62.525 63.55s62.525-28.7 62.525-63.55c0-35.875-27.675-64.575-62.525-64.575zM765.676 61.825c-34.85 0-62.525 28.7-62.525 64.575 0 34.85 27.675 63.55 62.525 63.55 33.825 0 61.5-28.7 61.5-63.55 0-35.875-27.675-64.575-61.5-64.575zM265.475 61.825c-33.825 0-62.525 28.7-62.525 64.575 0 34.85 28.7 63.55 62.525 63.55 34.85 0 62.525-28.7 62.525-63.55 0-35.875-27.675-64.575-62.525-64.575zM515.575 296.55c-34.85 0-62.525 28.7-62.525 63.55 0 35.875 27.675 64.575 62.525 64.575s62.525-28.7 62.525-64.575c0-34.85-27.675-63.55-62.525-63.55zM765.676 296.55c-34.85 0-62.525 28.7-62.525 63.55 0 35.875 27.675 64.575 62.525 64.575 33.825 0 61.5-28.7 61.5-64.575 0-34.85-27.675-63.55-61.5-63.55zM265.475 296.55c-33.825 0-62.525 28.7-62.525 63.55 0 35.875 28.7 64.575 62.525 64.575 34.85 0 62.525-28.7 62.525-64.575 0-34.85-27.675-63.55-62.525-63.55zM515.575 552.8c-34.85 0-62.525 28.7-62.525 63.55 0 35.875 27.675 64.575 62.525 64.575s62.525-28.7 62.525-64.575c0-34.85-27.675-63.55-62.525-63.55zM765.676 552.8c-34.85 0-62.525 28.7-62.525 63.55 0 35.875 27.675 64.575 62.525 64.575 33.825 0 61.5-28.7 61.5-64.575 0-34.85-27.675-63.55-61.5-63.55zM265.475 552.8c-33.825 0-62.525 28.7-62.525 63.55 0 35.875 28.7 64.575 62.525 64.575 34.85 0 62.525-28.7 62.525-64.575 0-34.85-27.675-63.55-62.525-63.55z" />
<glyph unicode="&#xe81a;" glyph-name="main-data-layers" d="M502.25 723.975c8.2 4.1 19.475 4.1 27.675 0l322.875-168.1c21.525-11.275 21.525-43.050 0-54.325l-322.875-168.1c-8.2-4.1-19.475-4.1-27.675 0l-322.875 168.1c-21.525 11.275-21.525 43.050 0 54.325l322.875 168.1zM261.375 528.2l254.2-132.225 255.225 132.225-255.225 133.25-254.2-133.25zM825.126 234.025c15.375 8.2 33.825 1.025 41-14.35s1.025-33.825-14.35-41l-321.85-154.775c-9.225-4.1-18.45-4.1-27.675 0l-321.85 154.775c-15.375 7.175-21.525 25.625-14.35 41s25.625 22.55 41 14.35l308.525-147.6 309.55 147.6zM825.126 388.8c15.375 7.175 33.825 1.025 41-14.35s1.025-33.825-14.35-41l-321.85-154.775c-9.225-4.1-18.45-4.1-27.675 0l-321.85 154.775c-15.375 7.175-21.525 25.625-14.35 41s25.625 21.525 41 14.35l308.525-147.6 309.55 147.6z" />
<glyph unicode="&#xe81b;" glyph-name="main-filters" d="M169.125 661.45c-14.35 16.4-2.050 42.025 19.475 42.025h644.726c21.525 0 33.825-25.625 19.475-42.025l-252.15-304.425v-271.625c0-19.475-19.475-31.775-36.9-22.55l-129.15 65.6c-8.2 4.1-13.325 13.325-13.325 22.55v206.025l-252.15 304.425zM243.95 652.225l222.425-269.575c4.1-4.1 6.15-10.25 6.15-16.4v-198.85l76.875-39.975v238.825c0 6.15 2.050 12.3 6.15 16.4l222.425 269.575h-534.026z" />
<glyph unicode="&#xe81c;" glyph-name="main-help" d="M517.625 41.325c-182.45 0-331.075 148.625-331.075 331.075 0 183.475 148.625 331.075 331.075 331.075s331.075-147.6 331.075-331.075c0-182.45-148.625-331.075-331.075-331.075zM517.625 97.7c151.7 0 274.7 123 274.7 274.7s-123 274.7-274.7 274.7c-151.7 0-274.7-123-274.7-274.7s123-274.7 274.7-274.7zM546.326 259.65c0-16.4-13.325-28.7-28.7-28.7s-28.7 12.3-28.7 28.7v112.75c0 15.375 13.325 28.7 28.7 28.7s28.7-13.325 28.7-28.7v-112.75zM517.625 457.475c-15.375 0-28.7 12.3-28.7 28.7 0 15.375 13.325 27.675 28.7 27.675s28.7-12.3 28.7-27.675c0-16.4-13.325-28.7-28.7-28.7z" />
<glyph unicode="&#xe81d;" glyph-name="main-tools" d="M747.226 28c-30.75 0-60.475 12.3-82 33.825l-140.425 139.4c-18.45 18.45-24.6 44.075-17.425 68.675l4.1 15.375-226.525 228.575c-1.025 1.025-3.075 2.050-4.1 2.050l-20.5 7.175c-17.425 6.15-32.8 18.45-44.075 33.825l-49.2 74.825c-6.15 8.2-5.125 19.475 2.050 26.65l62.525 62.525c7.175 7.175 19.475 8.2 27.675 2.050l74.825-49.2c15.375-10.25 27.675-25.625 33.825-44.075l7.175-19.475 3.075-4.1 226.525-228.575 15.375 4.1c23.575 6.15 49.2 0 66.625-17.425l141.45-140.425c21.525-21.525 33.825-50.225 33.825-80.975 0-63.55-51.25-114.8-114.8-114.8zM210.125 644.025l39.975-59.45c5.125-8.2 12.3-14.35 21.525-17.425l19.475-6.15c8.2-3.075 15.375-8.2 21.525-13.325l236.775-237.8c5.125-6.15 7.175-14.35 5.125-21.525l-8.2-27.675c-3.075-9.225 0-18.45 6.15-25.625l141.45-139.4c13.325-13.325 30.75-20.5 50.225-20.5 38.95 0 71.75 31.775 71.75 70.725 0 18.45-8.2 36.9-21.525 50.225l-141.45 140.425c-6.15 6.15-15.375 8.2-24.6 6.15l-26.65-7.175c-8.2-2.050-16.4 0-21.525 5.125l-236.775 237.8c-6.15 6.15-10.25 13.325-13.325 20.5l-6.15 19.475c-4.1 9.225-9.225 17.425-17.425 22.55l-60.475 39.975-35.875-36.9zM249.075 28c-47.15 0-86.1 37.925-86.1 83.025 0 22.55 9.225 43.050 25.625 59.45l182.45 177.325c9.225 8.2 23.575 8.2 31.775 0 9.225-8.2 9.225-22.55 0-30.75l-182.45-177.325c-8.2-7.175-12.3-17.425-12.3-28.7 0-21.525 18.45-38.95 41-38.95 11.275 0 21.525 4.1 28.7 11.275l173.225 168.1c9.225 8.2 22.55 8.2 31.775 0 8.2-9.225 8.2-22.55 0-30.75l-173.225-168.1c-16.4-15.375-37.925-24.6-60.475-24.6v0zM700.076 401.1c-18.45 0-36.9 3.075-54.325 9.225-11.275 4.1-17.425 16.4-13.325 27.675s16.4 17.425 27.675 13.325c44.075-15.375 91.225-4.1 124.025 27.675 19.475 20.5 31.775 46.125 33.825 73.8l-11.275 11.275-61.5-61.5c-4.1-4.1-9.225-6.15-15.375-6.15s-11.275 2.050-15.375 6.15l-76.875 76.875c-8.2 8.2-8.2 22.55 0 30.75l61.5 61.5-11.275 11.275c-27.675-3.075-53.3-14.35-72.775-34.85-32.8-31.775-44.075-79.95-28.7-123 3.075-8.2 1.025-17.425-5.125-22.55l-8.2-8.2c-8.2-9.225-22.55-9.225-30.75 0-8.2 8.2-8.2 20.5-1.025 29.725-14.35 55.35 1.025 113.775 43.050 154.775 29.725 30.75 68.675 47.15 111.725 48.175 5.125 0 11.275-2.050 15.375-6.15l33.825-33.825c8.2-8.2 8.2-22.55 0-30.75l-61.5-61.5 46.125-46.125 61.5 61.5c8.2 8.2 22.55 8.2 30.75 0l33.825-33.825c4.1-4.1 6.15-10.25 6.15-15.375-1.025-43.050-17.425-83.025-48.175-112.75-30.75-30.75-71.75-47.15-113.775-47.15v0zM605.776 238.125c-13.325 0-23.575 10.25-23.575 22.55s8.2 21.525 19.475 23.575c1.025 1.025 3.075 3.075 4.1 4.1 2.050 11.275 12.3 19.475 23.575 19.475 12.3 0 22.55-10.25 22.55-23.575 0-20.5-25.625-46.125-46.125-46.125v0z" />
<glyph unicode="&#xe81e;" glyph-name="quick-loop-add" d="M540.176 413.4h43.050c11.275 0 21.525-9.225 21.525-20.5 0-12.3-10.25-21.525-21.525-21.525h-43.050v-43.050c0-11.275-9.225-21.525-21.525-21.525-11.275 0-20.5 10.25-20.5 21.525v43.050h-43.050c-12.3 0-21.525 9.225-21.525 21.525 0 11.275 9.225 20.5 21.525 20.5h43.050v43.050c0 12.3 9.225 21.525 20.5 21.525 12.3 0 21.525-9.225 21.525-21.525v-43.050zM377.2 221.725h228.575c59.45 0 106.6 47.15 106.6 106.6v149.65c0 11.275 10.25 21.525 21.525 21.525 12.3 0 21.525-10.25 21.525-21.525v-149.65c0-83.025-66.625-149.65-149.65-149.65h-228.575v-68.675c0-5.125-6.15-8.2-10.25-5.125l-108.65 90.2c-3.075 2.050-3.075 7.175 0 9.225l108.65 90.2c4.1 4.1 10.25 1.025 10.25-4.1v-68.675zM662.151 558.95h-228.575c-59.45 0-106.6-48.175-106.6-106.6v-149.65c0-12.3-10.25-21.525-21.525-21.525-12.3 0-21.525 9.225-21.525 21.525v149.65c0 82 66.625 149.65 149.65 149.65h228.575v67.65c0 6.15 6.15 9.225 10.25 5.125l108.65-90.2c3.075-2.050 3.075-7.175 0-9.225l-108.65-90.2c-4.1-3.075-10.25-1.025-10.25 5.125v68.675z" />
<glyph unicode="&#xe81f;" glyph-name="main-uploads" d="M505.325 574.325v-298.275c0-16.4-14.35-30.75-31.775-30.75s-30.75 14.35-30.75 30.75v298.275l-102.5-102.5c-12.3-12.3-31.775-12.3-44.075 0s-12.3 31.775 0 44.075l155.8 155.8c12.3 11.275 31.775 11.275 44.075 0l154.775-155.8c12.3-12.3 12.3-31.775 0-44.075s-31.775-12.3-44.075 0l-101.475 102.5zM722.626 276.050c0 17.425 13.325 31.775 30.75 31.775s30.75-14.35 30.75-31.775v-124.025c0-51.25-41-93.275-93.275-93.275h-434.6c-51.25 0-93.275 42.025-93.275 93.275v124.025c0 17.425 14.35 31.775 31.775 31.775 16.4 0 30.75-14.35 30.75-31.775v-124.025c0-16.4 13.325-30.75 30.75-30.75h434.6c17.425 0 31.775 14.35 31.775 30.75v124.025z" />
<glyph unicode="&#xe821;" glyph-name="download-guid" d="M787.201 280.15c0 18.45 14.35 32.8 33.825 32.8s33.825-14.35 33.825-32.8v-129.15c0-53.3-45.1-97.375-102.5-97.375h-478.675c-57.4 0-103.525 44.075-103.525 97.375v129.15c0 18.45 16.4 32.8 34.85 32.8s33.825-14.35 33.825-32.8v-129.15c0-17.425 15.375-32.8 34.85-32.8h478.675c18.45 0 34.85 15.375 34.85 32.8v129.15zM477.65 358.050v311.6c0 17.425 15.375 31.775 34.85 31.775s33.825-14.35 33.825-31.775v-311.6l112.75 107.625c13.325 12.3 34.85 12.3 49.2 0 13.325-13.325 13.325-33.825 0-46.125l-172.2-162.975c-13.325-11.275-34.85-11.275-48.175 0l-171.175 162.975c-13.325 12.3-13.325 32.8 0 46.125 14.35 12.3 35.875 12.3 49.2 0l111.725-107.625z" />
<glyph unicode="&#xe822;" glyph-name="quick-loop" d="M377.2 221.725h228.575c59.45 0 106.6 47.15 106.6 106.6v149.65c0 11.275 10.25 21.525 21.525 21.525 12.3 0 21.525-10.25 21.525-21.525v-149.65c0-83.025-66.625-149.65-149.65-149.65h-228.575v-68.675c0-5.125-6.15-8.2-10.25-5.125l-108.65 90.2c-3.075 2.050-3.075 7.175 0 9.225l108.65 90.2c4.1 4.1 10.25 1.025 10.25-4.1v-68.675zM662.151 558.95h-228.575c-59.45 0-106.6-48.175-106.6-106.6v-149.65c0-12.3-10.25-21.525-21.525-21.525-12.3 0-21.525 9.225-21.525 21.525v149.65c0 82 66.625 149.65 149.65 149.65h228.575v67.65c0 6.15 6.15 9.225 10.25 5.125l108.65-90.2c3.075-2.050 3.075-7.175 0-9.225l-108.65-90.2c-4.1-3.075-10.25-1.025-10.25 5.125v68.675z" />
<glyph unicode="&#xe823;" glyph-name="remove-overlay" d="M663.176 528.2c-83.025 84.050-218.325 84.050-301.35 0-84.050-83.025-84.050-218.325 0-301.35 83.025-84.050 218.325-84.050 301.35 0 84.050 83.025 84.050 218.325 0 301.35zM693.926 558.95c99.425-100.45 99.425-262.4 0-362.85-100.45-99.425-262.4-99.425-362.85 0-99.425 100.45-99.425 262.4 0 362.85 100.45 99.425 262.4 99.425 362.85 0zM400.775 361.125c-12.3 0-21.525 10.25-21.525 21.525 0 12.3 9.225 21.525 21.525 21.525h213.2c12.3 0 21.525-9.225 21.525-21.525 0-11.275-9.225-21.525-21.525-21.525h-213.2z" />
<glyph unicode="&#xe824;" glyph-name="main-algorithms" d="M364.9 313.975v119.925c0 14.35 11.275 26.65 26.65 26.65 0 0 0 0 0 0h80.975c14.35 0 26.65-12.3 26.65-26.65v-119.925c0-14.35-12.3-26.65-26.65-26.65 0 0 0 0 0 0h-80.975c-15.375 0-26.65 12.3-26.65 26.65zM408.975 394.95v-42.025c0-12.3 10.25-22.55 22.55-22.55s22.55 10.25 22.55 22.55c0 0 0 0 0 0v42.025c0 12.3-10.25 22.55-22.55 22.55s-22.55-10.25-22.55-22.55zM725.701 315v118.9c0 14.35 12.3 26.65 26.65 26.65 0 0 0 0 0 0h80.975c15.375 0 26.65-12.3 26.65-26.65v-118.9c0-15.375-11.275-27.675-26.65-27.675 0 0 0 0 0 0h-80.975c-14.35 0-26.65 12.3-26.65 27.675zM770.801 394.95v-42.025c0-12.3 10.25-21.525 22.55-21.525s22.55 9.225 22.55 21.525c0 0 0 0 0 0v42.025c0 12.3-10.25 22.55-22.55 22.55s-22.55-10.25-22.55-22.55zM476.625 546.65h1.025c11.275 0 21.525-9.225 21.525-21.525 0-11.275-10.25-21.525-21.525-21.525h-91.225c-12.3 0-21.525 10.25-21.525 21.525 0 12.3 9.225 21.525 21.525 21.525v0c12.3 0 22.55 10.25 22.55 22.55v42.025c0 12.3-10.25 22.55-22.55 22.55v0c-12.3 0-21.525 9.225-21.525 21.525 0 11.275 9.225 21.525 21.525 21.525h41c14.35 0 26.65-12.3 26.65-26.65v-80.975c0-12.3 10.25-22.55 22.55-22.55zM837.426 546.65h1.025c12.3 0 21.525-9.225 21.525-21.525 0-11.275-9.225-21.525-21.525-21.525h-91.225c-12.3 0-21.525 10.25-21.525 21.525 0 12.3 9.225 21.525 21.525 21.525h1.025c12.3 0 22.55 10.25 22.55 22.55v42.025c0 12.3-10.25 22.55-22.55 22.55h-1.025c-12.3 0-21.525 9.225-21.525 21.525s9.225 21.525 21.525 21.525h41c15.375 0 27.675-12.3 27.675-26.65v-80.975c0-12.3 9.225-22.55 21.525-22.55zM297.25 330.375h1.025c11.275 0 21.525-9.225 21.525-21.525 0-11.275-10.25-21.525-21.525-21.525 0 0 0 0 0 0h-91.225c-12.3 0-22.55 10.25-22.55 21.525 0 12.3 10.25 21.525 22.55 21.525 0 0 0 0 0 0v0c12.3 0 22.55 10.25 22.55 22.55 0 0 0 0 0 0v42.025c0 12.3-10.25 22.55-22.55 22.55v0c-12.3 0-22.55 9.225-22.55 21.525s10.25 21.525 22.55 21.525c0 0 0 0 0 0h41c14.35 0 26.65-12.3 26.65-26.65v-80.975c0-12.3 10.25-22.55 22.55-22.55zM293.15 503.6h-80.975c-15.375 0-27.675 12.3-27.675 26.65v119.925c0 14.35 12.3 26.65 27.675 26.65h80.975c14.35 0 26.65-12.3 26.65-26.65v-119.925c0-14.35-12.3-26.65-26.65-26.65zM252.15 633.775c-12.3 0-22.55-10.25-22.55-22.55v-42.025c0-12.3 10.25-22.55 22.55-22.55s22.55 10.25 22.55 22.55v42.025c0 12.3-10.25 22.55-22.55 22.55zM654.976 331.4h1.025c12.3 0 21.525-10.25 21.525-21.525 0-12.3-9.225-22.55-21.525-22.55 0 0 0 0 0 0h-91.225c-12.3 0-21.525 10.25-21.525 22.55 0 11.275 9.225 21.525 21.525 21.525h1.025c12.3 0 22.55 9.225 22.55 21.525v42.025c0 12.3-10.25 22.55-22.55 22.55h-1.025c-12.3 0-21.525 9.225-21.525 21.525s9.225 21.525 21.525 21.525c0 0 0 0 0 0h41c15.375 0 26.65-12.3 26.65-26.65v-80.975c0-12.3 10.25-21.525 22.55-21.525zM650.876 503.6h-80.975c-14.35 0-26.65 12.3-26.65 26.65v119.925c0 14.35 12.3 26.65 26.65 26.65h80.975c15.375 0 26.65-12.3 26.65-26.65v-119.925c0-14.35-11.275-26.65-26.65-26.65zM610.901 633.775c-13.325 0-22.55-10.25-22.55-22.55v-42.025c0-12.3 9.225-22.55 22.55-22.55 12.3 0 21.525 10.25 21.525 22.55v42.025c0 12.3-9.225 22.55-21.525 22.55zM476.625 114.1h1.025c12.3 0 21.525-9.225 21.525-21.525 0-11.275-9.225-21.525-21.525-21.525h-91.225c-12.3 0-21.525 10.25-21.525 21.525 0 12.3 9.225 21.525 21.525 21.525h1.025c12.3 0 22.55 10.25 22.55 22.55v42.025c0 12.3-10.25 22.55-22.55 22.55h-1.025c-12.3 0-21.525 9.225-21.525 21.525 0 11.275 9.225 21.525 21.525 21.525h41c15.375 0 26.65-12.3 26.65-26.65v-80.975c0-12.3 10.25-22.55 22.55-22.55zM293.15 71.050h-80.975c-15.375 0-26.65 12.3-26.65 26.65v119.925c0 14.35 11.275 26.65 26.65 26.65h80.975c14.35 0 26.65-12.3 26.65-26.65v-119.925c0-14.35-12.3-26.65-26.65-26.65zM252.15 201.225c-12.3 0-21.525-10.25-21.525-22.55v-42.025c0-12.3 9.225-22.55 21.525-22.55 13.325 0 22.55 10.25 22.55 22.55v42.025c0 12.3-9.225 22.55-22.55 22.55zM650.876 71.050h-80.975c-14.35 0-26.65 12.3-26.65 26.65v119.925c0 14.35 12.3 26.65 26.65 26.65h80.975c15.375 0 27.675-12.3 27.675-26.65v-119.925c0-14.35-12.3-26.65-27.675-26.65zM610.901 201.225c-12.3 0-22.55-10.25-22.55-22.55v-42.025c0-12.3 10.25-22.55 22.55-22.55s22.55 10.25 22.55 22.55v42.025c0 12.3-10.25 22.55-22.55 22.55zM838.451 114.1v0c12.3 0 22.55-9.225 22.55-21.525 0-11.275-10.25-21.525-22.55-21.525h-91.225c-11.275 0-21.525 10.25-21.525 21.525 0 12.3 10.25 21.525 21.525 21.525h1.025c12.3 0 22.55 10.25 22.55 22.55v42.025c0 12.3-10.25 22.55-22.55 22.55h-1.025c-11.275 0-21.525 9.225-21.525 21.525 0 11.275 10.25 21.525 21.525 21.525h42.025c14.35 0 26.65-12.3 26.65-26.65v-80.975c0-12.3 10.25-22.55 22.55-22.55z" />
<glyph unicode="&#xe825;" glyph-name="copy-coords" d="M405.9 484.125v86.1c0 34.85 28.7 63.55 63.55 63.55h214.225c34.85 0 63.55-28.7 63.55-63.55v-214.225c0-34.85-28.7-63.55-63.55-63.55h-86.1v-86.1c0-34.85-28.7-63.55-63.55-63.55h-213.2c-35.875 0-64.575 28.7-64.575 63.55v214.225c0 34.85 28.7 63.55 64.575 63.55h85.075zM448.95 484.125h85.075c34.85 0 63.55-28.7 63.55-63.55v-86.1h86.1c11.275 0 21.525 10.25 21.525 21.525v214.225c0 11.275-10.25 20.5-21.525 20.5h-214.225c-11.275 0-20.5-9.225-20.5-20.5v-86.1zM320.825 442.1c-12.3 0-21.525-10.25-21.525-21.525v-214.225c0-11.275 9.225-20.5 21.525-20.5h213.2c11.275 0 21.525 9.225 21.525 20.5v214.225c0 11.275-10.25 21.525-21.525 21.525h-213.2z" />
<glyph unicode="&#xe826;" glyph-name="label" d="M531.976 668.625l246-5.125c12.3-1.025 21.525-10.25 21.525-21.525l5.125-246c0-6.15-2.050-12.3-6.15-16.4l-302.375-301.35c-8.2-8.2-21.525-8.2-29.725 0l-252.15 251.125c-8.2 8.2-8.2 22.55 0 30.75l302.375 301.35c4.1 4.1 9.225 7.175 15.375 7.175zM540.176 625.575l-280.85-280.85 221.4-221.4 280.85 280.85-4.1 216.275-217.3 5.125zM566.826 521.025c24.6 24.6 65.6 24.6 90.2 0 25.625-24.6 25.625-65.6 0-90.2-24.6-25.625-65.6-25.625-90.2 0-25.625 24.6-25.625 65.6 0 90.2zM627.301 490.275c-8.2 9.225-22.55 9.225-30.75 0-8.2-8.2-8.2-21.525 0-29.725s22.55-8.2 30.75 0c8.2 8.2 8.2 21.525 0 29.725z" />
<glyph unicode="&#xe827;" glyph-name="drag-annotations" d="M768.751 676.825c23.575 0 43.050-19.475 43.050-43.050v-512.5c0-23.575-19.475-43.050-43.050-43.050h-512.5c-23.575 0-43.050 19.475-43.050 43.050v512.5c0 23.575 19.475 43.050 43.050 43.050h512.5zM768.751 633.775h-512.5v-512.5h512.5v512.5zM534.026 313.975v-49.2h38.95c6.15 0 9.225-7.175 5.125-12.3l-60.475-59.45c-2.050-3.075-7.175-3.075-10.25 0l-59.45 59.45c-5.125 5.125-1.025 12.3 5.125 12.3h37.925v49.2h43.050zM637.551 442.1l59.45-59.45c3.075-3.075 3.075-8.2 0-10.25l-59.45-60.475c-4.1-4.1-12.3-1.025-12.3 5.125v38.95h-48.175v43.050h48.175v37.925c0 7.175 8.2 10.25 12.3 5.125zM400.775 436.975v-37.925h48.175v-43.050h-48.175v-38.95c0-6.15-8.2-9.225-12.3-5.125l-60.475 60.475c-3.075 2.050-3.075 7.175 0 10.25l60.475 59.45c4.1 5.125 12.3 2.050 12.3-5.125zM517.625 562.025l60.475-59.45c4.1-5.125 1.025-13.325-5.125-13.325h-38.95v-47.15h-43.050v47.15h-37.925c-6.15 0-10.25 8.2-5.125 13.325l59.45 59.45c3.075 3.075 8.2 3.075 10.25 0z" />
<glyph unicode="&#xe828;" glyph-name="next" d="M404.875 208.4l45.1-46.125 191.675 192.7c13.325 12.3 13.325 32.8 0 45.1l-191.675 192.7-45.1-46.125 169.125-169.125-169.125-169.125z" />
<glyph unicode="&#xe829;" glyph-name="prev" d="M650.876 546.65l-45.1 46.125-191.675-192.7c-12.3-12.3-12.3-32.8 0-45.1l191.675-192.7 45.1 46.125-169.125 169.125 169.125 169.125z" />
<glyph unicode="&#xe82a;" glyph-name="shadow-mouse" d="M644.726 592.775h106.6c11.275 0 21.525-9.225 21.525-21.525 0-11.275-10.25-21.525-21.525-21.525h-106.6v-106.6c0-11.275-10.25-21.525-21.525-21.525-12.3 0-21.525 10.25-21.525 21.525v106.6h-108.65c-11.275 0-20.5 10.25-20.5 21.525 0 12.3 9.225 21.525 20.5 21.525h108.65v105.575c0 11.275 9.225 20.5 21.525 20.5 11.275 0 21.525-9.225 21.525-20.5v-105.575zM640.626 252.475v-3.075c-5.125-15.375-16.4-26.65-30.75-30.75l-5.125-1.025-136.325-11.275 58.425-119.925c5.125-11.275 1.025-23.575-9.225-28.7s-23.575-1.025-28.7 9.225l-58.425 119.925-90.2-99.425c-12.3-10.25-27.675-13.325-45.1-6.15-16.4 6.15-26.65 21.525-26.65 37.925l-12.3 382.325c0 17.425 10.25 33.825 26.65 41 14.35 6.15 30.75 4.1 45.1-6.15l297.25-240.875c13.325-10.25 18.45-26.65 15.375-43.050zM599.626 261.7h-1.025l-295.2 240.875c-2.050 1.025-3.075 1.025-4.1 0 0 0 0 0 0 1.025l12.3-382.325c0-1.025 0-1.025 0-1.025 1.025 0 1.025 0 1.025-1.025l106.6 119.925c2.050 2.050 5.125 4.1 7.175 5.125 3.075 1.025 5.125 2.050 8.2 2.050l164 13.325c0 1.025 0 1.025 1.025 1.025 0 0 0 1.025 0 1.025z" />
<glyph unicode="&#xe82b;" glyph-name="share" d="M609.876 326.275l-157.85-92.25c4.1-8.2 7.175-18.45 7.175-29.725 0-34.85-28.7-63.55-64.575-63.55-34.85 0-63.55 28.7-63.55 63.55 0 35.875 28.7 64.575 63.55 64.575 8.2 0 16.4-2.050 23.575-4.1l170.15 98.4c-1.025 4.1-1.025 8.2-1.025 12.3s0 8.2 1.025 12.3l-170.15 98.4c-7.175-2.050-15.375-4.1-23.575-4.1-34.85 0-63.55 28.7-63.55 64.575 0 34.85 28.7 63.55 63.55 63.55 35.875 0 64.575-28.7 64.575-63.55 0-11.275-3.075-21.525-7.175-29.725l157.85-92.25c11.275 9.225 25.625 15.375 41 15.375 35.875 0 64.575-28.7 64.575-64.575 0-34.85-28.7-63.55-64.575-63.55-15.375 0-29.725 5.125-41 14.35z" />
<glyph unicode="&#xe82c;" glyph-name="status-bar-case" d="M236.775 546.65h266.5l-24.6 34.85c-3.075 6.15-10.25 9.225-17.425 9.225h-202.95c-12.3 0-21.525-9.225-21.525-20.5v-23.575zM563.751 546.65h14.35c1.025 0 2.050 0 3.075 0h189.625c34.85 0 63.55-28.7 63.55-64.575v-301.35c0-34.85-28.7-63.55-63.55-63.55h-512.5c-35.875 0-64.575 28.7-64.575 63.55v389.5c0 34.85 28.7 63.55 64.575 63.55h202.95c21.525 0 41-10.25 53.3-27.675l34.85-50.225c3.075-5.125 8.2-8.2 14.35-9.225zM560.676 503.6h-323.9v-322.875c0-11.275 9.225-20.5 21.525-20.5h512.5c11.275 0 20.5 9.225 20.5 20.5v301.35c0 12.3-9.225 21.525-20.5 21.525h-203.975c-2.050 0-4.1 0-6.15 0zM310.575 332.425c-12.3 0-21.525 10.25-21.525 21.525 0 12.3 9.225 21.525 21.525 21.525h139.4c12.3 0 21.525-9.225 21.525-21.525 0-11.275-9.225-21.525-21.525-21.525h-139.4zM310.575 247.35c-12.3 0-21.525 9.225-21.525 21.525 0 11.275 9.225 21.525 21.525 21.525h267.525c12.3 0 21.525-10.25 21.525-21.525 0-12.3-9.225-21.525-21.525-21.525h-267.525z" />
<glyph unicode="&#xe82d;" glyph-name="status-bar-imagery-count" d="M747.226 246.325v353.625c0 11.275-9.225 21.525-21.525 21.525h-426.4c-12.3 0-21.525-10.25-21.525-21.525v-330.050l111.725 143.5c8.2 10.25 23.575 10.25 32.8 1.025l130.175-150.675 72.775 73.8c8.2 8.2 22.55 8.2 30.75 0l91.225-91.225zM747.226 186.875l-106.6 105.575-60.475-60.475 76.875-88.15c0 0 0-1.025 1.025-1.025h67.65c12.3 0 21.525 9.225 21.525 21.525v22.55zM277.775 200.2v-35.875c0-12.3 9.225-21.525 21.525-21.525h302.375l-194.75 223.45-129.15-166.050zM234.725 207.375c0 0 0 0 0 1.025v391.55c0 34.85 28.7 63.55 64.575 63.55h426.4c35.875 0 64.575-28.7 64.575-63.55v-435.625c0-35.875-28.7-64.575-64.575-64.575h-426.4c-35.875 0-64.575 28.7-64.575 64.575v43.050zM555.551 407.25c-35.875 0-64.575 28.7-64.575 64.575 0 34.85 28.7 63.55 64.575 63.55 34.85 0 63.55-28.7 63.55-63.55 0-35.875-28.7-64.575-63.55-64.575zM555.551 450.3c11.275 0 21.525 9.225 21.525 21.525 0 11.275-10.25 21.525-21.525 21.525-12.3 0-21.525-10.25-21.525-21.525 0-12.3 9.225-21.525 21.525-21.525z" />
<glyph unicode="&#xe82e;" glyph-name="input-filter" d="M474.554 79.506h75.893c20.362 0 37.021 22.213 37.021 49.979 0 26.84-16.659 49.053-37.021 49.053h-75.893c-20.362 0-37.021-22.213-37.021-49.053 0-27.766 16.659-49.979 37.021-49.979zM173.759 625.565c0-26.84 17.585-49.053 37.946-49.053h601.591c20.362 0 37.946 22.213 37.946 49.053 0 27.766-17.585 49.979-37.946 49.979h-601.591c-20.362 0-37.946-22.213-37.946-49.979zM324.619 327.546h375.763c21.287 0 37.946 23.139 37.946 49.979 0 27.766-16.659 49.979-37.946 49.979h-375.763c-20.362 0-37.946-22.213-37.946-49.979 0-26.84 17.585-49.979 37.946-49.979z" />
<glyph unicode="&#xe82f;" glyph-name="area-big" horiz-adv-x="1060" d="M908.151 106.925l-67.65 66.625c-11.275 11.275-28.7 11.275-39.975 0s-11.275-28.7 0-39.975l19.475-19.475h-560.676v553.501l18.45-19.475c6.15-5.125 13.325-8.2 20.5-8.2s14.35 2.050 19.475 8.2c11.275 11.275 11.275 28.7 0 39.975l-66.625 66.625c-10.25 10.25-29.725 10.25-41 0l-66.625-66.625c-11.275-11.275-11.275-28.7 0-39.975s28.7-11.275 39.975 0l19.475 19.475v-610.901h617.051l-19.475-18.45c-11.275-11.275-11.275-28.7 0-39.975 6.15-5.125 13.325-9.225 20.5-9.225s14.35 3.075 19.475 9.225l67.65 66.625c5.125 5.125 8.2 13.325 8.2 20.5 0 8.2-2.050 15.375-8.2 21.525zM379.25 198.15h379.25c16.4 0 28.7 12.3 28.7 28.7v378.225c0 15.375-12.3 28.7-28.7 28.7h-379.25c-15.375 0-28.7-13.325-28.7-28.7v-379.25c0-15.375 13.325-27.675 28.7-27.675zM407.95 577.4h321.85v-321.85h-321.85v321.85z" />
<glyph unicode="&#xe831;" glyph-name="temporary-link" d="M543.251 394.95c-8.2 8.2-8.2 21.525 0 29.725s22.55 8.2 30.75 0c57.4-58.425 61.5-149.65 6.15-205l-72.775-72.775c-55.35-55.35-147.6-52.275-205 6.15-58.425 58.425-61.5 149.65-6.15 205l52.275 52.275c8.2 8.2 21.525 8.2 29.725 0s8.2-21.525 0-29.725l-52.275-52.275c-37.925-37.925-35.875-103.525 6.15-145.55s106.6-44.075 144.525-6.15l72.775 72.775c37.925 37.925 35.875 103.525-6.15 145.55zM496.1 346.775c8.2-8.2 8.2-21.525 0-30.75-9.225-8.2-22.55-8.2-30.75 0-58.425 58.425-61.5 150.675-6.15 206.025l72.775 71.75c55.35 55.35 147.6 52.275 205-5.125 58.425-58.425 61.5-150.675 6.15-206.025l-53.3-53.3c-8.2-8.2-22.55-8.2-30.75 0s-8.2 21.525 0 29.725l54.325 54.325c37.925 37.925 35.875 102.5-6.15 144.525s-106.6 44.075-145.55 6.15l-71.75-72.775c-38.95-37.925-35.875-102.5 6.15-144.525z" />
<glyph unicode="&#xe832;" glyph-name="tools-heatmap" d="M625.251 484.125h165.025v-384.375h-384.375v171.175h-171.175v384.375h390.525v-171.175zM625.251 484.125h-219.35v-213.2h219.35v213.2zM448.95 442.1h128.125v-128.125h-128.125v128.125z" />
<glyph unicode="&#xe833;" glyph-name="tools-go-to" d="M492 334.475c-59.45 0-107.625 48.175-107.625 107.625 0 58.425 48.175 106.6 107.625 106.6 58.425 0 106.6-48.175 106.6-106.6 0-59.45-48.175-107.625-106.6-107.625zM492 377.525c34.85 0 63.55 28.7 63.55 64.575 0 34.85-28.7 63.55-63.55 63.55-35.875 0-64.575-28.7-64.575-63.55 0-35.875 28.7-64.575 64.575-64.575zM504.3 42.35c-7.175-7.175-18.45-7.175-26.65 0-175.275 144.525-264.45 276.75-264.45 399.75 0 152.725 125.050 276.75 277.775 276.75 153.75 0 277.775-124.025 277.775-276.75 0-123-89.175-255.225-264.45-399.75zM725.701 442.1c0 129.15-104.55 234.725-234.725 234.725-129.15 0-234.725-105.575-234.725-234.725 0-104.55 77.9-223.45 234.725-355.675 157.85 132.225 234.725 251.125 234.725 355.675z" />
<glyph unicode="&#xe834;" glyph-name="tools-image-processing" d="M621.151 227.875v21.525c0 11.275 9.225 21.525 21.525 21.525 11.275 0 21.525-10.25 21.525-21.525v-21.525h63.55c12.3 0 21.525-9.225 21.525-21.525 0-11.275-9.225-21.525-21.525-21.525h-63.55v-20.5c0-12.3-10.25-21.525-21.525-21.525-12.3 0-21.525 9.225-21.525 21.525v20.5h-319.8c-12.3 0-21.525 10.25-21.525 21.525 0 12.3 9.225 21.525 21.525 21.525h319.8zM407.95 399.050v21.525c0 11.275 9.225 20.5 21.525 20.5 11.275 0 20.5-9.225 20.5-20.5v-21.525h277.775c12.3 0 21.525-10.25 21.525-21.525 0-12.3-9.225-21.525-21.525-21.525h-277.775v-21.525c0-11.275-9.225-21.525-20.5-21.525-12.3 0-21.525 10.25-21.525 21.525v21.525h-106.6c-12.3 0-21.525 9.225-21.525 21.525 0 11.275 9.225 21.525 21.525 21.525h106.6zM493.025 569.2v21.525c0 12.3 9.225 21.525 21.525 21.525 11.275 0 21.525-9.225 21.525-21.525v-21.525h191.675c12.3 0 21.525-9.225 21.525-20.5 0-12.3-9.225-21.525-21.525-21.525h-191.675v-21.525c0-12.3-10.25-21.525-21.525-21.525-12.3 0-21.525 9.225-21.525 21.525v21.525h-191.675c-12.3 0-21.525 9.225-21.525 21.525 0 11.275 9.225 20.5 21.525 20.5h191.675z" />
<glyph unicode="&#xe835;" glyph-name="tools-ruler" d="M701.101 399.050l60.475 60.475-74.825 75.85c-8.2 8.2-8.2 21.525 0 29.725s21.525 8.2 29.725 0l75.85-74.825 60.475 60.475-150.675 150.675-513.525-513.525 150.675-150.675 60.475 60.475-75.85 74.825c-8.2 8.2-8.2 22.55 0 30.75s22.55 8.2 30.75 0l74.825-75.85 60.475 60.475-45.1 45.1c-8.2 8.2-8.2 21.525 0 30.75 8.2 8.2 21.525 8.2 30.75 0l45.1-46.125 60.475 60.475-75.85 75.85c-8.2 8.2-8.2 21.525 0 29.725 8.2 9.225 21.525 9.225 29.725 0l75.85-74.825 60.475 60.475-45.1 45.1c-8.2 8.2-8.2 21.525 0 29.725s21.525 8.2 29.725 0l45.1-45.1zM686.751 746.525c8.2 8.2 21.525 8.2 30.75 0l180.4-180.4c8.2-9.225 8.2-22.55 0-30.75l-543.251-543.251c-8.2-8.2-21.525-8.2-29.725 0l-181.425 181.425c-8.2 8.2-8.2 21.525 0 29.725l543.251 543.251z" />
<glyph unicode="&#xe837;" glyph-name="upload" d="M538.126 525.125v-231.65c0-11.275-9.225-20.5-20.5-20.5s-20.5 9.225-20.5 20.5v231.65l-45.1-52.275c-7.175-9.225-20.5-10.25-29.725-2.050-9.225 7.175-10.25 20.5-3.075 29.725l82 96.35c0 0 0 0 0 0 7.175 9.225 21.525 10.25 29.725 3.075 1.025-1.025 2.050-2.050 3.075-3.075l80.975-96.35c7.175-9.225 6.15-22.55-3.075-29.725-8.2-8.2-22.55-7.175-29.725 2.050l-44.075 52.275zM700.076 343.7c0 11.275 9.225 20.5 20.5 20.5 12.3 0 21.525-9.225 21.525-20.5v-183.475c0-11.275-9.225-21.525-21.525-21.525h-405.9c-12.3 0-21.525 10.25-21.525 21.525v183.475c0 11.275 9.225 20.5 21.525 20.5 11.275 0 20.5-9.225 20.5-20.5v-162.975h364.9v162.975z" />
<glyph unicode="&#xe838;" glyph-name="restore-overlay" d="M485.85 404.175v85.075c0 12.3 10.25 21.525 21.525 21.525 12.3 0 21.525-9.225 21.525-21.525v-85.075h85.075c12.3 0 21.525-9.225 21.525-21.525 0-11.275-9.225-21.525-21.525-21.525h-85.075v-85.075c0-12.3-9.225-21.525-21.525-21.525-11.275 0-21.525 9.225-21.525 21.525v85.075h-85.075c-12.3 0-21.525 10.25-21.525 21.525 0 12.3 9.225 21.525 21.525 21.525h85.075zM663.176 528.2c-83.025 84.050-218.325 84.050-301.35 0-84.050-83.025-84.050-218.325 0-301.35 83.025-84.050 218.325-84.050 301.35 0 84.050 83.025 84.050 218.325 0 301.35zM693.926 558.95c99.425-100.45 99.425-262.4 0-362.85-100.45-99.425-262.4-99.425-362.85 0-99.425 100.45-99.425 262.4 0 362.85 100.45 99.425 262.4 99.425 362.85 0z" />
<glyph unicode="&#xe839;" glyph-name="export-maps" d="M490.975 305.775v199.875c0 12.3 10.25 21.525 21.525 21.525 12.3 0 21.525-9.225 21.525-21.525v-199.875l54.325 53.3c8.2 9.225 21.525 9.225 29.725 0 8.2-8.2 8.2-21.525 0-29.725l-90.2-90.2c-8.2-9.225-22.55-9.225-30.75 0l-90.2 90.2c-8.2 8.2-8.2 21.525 0 29.725 8.2 9.225 21.525 9.225 29.725 0l54.325-53.3zM334.15 718.85c11.275 0 21.525-9.225 21.525-20.5 0-12.3-10.25-21.525-21.525-21.525h-99.425c-11.275 0-21.525-10.25-21.525-21.525v-106.6c0-12.3-9.225-21.525-20.5-21.525-12.3 0-21.525 9.225-21.525 21.525v106.6c0 34.85 28.7 63.55 63.55 63.55h99.425zM690.851 36.2c-11.275 0-21.525 9.225-21.525 21.525 0 11.275 10.25 20.5 21.525 20.5h99.425c11.275 0 21.525 10.25 21.525 21.525v106.6c0 12.3 9.225 21.525 21.525 21.525 11.275 0 20.5-9.225 20.5-21.525v-106.6c0-34.85-28.7-63.55-63.55-63.55h-99.425zM853.826 555.875c0-11.275-9.225-21.525-20.5-21.525-12.3 0-21.525 10.25-21.525 21.525v99.425c0 11.275-10.25 21.525-21.525 21.525h-106.6c-12.3 0-21.525 9.225-21.525 21.525 0 11.275 9.225 20.5 21.525 20.5h106.6c34.85 0 63.55-28.7 63.55-63.55v-99.425zM171.175 199.175c0 11.275 9.225 21.525 21.525 21.525 11.275 0 20.5-10.25 20.5-21.525v-99.425c0-11.275 10.25-21.525 21.525-21.525h106.6c12.3 0 21.525-9.225 21.525-20.5 0-12.3-9.225-21.525-21.525-21.525h-106.6c-34.85 0-63.55 28.7-63.55 63.55v99.425z" />
<glyph unicode="&#xe83a;" glyph-name="pin-point" d="M511.475 320.125c-30.75 0-56.375 25.625-56.375 57.4s25.625 57.4 56.375 57.4c31.775 0 57.4-25.625 57.4-57.4s-25.625-57.4-57.4-57.4zM313.65 576.375v-123h-57.4v151.7c0 16.4 12.3 28.7 28.7 28.7h151.7v-57.4h-123zM313.65 178.675h123v-57.4h-151.7c-16.4 0-28.7 13.325-28.7 28.7v151.7h57.4v-123zM712.376 576.375h-124.025v57.4h151.7c16.4 0 28.7-12.3 28.7-28.7v-151.7h-56.375v123zM712.376 178.675v123h56.375v-151.7c0-16.4-12.3-28.7-28.7-28.7h-151.7v57.4h124.025z" />
<glyph unicode="&#xe83b;" glyph-name="context-menu-first" d="M439.725 384.7c1.025 3.075 3.075 6.15 6.15 9.225l145.55 146.575c15.375 15.375 42.025 5.125 42.025-17.425v-292.125c0-22.55-26.65-32.8-42.025-17.425l-145.55 146.575c-3.075 2.050-5.125 6.15-6.15 9.225v-138.375c0-14.35-11.275-24.6-24.6-24.6s-24.6 10.25-24.6 24.6v293.15c0 13.325 11.275 24.6 24.6 24.6s24.6-11.275 24.6-24.6v-139.4z" />
<glyph unicode="&#xe83c;" glyph-name="context-menu-angle" d="M460.225 357.025c20.5-20.5 33.825-37.925 39.975-52.275 7.175-16.4 10.25-39.975 12.3-73.8h219.35c13.325 0 24.6-10.25 24.6-24.6 0-13.325-11.275-23.575-24.6-23.575h-463.3c-21.525 0-32.8 26.65-17.425 42.025l330.050 316.725c9.225 9.225 24.6 9.225 34.85-1.025 9.225-9.225 8.2-24.6-1.025-33.825l-154.775-149.65z" />
<glyph unicode="&#xe83d;" glyph-name="context-menu-prev" d="M341.325 384.7c1.025 3.075 3.075 6.15 6.15 9.225l146.575 146.575c15.375 15.375 42.025 5.125 42.025-17.425v-292.125c0-22.55-26.65-32.8-42.025-17.425l-146.575 146.575c-3.075 2.050-5.125 6.15-6.15 9.225v-138.375c0-14.35-10.25-24.6-23.575-24.6-14.35 0-24.6 10.25-24.6 24.6v293.15c0 13.325 10.25 24.6 24.6 24.6 13.325 0 23.575-11.275 23.575-24.6v-139.4zM543.251 360.1c-10.25 9.225-10.25 24.6 0 33.825l146.575 146.575c15.375 15.375 41 5.125 41-17.425v-292.125c0-22.55-25.625-32.8-41-17.425l-146.575 146.575z" />
<glyph unicode="&#xe83e;" glyph-name="context-menu-best" d="M255.225 353.95c-15.375 13.325-15.375 35.875 0 48.175l10.25 9.225c10.25 9.225 14.35 24.6 8.2 36.9l-4.1 11.275c-8.2 18.45 2.050 38.95 21.525 44.075l12.3 4.1c14.35 3.075 23.575 15.375 24.6 29.725l1.025 12.3c0 17.425 15.375 30.75 32.8 30.75 1.025 0 4.1 0 5.125-1.025l13.325-2.050c1.025 0 4.1-1.025 5.125-1.025 12.3 0 23.575 6.15 29.725 16.4l6.15 11.275c6.15 11.275 17.425 16.4 28.7 16.4 6.15 0 13.325-2.050 19.475-6.15l10.25-8.2c6.15-4.1 13.325-6.15 19.475-6.15s13.325 2.050 19.475 6.15l10.25 7.175c5.125 4.1 13.325 6.15 19.475 6.15 12.3 0 23.575-6.15 28.7-17.425l6.15-10.25c6.15-11.275 17.425-17.425 29.725-17.425 1.025 0 3.075 0 5.125 1.025l15.375 4.1c2.050 0 4.1 1.025 5.125 1.025 18.45 0 32.8-13.325 33.825-30.75v-12.3c1.025-14.35 11.275-26.65 24.6-29.725l12.3-4.1c19.475-5.125 29.725-25.625 22.55-44.075l-5.125-11.275c-6.15-12.3-2.050-27.675 9.225-36.9l9.225-9.225c15.375-13.325 15.375-35.875 0-48.175l-9.225-9.225c-11.275-9.225-15.375-24.6-9.225-36.9l5.125-11.275c7.175-18.45-3.075-38.95-22.55-44.075l-12.3-3.075c-13.325-4.1-23.575-16.4-24.6-30.75v-12.3c-1.025-17.425-16.4-30.75-33.825-30.75-1.025 0-3.075 0-5.125 1.025l-13.325 2.050c-1.025 0-4.1 1.025-5.125 1.025-12.3 0-23.575-6.15-28.7-16.4l-7.175-11.275c-6.15-11.275-17.425-16.4-28.7-16.4-6.15 0-13.325 2.050-19.475 6.15l-10.25 8.2c-5.125 4.1-12.3 6.15-19.475 6.15-6.15 0-13.325-2.050-19.475-6.15l-12.3-11.275c-6.15-4.1-13.325-6.15-19.475-6.15-12.3 0-23.575 6.15-28.7 17.425l-6.15 11.275c-6.15 10.25-17.425 16.4-29.725 16.4-1.025 0-4.1 0-5.125 0l-13.325-3.075c-1.025 0-4.1 0-5.125 0-17.425 0-32.8 13.325-32.8 30.75l-1.025 12.3c-1.025 14.35-10.25 25.625-24.6 29.725l-12.3 3.075c-19.475 6.15-28.7 25.625-21.525 44.075l4.1 12.3c6.15 12.3 3.075 27.675-8.2 36.9l-10.25 10.25zM592.451 466.7l-116.85-116.85-67.65 68.675-34.85-34.85 102.5-102.5 151.7 151.7-34.85 33.825z" />
<glyph unicode="&#xe83f;" glyph-name="context-menu-next" d="M682.651 370.35c-1.025-4.1-3.075-7.175-6.15-10.25l-146.575-146.575c-15.375-15.375-42.025-4.1-42.025 17.425v293.15c0 21.525 26.65 32.8 42.025 17.425l146.575-146.575c3.075-3.075 5.125-6.15 6.15-10.25v139.4c0 13.325 10.25 24.6 23.575 24.6 14.35 0 24.6-11.275 24.6-24.6v-293.15c0-14.35-10.25-24.6-24.6-24.6-13.325 0-23.575 10.25-23.575 24.6v139.4zM480.725 394.95c10.25-9.225 10.25-24.6 0-34.85l-146.575-146.575c-15.375-15.375-41-4.1-41 17.425v293.15c0 21.525 25.625 32.8 41 17.425l146.575-146.575z" />
<glyph unicode="&#xe840;" glyph-name="context-menu-last" d="M584.251 370.35c-1.025-4.1-3.075-7.175-5.125-10.25l-146.575-146.575c-15.375-15.375-42.025-4.1-42.025 17.425v293.15c0 21.525 26.65 32.8 42.025 17.425l146.575-146.575c2.050-3.075 4.1-6.15 5.125-10.25v139.4c0 13.325 11.275 24.6 24.6 24.6s24.6-11.275 24.6-24.6v-293.15c0-14.35-11.275-24.6-24.6-24.6s-24.6 10.25-24.6 24.6v139.4z" />
<glyph unicode="&#xe841;" glyph-name="screen-3" d="M171.175 78.225v276.75h682.651v-276.75h-682.651zM171.175 399.050v277.775h682.651v-277.775h-682.651z" />
<glyph unicode="&#xe842;" glyph-name="screen-6" d="M534.026 78.225v276.75h317.75v-276.75h-317.75zM171.175 78.225v276.75h317.75v-276.75h-317.75zM534.026 400.075v276.75h317.75v-276.75h-317.75zM171.175 400.075v276.75h317.75v-276.75h-317.75z" />
<glyph unicode="&#xe843;" glyph-name="screen-5" d="M538.126 78.225v299.3h315.7v-299.3h-315.7zM171.175 78.225v299.3h317.75v-299.3h-317.75zM171.175 420.575v256.25h682.651v-256.25h-682.651z" />
<glyph unicode="&#xe844;" glyph-name="screen-4" d="M171.175 676.825h317.75v-598.601h-317.75v598.601zM534.026 78.225v276.75h317.75v-276.75h-317.75zM534.026 400.075v276.75h317.75v-276.75h-317.75z" />
<glyph unicode="&#xe845;" glyph-name="screen-2" d="M534.026 78.225v598.601h317.75v-598.601h-317.75zM171.175 78.225v598.601h317.75v-598.601h-317.75z" />
<glyph unicode="&#xe846;" glyph-name="screen-1" d="M171.175 377.525v299.3h682.651v-598.601h-682.651v299.3z" />
<glyph unicode="&#xe847;" glyph-name="drag-maps" d="M352.6 357.025v-64.575c0-10.25-11.275-14.35-18.45-8.2l-85.075 86.1c-4.1 4.1-4.1 10.25 0 14.35l85.075 86.1c7.175 6.15 18.45 2.050 18.45-8.2v-63.55h138.375v138.375h-63.55c-10.25 0-14.35 12.3-8.2 18.45l86.1 85.075c4.1 4.1 10.25 4.1 14.35 0l86.1-85.075c6.15-6.15 2.050-18.45-8.2-18.45h-64.575v-138.375h139.4v63.55c0 10.25 12.3 14.35 18.45 8.2l85.075-86.1c4.1-4.1 4.1-10.25 0-14.35l-85.075-86.1c-6.15-6.15-18.45-2.050-18.45 8.2v64.575h-139.4v-139.4h64.575c10.25 0 14.35-11.275 8.2-18.45l-86.1-85.075c-4.1-4.1-10.25-4.1-14.35 0l-86.1 85.075c-6.15 7.175-2.050 18.45 8.2 18.45h63.55v139.4h-138.375z" />
<glyph unicode="&#xe848;" glyph-name="main-settings" d="M528.901 9.55h-21.525l-11.275 3.075c-25.625 7.175-47.15 25.625-58.425 51.25-4.1 8.2-8.2 16.4-14.35 23.575-9.225 12.3-16.4 14.35-21.525 14.35-12.3 1.025-25.625-1.025-37.925-6.15-32.8-14.35-70.725-7.175-96.35 17.425s-32.8 63.55-19.475 96.35c5.125 10.25 7.175 20.5 7.175 31.775 1.025 6.15-1.025 12.3-4.1 17.425-8.2 11.275-19.475 20.5-32.8 25.625-14.35 5.125-25.625 14.35-34.85 25.625-18.45 21.525-24.6 50.225-17.425 76.875s26.65 48.175 52.275 58.425c9.225 3.075 17.425 8.2 24.6 15.375 6.15 4.1 10.25 10.25 12.3 17.425 2.050 14.35 0 28.7-6.15 41-8.2 20.5-9.225 43.050-2.050 63.55 7.175 22.55 23.575 41 46.125 50.225 22.55 10.25 48.175 10.25 70.725 0 10.25-4.1 20.5-6.15 31.775-6.15 5.125 0 11.275 1.025 16.4 5.125 11.275 8.2 19.475 19.475 24.6 32.8s14.35 25.625 26.65 35.875c20.5 17.425 50.225 23.575 76.875 16.4s48.175-26.65 58.425-52.275c3.075-9.225 8.2-17.425 15.375-24.6 4.1-6.15 11.275-11.275 19.475-12.3 13.325-1.025 26.65 1.025 38.95 6.15 19.475 9.225 43.050 9.225 63.55 2.050 22.55-7.175 41-24.6 50.225-46.125 10.25-22.55 10.25-48.175 0-70.725-4.1-10.25-6.15-20.5-6.15-31.775 0-6.15 1.025-11.275 4.1-16.4 8.2-12.3 20.5-21.525 34.85-25.625 16.4-7.175 30.75-19.475 39.975-34.85 3.075-7.175 6.15-14.35 9.225-21.525 1.025-3.075 2.050-5.125 3.075-8.2l1.025-2.050v-2.050c2.050-7.175 2.050-15.375 0-23.575v-2.050l-1.025-3.075c0-1.025-1.025-1.025-1.025-2.050-7.175-28.7-27.675-52.275-55.35-62.525-9.225-4.1-17.425-10.25-24.6-17.425-5.125-4.1-9.225-10.25-10.25-17.425-1.025-12.3 1.025-25.625 6.15-37.925 6.15-14.35 9.225-30.75 7.175-46.125-3.075-27.675-19.475-51.25-43.050-64.575s-53.3-15.375-77.9-4.1c-10.25 4.1-20.5 6.15-31.775 6.15-6.15 1.025-12.3-1.025-17.425-4.1-11.275-9.225-19.475-20.5-24.6-34.85-5.125-11.275-12.3-22.55-22.55-30.75-12.3-11.275-27.675-18.45-44.075-22.55h-3.075zM514.55 55.675h8.2c8.2 2.050 15.375 6.15 22.55 11.275 4.1 4.1 7.175 8.2 9.225 13.325 8.2 21.525 21.525 39.975 39.975 54.325 13.325 9.225 29.725 14.35 46.125 14.35 17.425 0 34.85-4.1 50.225-11.275 12.3-4.1 25.625-4.1 36.9 2.050s18.45 17.425 19.475 30.75c1.025 7.175 0 14.35-3.075 21.525-8.2 19.475-12.3 39.975-10.25 60.475 2.050 18.45 10.25 33.825 23.575 46.125 11.275 12.3 25.625 21.525 41 27.675 13.325 5.125 23.575 16.4 26.65 31.775 1.025 2.050 0 12.3-1.025 14.35-1.025 5.125-3.075 10.25-6.15 15.375-3.075 6.15-9.225 11.275-16.4 13.325-22.55 9.225-41 23.575-55.35 42.025-8.2 13.325-13.325 28.7-12.3 44.075-1.025 17.425 3.075 34.85 10.25 51.25 4.1 10.25 4.1 22.55-1.025 32.8-4.1 10.25-11.275 17.425-21.525 20.5-10.25 4.1-20.5 4.1-30.75 0-19.475-9.225-39.975-12.3-61.5-10.25-19.475 2.050-37.925 12.3-50.225 27.675-10.25 11.275-18.45 24.6-23.575 38.95-5.125 12.3-15.375 20.5-27.675 23.575-12.3 4.1-25.625 1.025-35.875-8.2-5.125-4.1-9.225-10.25-12.3-16.4-8.2-21.525-21.525-39.975-39.975-53.3-13.325-9.225-28.7-13.325-44.075-13.325-17.425 0-34.85 4.1-51.25 11.275-10.25 4.1-22.55 4.1-32.8-1.025-10.25-4.1-17.425-12.3-20.5-22.55-4.1-9.225-3.075-20.5 1.025-29.725 9.225-20.5 12.3-44.075 9.225-66.625-3.075-17.425-13.325-33.825-27.675-46.125-11.275-10.25-24.6-18.45-38.95-23.575-11.275-5.125-20.5-15.375-23.575-27.675s0-25.625 8.2-35.875c4.1-5.125 10.25-9.225 16.4-12.3 21.525-7.175 39.975-21.525 53.3-39.975 9.225-13.325 13.325-28.7 13.325-44.075 0-18.45-4.1-34.85-11.275-51.25-6.15-15.375-2.050-32.8 9.225-44.075 12.3-12.3 29.725-15.375 45.1-8.2 19.475 8.2 39.975 11.275 61.5 9.225s41-14.35 53.3-32.8c8.2-10.25 14.35-20.5 19.475-32.8s16.4-21.525 29.725-24.6l5.125-2.050zM517.625 219.675c-79.95 0-144.525 64.575-144.525 144.525 0 80.975 64.575 145.55 144.525 145.55v0c79.95 0 145.55-64.575 145.55-145.55v0c0-78.925-64.575-144.525-144.525-144.525h-1.025zM517.625 462.6v0c-39.975 0-75.85-23.575-91.225-60.475-14.35-36.9-6.15-79.95 22.55-107.625 18.45-18.45 43.050-28.7 68.675-28.7h1.025c54.325 1.025 97.375 45.1 97.375 98.4v0c0 55.35-44.075 99.425-98.4 99.425v-1.025z" />
<glyph unicode="&#xe849;" glyph-name="area-small" d="M888.676 116.15l-66.625 65.6c-10.25 11.275-27.675 11.275-38.95 0s-11.275-27.675 0-38.95l18.45-18.45h-551.451v543.251l18.45-18.45c5.125-5.125 13.325-8.2 20.5-8.2 6.15 0 14.35 2.050 19.475 8.2 11.275 11.275 11.275 28.7 0 38.95l-65.6 66.625c-10.25 10.25-30.75 10.25-41 0l-65.6-66.625c-11.275-10.25-11.275-27.675 0-38.95s28.7-11.275 39.975 0l18.45 18.45v-599.626h606.801l-18.45-19.475c-11.275-11.275-11.275-27.675 0-38.95 5.125-5.125 13.325-9.225 19.475-9.225 7.175 0 14.35 3.075 19.475 9.225l66.625 65.6c5.125 5.125 8.2 13.325 8.2 20.5 0 8.2-3.075 15.375-8.2 20.5zM369 206.35h373.1c15.375 0 28.7 12.3 28.7 27.675v372.075c0 15.375-13.325 28.7-28.7 28.7h-373.1c-15.375 0-28.7-13.325-28.7-28.7v-373.1c0-14.35 13.325-26.65 28.7-26.65zM396.675 579.45h317.75v-316.725h-317.75v316.725z" />
<glyph unicode="&#xe84a;" glyph-name="unpin" d="M652.926 718.85c11.275 0 19.475-8.2 19.475-18.45v-90.2c0-10.25-8.2-19.475-19.475-19.475h-25.625v-147.6c41-19.475 67.65-60.475 67.65-106.6v-41c0-5.125-2.050-10.25-6.15-13.325-3.075-4.1-8.2-6.15-13.325-6.15h-138.375l1.025-205c0-5.125-2.050-10.25-6.15-13.325-4.1-4.1-8.2-6.15-13.325-6.15s-10.25 2.050-14.35 6.15c-3.075 3.075-5.125 8.2-5.125 13.325v205h-138.375c-5.125 0-10.25 2.050-13.325 6.15-4.1 3.075-6.15 8.2-6.15 13.325l1.025 41c-1.025 46.125 25.625 87.125 66.625 106.6v147.6h-25.625c-10.25 0-18.45 9.225-19.475 19.475v90.2c0 10.25 9.225 18.45 19.475 18.45h269.575zM629.351 676.825h-222.425v-43.050h45.1v-217.3l-24.6-12.3c-26.65-11.275-43.050-37.925-43.050-67.65v-17.425h267.525v18.45c0 28.7-16.4 54.325-43.050 67.65l-24.6 11.275v217.3h45.1v43.050z" />
<glyph unicode="&#xe84b;" glyph-name="pin" d="M806.676 483.1c8.2-7.175 8.2-19.475 0-26.65l-63.55-63.55c-7.175-7.175-19.475-7.175-26.65 0l-18.45 18.45-104.55-104.55c15.375-43.050 5.125-91.225-27.675-123l-28.7-29.725c-4.1-3.075-8.2-5.125-13.325-5.125s-10.25 2.050-14.35 5.125l-97.375 98.4-145.55-145.55c-3.075-4.1-8.2-6.15-13.325-6.15s-10.25 2.050-13.325 6.15c-4.1 3.075-6.15 8.2-6.15 13.325s2.050 10.25 6.15 14.35l144.525 144.525-97.375 97.375c-3.075 4.1-5.125 9.225-5.125 14.35s2.050 9.225 5.125 13.325l29.725 28.7c31.775 32.8 79.95 43.050 123 27.675l103.525 104.55-17.425 18.45c-7.175 7.175-7.175 19.475 0 26.65l63.55 63.55c7.175 8.2 19.475 8.2 26.65 0l190.65-190.65z" />
<glyph unicode="&#xe84c;" glyph-name="credentials" d="M528.901 647.1c53.3-66.625 118.9-98.4 196.8-98.4 12.3 0 21.525-10.25 21.525-21.525v-111.725c0-147.6-89.175-280.85-226.525-335.175-5.125-2.050-11.275-2.050-16.4 0-136.325 54.325-226.525 187.575-226.525 335.175v111.725c0 11.275 9.225 21.525 21.525 21.525 92.25 0 156.825 31.775 194.75 96.35 8.2 12.3 25.625 13.325 34.85 2.050zM514.55 598.925c-44.075-57.4-109.675-88.15-193.725-92.25v-91.225c0-127.1 74.825-241.9 191.675-292.125 116.85 50.225 192.7 165.025 192.7 292.125v91.225c-73.8 5.125-138.375 35.875-190.65 92.25zM603.726 434.925c9.225 9.225 22.55 9.225 30.75 0 8.2-8.2 8.2-21.525 0-29.725v0l-128.125-128.125c-8.2-8.2-21.525-8.2-30.75 0v0l-63.55 63.55c-8.2 9.225-8.2 22.55 0 30.75s21.525 8.2 29.725 0v0l49.2-49.2z" />
<glyph unicode="&#xe84e;" glyph-name="method-draw-image" d="M976.826 52.6l-80.975 80.975c-14.35 13.325-34.85 13.325-49.2 0-13.325-13.325-13.325-34.85 0-48.175l23.575-23.575h-681.626v666.251l22.55-22.55c7.175-6.15 16.4-10.25 24.6-10.25s18.45 3.075 24.6 10.25c13.325 13.325 13.325 34.85 0 48.175l-80.975 79.95c-13.325 13.325-37.925 13.325-50.225 0l-80.975-79.95c-14.35-13.325-14.35-34.85 0-48.175 13.325-13.325 34.85-13.325 48.175 0l23.575 22.55v-734.926h750.301l-23.575-22.55c-13.325-14.35-13.325-34.85 0-48.175 7.175-6.15 16.4-11.275 24.6-11.275s18.45 4.1 24.6 11.275l80.975 79.95c6.15 6.15 10.25 17.425 10.25 25.625 0 9.225-3.075 18.45-10.25 24.6zM335.175 162.275h461.25c18.45 0 34.85 16.4 34.85 34.85v456.125c0 18.45-16.4 34.85-34.85 34.85h-461.25c-19.475 0-34.85-16.4-34.85-34.85v-457.15c0-17.425 15.375-33.825 34.85-33.825zM370.025 619.425h391.55v-387.45h-391.55v387.45z" />
<glyph unicode="&#xe84f;" glyph-name="credentials-request" d="M529.926 702.45c56.375-76.875 126.075-113.775 210.125-113.775 12.3 0 22.55-12.3 22.55-25.625v-129.15c0-171.175-95.325-324.925-241.9-388.475-5.125-3.075-11.275-3.075-16.4 0-145.55 63.55-241.9 217.3-241.9 388.475v129.15c0 13.325 10.25 25.625 22.55 25.625 98.4 0 167.075 35.875 208.075 110.7 8.2 15.375 27.675 16.4 36.9 3.075zM514.55 646.075c-47.15-65.6-115.825-102.5-207.050-106.6v-105.575c0-147.6 80.975-280.85 205-339.275 124.025 58.425 205 191.675 205 339.275v105.575c-78.925 6.15-146.575 41-202.95 106.6zM539.151 507.7v-109.675h100.45v-53.3h-100.45v-109.675h-48.175v109.675h-101.475v53.3h101.475v109.675h48.175z" />
<glyph unicode="&#xe854;" glyph-name="table" d="M797.451 175.343v-112.75h-797.451v112.75h797.451zM1025.001 175.343v-112.75h-113.775v112.75h113.775zM797.451 402.894v-113.775h-797.451v113.775h797.451zM1025.001 402.894v-113.775h-113.775v113.775h113.775zM797.451 629.419v-113.775h-797.451v113.775h797.451zM1025.001 629.419v-113.775h-113.775v113.775h113.775z" />
<glyph unicode="&#xe855;" glyph-name="more" d="M455.1 146.643c0 31.775 26.65 58.425 58.425 58.425s57.4-26.65 57.4-58.425c0-31.775-25.625-57.4-57.4-57.4s-58.425 25.625-58.425 57.4zM513.525 485.919c31.775 0 57.4 26.65 57.4 58.425s-25.625 57.4-57.4 57.4c-31.775 0-58.425-25.625-58.425-57.4s26.65-58.425 58.425-58.425zM513.525 288.094c31.775 0 57.4 25.625 57.4 57.4s-25.625 57.4-57.4 57.4c-31.775 0-58.425-25.625-58.425-57.4s26.65-57.4 58.425-57.4z" />
<glyph unicode="&#xe856;" glyph-name="autoimage-new" d="M1002.451-6.082l-648.826 647.801-146.575-147.6 647.801-647.801c7.175-8.2 18.45-13.325 29.725-13.325s22.55 5.125 30.75 13.325l87.125 87.125c16.4 17.425 16.4 44.075 0 60.475v0zM470.475 304.494l-187.575 189.625 70.725 72.775 191.675-189.625-74.825-72.775zM645.751 523.844c16.4 85.075 83.025 150.675 167.075 167.075-84.050 16.4-150.675 83.025-167.075 167.075-16.4-84.050-82-150.675-167.075-167.075 85.075-16.4 150.675-82 167.075-167.075v0zM168.1 321.919c-12.3-64.575-62.525-114.8-126.075-126.075 63.55-12.3 113.775-62.525 126.075-126.075 11.275 63.55 61.5 113.775 126.075 126.075-64.575 11.275-114.8 61.5-126.075 126.075v0zM110.7 642.744c10.25 51.25 50.225 91.225 102.5 101.475-52.275 9.225-92.25 50.225-102.5 101.475-9.225-51.25-50.225-92.25-101.475-101.475 51.25-10.25 92.25-50.225 101.475-101.475z" />
<glyph unicode="&#xe900;" glyph-name="matos" horiz-adv-x="1074" d="M835.275 563.212l-53.719 53.719c-3.256 3.256-8.139 4.884-11.395 3.256l-336.966-68.37c-4.884-1.628-8.139 0-11.395 3.256l-153.018 153.018c-26.045 26.045-68.37 26.045-94.415 0s-26.045-68.37 0-94.415l157.902-157.902c3.256-3.256 4.884-6.511 3.256-11.395l-63.486-341.85c0-4.884 0-8.139 3.256-11.395l56.975-55.347c6.511-6.511 17.906-4.884 21.162 3.256l113.95 258.829c3.256 8.139 14.65 9.768 21.162 3.256l167.669-167.669c3.256-3.256 4.884-8.139 3.256-11.395l-22.79-110.694c-1.628-4.884 0-8.139 3.256-11.395l32.557-32.557c6.511-6.511 16.279-4.884 21.162 3.256l53.719 110.694c1.628 0 1.628 1.628 3.256 3.256l47.208 47.208c1.628 1.628 1.628 1.628 3.256 1.628l112.322 56.975c8.139 3.256 9.768 14.65 3.256 21.162l-27.674 27.674c-3.256 3.256-8.139 4.884-11.395 3.256l-112.322-22.79c-4.884-1.628-8.139 0-11.395 3.256l-177.436 177.436c-6.511 6.511-4.884 16.279 3.256 21.162l252.317 122.089c8.139 3.256 9.768 13.023 3.256 19.534z" />
<glyph unicode="&#xe901;" glyph-name="lavian" horiz-adv-x="1074" d="M280.007 718.142l240.141-240.141-120.070-120.070-240.141 240.141 120.070 120.070zM673.239 333.846l240.141-240.141-120.070-120.070-240.141 240.141 120.070 120.070zM611.797 518.327l-238.624-238.624 94.793-94.793 238.624 238.624c2.164 2.164 3.246 5 3.246 7.837s-1.082 5.673-3.246 7.837l-79.12 79.12c-2.164 2.164-5 3.246-7.837 3.246s-5.673-1.082-7.837-3.246zM366.761 306.849l126.389-126.389-18.959-18.959-126.389 126.389 18.959 18.959zM366.853 158.21c0-14.807-12.004-26.811-26.811-26.811s-26.811 12.004-26.811 26.811c0 14.807 12.004 26.811 26.811 26.811s26.811-12.004 26.811-26.811zM357.917 176.084l48.712 50.948" />
<glyph unicode="&#xe902;" glyph-name="home" d="M1025.001 299.004l-512.5 397.814-512.5-397.816v162.196l512.5 397.814 512.5-397.816zM896.876 313.462v-384.375h-256.25v256.25h-256.25v-256.25h-256.25v384.375l384.375 288.282z" />
<glyph unicode="&#xe903;" glyph-name="home2" d="M512.5 857.994l-512.5-512.5 96.094-96.094 96.094 96.094v-416.407h256.25v192.188h128.125v-192.188h256.25v416.407l96.094-96.094 96.094 96.094-512.5 512.5zM512.5 441.587c-35.381 0-64.063 28.682-64.063 64.063s28.682 64.063 64.063 64.063c35.381 0 64.063-28.682 64.063-64.063s-28.682-64.063-64.063-64.063z" />
<glyph unicode="&#xe904;" glyph-name="arrow" horiz-adv-x="909" d="M472.485 218.344l79.184 78.9c10.217 10.217 10.217 26.395 0 36.612s-26.395 10.217-36.612 0l-34.909-34.909v155.53c0 14.191-11.636 25.827-25.827 25.827s-25.827-11.636-25.827-25.827v-155.53l-34.909 34.626c-10.217 10.217-26.395 10.217-36.612 0-5.109-5.109-7.663-11.636-7.663-18.164s2.554-13.339 7.663-18.164l78.9-78.9c4.825-4.825 11.352-7.663 18.164-7.663s13.623 2.838 18.448 7.663z" />
<glyph unicode="&#xe905;" glyph-name="status-bar-time" horiz-adv-x="923" d="M307.7 761.9v-76.875h307.5v76.875h76.875v-76.875h38.438c41.858 0 76.183-33.904 76.865-75.608l0.010-1.267v-538.126c0-41.858-33.904-76.183-75.608-76.865l-1.267-0.010h-538.126c-42.239 0-76.19 33.904-76.865 75.608l-0.010 1.267 0.384 538.126c0 41.858 33.151 76.183 75.212 76.865l1.278 0.010h38.438v76.875h76.875zM730.514 492.838h-538.126v-422.813h538.126v422.813zM346.138 415.962v-76.875h-76.875v76.875h76.875zM499.889 415.962v-76.875h-76.875v76.875h76.875zM653.639 415.962v-76.875h-76.875v76.875h76.875z" />
<glyph unicode="&#xe906;" glyph-name="status-bar-geo" horiz-adv-x="718" d="M358.85 761.9c148.7 0 268.973-120.309 268.973-269.063 0-201.797-268.973-499.688-268.973-499.688s-268.973 297.891-268.973 499.688c0 148.753 120.267 269.063 268.973 269.063zM359.046 588.794c-53.026 0-96.064-43.050-96.064-96.094s43.034-96.094 96.064-96.094c53.026 0 96.064 43.050 96.064 96.094s-43.034 96.094-96.064 96.094z" />
</font>
</defs>
</svg>
