<svg width="24" height="24" viewBox="0 0 24 24" version="1.1" xmlns="http://www.w3.org/2000/svg"
	 xmlns:xlink="http://www.w3.org/1999/xlink">
	<title>4 screens</title>
	<desc>Created using Figma</desc>
	<g id="Canvas" transform="translate(-27842 -4836)">
		<clipPath id="clip-0" clip-rule="evenodd">
			<path d="M 27842 4836L 27866 4836L 27866 4860L 27842 4860L 27842 4836Z" fill="#FFFFFF"/>
		</clipPath>
		<g id="4 screens" clip-path="url(#clip-0)">
			<g id="Group">
				<g id="ic_view_module_white_24px (1)">
					<g id="Vector">
						<use xlink:href="#path0_fill" transform="translate(27846 4841)" fill="#FFFFFF"/>
					</g>
				</g>
			</g>
		</g>
	</g>
	<defs>
		<path id="path0_fill"
			  d="M 0 6L 0 0.5L 0 0L 0 6ZM 0 13L 0 7.5L 0 7L 0 13ZM 0 13L 7.52941 13L 7.52941 7L 0 7L 0 13ZM 8.47059 13L 16 13L 16 7L 8.47059 7L 8.47059 13ZM 0 6L 7.52941 6L 7.52941 0L 0 0L 0 6ZM 8.47059 0L 8.47059 6L 16 6L 16 0L 8.47059 0Z"/>
	</defs>
</svg>
