<?xml version="1.0" encoding="UTF-8"?>
<svg width="40px" height="40px" viewBox="0 0 40 40" version="1.1" xmlns="http://www.w3.org/2000/svg"
>
	<!-- Generator: Sketch 47.1 (45422) - http://www.bohemiancoding.com/sketch -->
	<title>Group</title>
	<desc>Created with Sketch.</desc>
	<defs></defs>
	<g id="Draft" stroke="none" stroke-width="1" fill="none" fill-rule="evenodd">
		<g id="github" fill-rule="nonzero">
			<g id="Group">
				<path
					d="M14.438609,32.0127798 C14.109451,32.0946372 13.9656536,32.3008659 14.0068928,32.6297367 C14.0479161,32.9587515 14.2328448,33.0687114 14.5615709,32.9587515 C14.8907289,32.849224 15.0344184,32.6568303 14.9930712,32.3827233 C14.9522638,32.0812345 14.7673351,31.9575837 14.438609,32.0127798 Z"
					id="Shape" fill="#000000"></path>
				<path
					d="M13.4847713,32.0119372 C13.1615197,32.0119372 13,32.1738398 13,32.5001333 C13,32.8849047 13.1718136,33.0472738 13.5150164,32.9881739 C13.8382681,32.9881739 14,32.8253382 14,32.5001333 C14,32.1158285 13.8281864,31.9523707 13.4847713,32.0119372 Z"
					id="Shape" fill="#000000"></path>
				<path
					d="M11.0228553,32.3218325 C10.9427492,32.6146476 11.0732377,32.8136781 11.4140047,32.920601 C11.7149294,33.0795179 11.9056029,32.9999896 11.9857089,32.6810377 C12.0459993,32.3887816 11.9155107,32.1764732 11.5945595,32.0425749 C11.2935294,31.9364905 11.1030667,32.0283185 11.0228553,32.3218325 Z"
					id="Shape" fill="#000000"></path>
				<path
					d="M37.7994915,2.20031605 C36.332425,0.733529896 34.566363,0 32.4999373,0 L7.4999715,0 C5.43418427,0 3.66748378,0.733529896 2.20032609,2.20031605 C0.733533241,3.66737584 0,5.43406828 0,7.49993729 L0,32.5001539 C0,34.5661141 0.733533241,36.3326242 2.20032609,37.7994103 C3.66739257,39.2664701 5.43418427,40 7.4999715,40 L13.3333029,40 C13.7149372,40 14.001619,39.9868654 14.1925274,39.961326 C14.3833445,39.9350568 14.5741617,39.8221359 14.7652525,39.6222896 C14.9564345,39.4228081 15.0516606,39.1319319 15.0516606,38.7501169 C15.0516606,38.6983082 15.0471,38.1074345 15.038526,36.9790462 C15.0296784,35.8502931 15.0253914,34.9563207 15.0253914,34.2964904 L14.426397,34.4007461 C14.044489,34.4700675 13.5627031,34.5006237 12.9810391,34.4918673 C12.3996488,34.4831109 11.796185,34.4225459 11.1712862,34.309625 C10.5460226,34.1966128 9.96463224,33.9362927 9.42638558,33.5286646 C8.88841256,33.1203068 8.50650461,32.5866232 8.28075296,31.9270666 L8.02024924,31.3277101 C7.8466713,30.9288384 7.57339779,30.4859111 7.20006385,30.0002052 C6.82672991,29.5138609 6.44920018,29.1839457 6.06729223,29.0103686 L5.88495787,28.8801173 C5.76355365,28.7933743 5.65072343,28.6887537 5.54646721,28.5673501 C5.44239342,28.4455816 5.36431528,28.3239043 5.31223278,28.2027742 C5.26015027,28.0810057 5.30338513,27.9811282 5.44239342,27.9027767 C5.58140171,27.8247902 5.83287537,27.7861161 6.19763531,27.7861161 L6.7182779,27.8641027 C7.0656162,27.9334241 7.49504601,28.1415707 8.00747945,28.4889986 C8.51954804,28.8361529 8.94049506,29.2874718 9.27041171,29.8428639 C9.66992372,30.5548677 10.1512536,31.097034 10.7157696,31.4703662 C11.2798294,31.8440633 11.8485412,32.0306838 12.4213575,32.0306838 C12.9941738,32.0306838 13.4889119,31.9872668 13.9057544,31.9007974 C14.3221408,31.8137808 14.7128051,31.6832559 15.0775651,31.5096788 C15.2338126,30.3466298 15.659229,29.4520189 16.3534496,28.8271229 C15.3639732,28.7228672 14.4742837,28.5668028 13.6841073,28.3582913 C12.894387,28.1497798 12.0783062,27.8114731 11.2364121,27.3425503 C10.3941533,26.8737188 9.6954633,26.2925135 9.13988621,25.5976577 C8.58440033,24.9028018 8.12851882,23.9914078 7.77288016,22.8632932 C7.41705907,21.7345401 7.23910292,20.432301 7.23910292,18.9567585 C7.23910292,16.8562288 7.9251143,15.0677366 9.29658978,13.592194 C8.6540869,12.0123958 8.71474341,10.2417812 9.47874172,8.27980307 C9.98223631,8.12346507 10.7289042,8.24076418 11.7183805,8.63142677 C12.7080393,9.02236299 13.4326337,9.35665634 13.8928934,9.63403316 C14.3531531,9.9115012 14.7219264,10.1460994 14.9997606,10.3372805 C16.614683,9.88587052 18.2812318,9.66021111 19.9998632,9.66021111 C21.7184033,9.66021111 23.3852258,9.88587052 25.0002394,10.3372805 L25.989807,9.71229338 C26.6671531,9.29545284 27.4656299,8.91354663 28.3858757,8.56648356 C29.3060303,8.21932927 30.0090073,8.1237387 30.4953538,8.28007671 C31.2763177,10.2420548 31.3461867,12.0126694 30.7032278,13.5923765 C32.0747033,15.0681014 32.7608971,16.8565024 32.7608971,18.9570321 C32.7608971,20.4328483 32.5829409,21.7394655 32.2271198,22.8763365 C31.8715724,24.0134812 31.4117687,24.9252401 30.8470704,25.6109747 C30.2830105,26.2968005 29.5797599,26.8736275 28.7378658,27.3427328 C27.8957894,27.8112907 27.0797998,28.1502359 26.2897146,28.3581089 C25.4997207,28.5666204 24.6101223,28.7233232 23.6205548,28.827579 C24.5227405,29.6085393 24.9740614,30.8408184 24.9740614,32.5251461 L24.9740614,38.749296 C24.9740614,39.0445504 25.0171138,39.2830708 25.1039484,39.4654043 C25.1913302,39.6476466 25.3299737,39.7731548 25.520882,39.8431147 C25.7126113,39.9124361 25.8810813,39.955762 26.0290285,39.9730011 C26.1769756,39.9904227 26.3892278,39.9991791 26.6670619,39.9991791 L32.5003934,39.9991791 C34.5661806,39.9991791 36.3329723,39.2656492 37.7994003,37.7985894 C39.2664668,36.3315296 40,34.564746 40,32.4989682 L40,7.49993729 C39.9998176,5.43406828 39.2662843,3.66710221 37.7994915,2.20031605 Z"
					id="Shape" fill="#FFFFFF"></path>
				<path
					d="M8.12678832,29.0992531 C7.93356818,29.2360145 7.96115032,29.4557272 8.20982507,29.7578142 C8.48651748,30.0322026 8.70731976,30.0736061 8.87324811,29.8811591 C9.06646825,29.7443977 9.03888611,29.524685 8.78977584,29.222021 C8.51366411,28.9753311 8.29271666,28.9339276 8.12678832,29.0992531 Z"
					id="Shape" fill="#000000"></path>
				<path
					d="M7.03229473,28.0910742 C6.9389175,28.2267341 7.04802142,28.3428834 7.35977033,28.4392172 C7.60894011,28.5362623 7.81224037,28.5171582 7.96770527,28.3814982 C8.0610825,28.2458383 7.95197858,28.129689 7.64022967,28.0326438 C7.32848076,27.9745184 7.12583578,27.994029 7.03229473,28.0910742 Z"
					id="Shape" fill="#000000"></path>
				<path
					d="M9.17323816,30.0837612 C8.94225395,30.1968933 8.94225395,30.4019153 9.17323816,30.6967985 C9.403953,30.9925171 9.62146874,31.0717572 9.82686286,30.935235 C10.0577124,30.7760387 10.0577124,30.5602763 9.82686286,30.2875899 C9.62200747,29.9930647 9.403953,29.9240875 9.17323816,30.0837612 Z"
					id="Shape" fill="#000000"></path>
				<path
					d="M10.1193897,31.1295866 C9.92499561,31.3095354 9.96786666,31.5219126 10.2489102,31.7696665 C10.5076108,32.0384105 10.7235539,32.072254 10.8962856,31.8697822 C11.0691308,31.6906589 11.0259195,31.477574 10.7667652,31.2306456 C10.5080645,30.9617837 10.2921215,30.9278222 10.1193897,31.1295866 Z"
					id="Shape" fill="#000000"></path>
			</g>
		</g>
	</g>
</svg>
