<svg width="64" height="64" viewBox="0 0 64 64" version="1.1" xmlns="http://www.w3.org/2000/svg"
	 xmlns:xlink="http://www.w3.org/1999/xlink">
	<title>Frame 77</title>
	<desc>Created using Figma</desc>
	<g id="Canvas" transform="translate(-30429 -43385)">
		<clipPath id="clip-0" clip-rule="evenodd">
			<path d="M 30429 43385L 30493 43385L 30493 43449L 30429 43449L 30429 43385Z" fill="#FFFFFF"/>
		</clipPath>
		<g id="Frame 77" clip-path="url(#clip-0)">
			<g id="Group">
				<g id="Oval">
					<use xlink:href="#path0_fill" transform="translate(30429 43385)" fill="#2E2D46"/>
				</g>
				<g id="Oval">
					<use xlink:href="#path1_fill" transform="translate(30431.8 43387.8)" fill="#FFFFFF"/>
				</g>
				<g id="Shape" opacity="0.694577">
					<use xlink:href="#path2_fill" transform="translate(30459.8 43391.3)" fill="#2E2D46"/>
				</g>
				<g id="Shape" opacity="0.694577">
					<use xlink:href="#path3_fill" transform="translate(30459.8 43438)" fill="#2E2D46"/>
				</g>
				<g id="Shape" opacity="0.694577">
					<use xlink:href="#path4_fill" transform="translate(30482 43415.8)" fill="#2E2D46"/>
				</g>
				<g id="Shape" opacity="0.694577">
					<use xlink:href="#path5_fill" transform="translate(30435.3 43415.8)" fill="#2E2D46"/>
				</g>
				<g id="Shape">
					<use xlink:href="#path6_fill"
						 transform="matrix(-0.705865 0.708346 -0.708346 -0.705865 30476.4 43426.1)" fill="#BEC3CC"/>
				</g>
				<g id="Shape">
					<use xlink:href="#path7_fill"
						 transform="matrix(-0.705865 0.708346 -0.708346 -0.705865 30476.4 43407.8)" fill="#FF615C"/>
				</g>
			</g>
		</g>
	</g>
	<defs>
		<path id="path0_fill"
			  d="M 32 64C 49.6731 64 64 49.6731 64 32C 64 14.3269 49.6731 0 32 0C 14.3269 0 0 14.3269 0 32C 0 49.6731 14.3269 64 32 64Z"/>
		<path id="path1_fill"
			  d="M 29.2248 58.4497C 45.3653 58.4497 58.4497 45.3653 58.4497 29.2248C 58.4497 13.0844 45.3653 0 29.2248 0C 13.0844 0 0 13.0844 0 29.2248C 0 45.3653 13.0844 58.4497 29.2248 58.4497Z"/>
		<path id="path2_fill"
			  d="M 1.16905 4.67608C 0.523443 4.67608 0 4.15264 0 3.50702L 0 1.16905C 0 0.523443 0.523443 0 1.16905 0C 1.81467 0 2.33811 0.523443 2.33811 1.16905L 2.33811 3.50702C 2.33811 4.15264 1.81467 4.67608 1.16905 4.67608Z"/>
		<path id="path3_fill"
			  d="M 1.16905 4.67608C 0.523443 4.67608 0 4.15264 0 3.50702L 0 1.16905C 0 0.523443 0.523443 0 1.16905 0C 1.81467 0 2.33811 0.523443 2.33811 1.16905L 2.33811 3.50702C 2.33811 4.15277 1.81467 4.67608 1.16905 4.67608Z"/>
		<path id="path4_fill"
			  d="M 3.50702 2.33811L 1.16905 2.33811C 0.523443 2.33811 0 1.81467 0 1.16905C 0 0.523443 0.523443 0 1.16905 0L 3.50702 0C 4.15264 0 4.67608 0.523443 4.67608 1.16905C 4.67594 1.81467 4.15264 2.33811 3.50702 2.33811Z"/>
		<path id="path5_fill"
			  d="M 3.50702 2.33811L 1.16905 2.33811C 0.523443 2.33811 0 1.81467 0 1.16905C 0 0.523443 0.523443 0 1.16905 0L 3.50702 0C 4.15264 0 4.67608 0.523443 4.67608 1.16905C 4.67608 1.81467 4.15264 2.33811 3.50702 2.33811Z"/>
		<path id="path6_fill" d="M 0 12.9502L 2.20417 19.563L 8.81694 21.7671L 21.7671 0L 0 12.9502Z"/>
		<path id="path7_fill" d="M 0 21.7671L 21.7671 8.81694L 12.9502 0L 0 21.7671Z"/>
	</defs>
</svg>
