<svg width="12" height="12" viewBox="0 0 12 12" version="1.1" xmlns="http://www.w3.org/2000/svg" xmlns:xlink="http://www.w3.org/1999/xlink">
<title>Vector</title>
<desc>Created using Figma</desc>
<g id="Canvas" transform="translate(-21832 -4094)">
<g id="Vector">
<use xlink:href="#path0_fill" transform="translate(21832 4094)" fill="#FFFFFF"/>
<mask id="mask0_outline_ins">
<use xlink:href="#path0_fill" fill="white" transform="translate(21832 4094)"/>
</mask>
<g mask="url(#mask0_outline_ins)">
<use xlink:href="#path1_stroke_2x" transform="translate(21832 4094)" fill="#FFFFFF"/>
</g>
</g>
</g>
<defs>
<path id="path0_fill" d="M 10.8752 3.10817L 10.0817 3.90169L 8.09795 1.91543L 8.89147 1.12191C 9.05311 0.960262 9.33475 0.960262 9.4964 1.12191L 10.8752 2.50323C 11.0418 2.66977 11.0418 2.94162 10.8752 3.10817ZM 4.2455 9.74536L 2.26172 7.7591L 7.39016 2.62323L 9.37394 4.60949L 4.2455 9.74536ZM 1.80373 8.71672L 3.2879 10.2034L 1.22085 10.7862L 1.80373 8.71672ZM 11.583 1.79542L 10.2042 0.414101C 9.93479 0.144695 8.96249 -0.364728 8.18612 0.414101L 1.1988 7.40642C 1.13758 7.46765 1.09349 7.54113 1.07145 7.6244L 0.0183318 11.374C -0.0306505 11.5479 0.0207809 11.7341 0.145686 11.8639C 0.273039 11.9937 0.527747 12.0157 0.635508 11.9912L 4.38265 10.9356C 4.46592 10.9136 4.53939 10.8695 4.60062 10.8083L 11.583 3.81597C 12.139 3.26001 12.139 2.35383 11.583 1.79542Z"/>
<path id="path1_stroke_2x" d="M 10.8752 3.10817L 10.3449 2.57784L 10.3449 2.57784L 10.8752 3.10817ZM 10.0817 3.90169L 9.55107 4.43169L 10.0814 4.96269L 10.6121 4.43202L 10.0817 3.90169ZM 8.09795 1.91543L 7.56762 1.3851L 7.03763 1.9151L 7.56729 2.44543L 8.09795 1.91543ZM 8.89147 1.12191L 8.36113 0.591579L 8.89147 1.12191ZM 9.4964 1.12191L 10.0272 0.59205L 10.0267 0.591579L 9.4964 1.12191ZM 10.8752 2.50323L 10.3444 3.03308L 10.3449 3.03355L 10.8752 2.50323ZM 2.26172 7.7591L 1.731 7.22915L 1.20177 7.75915L 1.73106 8.2891L 2.26172 7.7591ZM 7.39016 2.62323L 7.92082 2.09324L 7.39011 1.56186L 6.85945 2.09329L 7.39016 2.62323ZM 9.37394 4.60949L 9.90465 5.13944L 10.4339 4.60944L 9.9046 4.0795L 9.37394 4.60949ZM 1.80373 8.71672L 2.33451 8.18683L 1.4292 7.28002L 1.08182 8.51339L 1.80373 8.71672ZM 3.2879 10.2034L 3.49145 10.9252L 4.72192 10.5782L 3.81867 9.67346L 3.2879 10.2034ZM 1.22085 10.7862L 0.498933 10.5829L 0.136026 11.8714L 1.4244 11.5081L 1.22085 10.7862ZM 10.2042 0.414101L 10.735 -0.115754L 10.7345 -0.116225L 10.2042 0.414101ZM 8.18612 0.414101L 8.71664 0.944242L 8.71729 0.943592L 8.18612 0.414101ZM 1.1988 7.40642L 1.72914 7.93675L 1.72932 7.93656L 1.1988 7.40642ZM 1.07145 7.6244L 1.79359 7.82722L 1.79648 7.81631L 1.07145 7.6244ZM 0.0183318 11.374L 0.740238 11.5774L 0.740394 11.5768L 0.0183318 11.374ZM 0.145686 11.8639L -0.394773 12.3839L -0.389675 12.3891L 0.145686 11.8639ZM 0.635508 11.9912L 0.801726 12.7226L 0.820419 12.7183L 0.838871 12.7131L 0.635508 11.9912ZM 4.38265 10.9356L 4.1907 10.2105L 4.17929 10.2137L 4.38265 10.9356ZM 4.60062 10.8083L 5.13095 11.3386L 5.13133 11.3382L 4.60062 10.8083ZM 11.583 3.81597L 11.0527 3.28564L 11.0523 3.28602L 11.583 3.81597ZM 10.3449 2.57784L 9.5514 3.37136L 10.6121 4.43202L 11.4056 3.63849L 10.3449 2.57784ZM 10.6124 3.37169L 8.62861 1.38543L 7.56729 2.44543L 9.55107 4.43169L 10.6124 3.37169ZM 8.62829 2.44576L 9.4218 1.65223L 8.36113 0.591579L 7.56762 1.3851L 8.62829 2.44576ZM 9.4218 1.65223C 9.34712 1.72691 9.25999 1.75067 9.19393 1.75067C 9.12787 1.75067 9.04074 1.72691 8.96606 1.65223L 10.0267 0.591579C 9.57219 0.137037 8.81567 0.137037 8.36113 0.591579L 9.4218 1.65223ZM 8.96559 1.65176L 10.3444 3.03308L 11.406 1.97337L 10.0272 0.59205L 8.96559 1.65176ZM 10.3449 3.03355C 10.2186 2.9072 10.2186 2.70419 10.3449 2.57784L 11.4056 3.63849C 11.865 3.17906 11.865 2.43233 11.4056 1.9729L 10.3449 3.03355ZM 4.77616 9.21536L 2.79238 7.2291L 1.73106 8.2891L 3.71484 10.2754L 4.77616 9.21536ZM 2.79243 8.28905L 7.92087 3.15318L 6.85945 2.09329L 1.731 7.22915L 2.79243 8.28905ZM 6.8595 3.15323L 8.84328 5.13949L 9.9046 4.0795L 7.92082 2.09324L 6.8595 3.15323ZM 8.84323 4.07955L 3.71479 9.21541L 4.77621 10.2753L 9.90465 5.13944L 8.84323 4.07955ZM 1.27296 9.24661L 2.75712 10.7332L 3.81867 9.67346L 2.33451 8.18683L 1.27296 9.24661ZM 3.08434 9.4815L 1.01729 10.0644L 1.4244 11.5081L 3.49145 10.9252L 3.08434 9.4815ZM 1.94276 10.9896L 2.52565 8.92005L 1.08182 8.51339L 0.498933 10.5829L 1.94276 10.9896ZM 12.1138 1.26557L 10.735 -0.115754L 9.67338 0.943957L 11.0522 2.32528L 12.1138 1.26557ZM 10.7345 -0.116225C 10.492 -0.35871 10.0411 -0.628065 9.51122 -0.718336C 8.93726 -0.816113 8.24185 -0.704152 7.65495 -0.115389L 8.71729 0.943592C 8.90676 0.753525 9.08569 0.730783 9.25932 0.760361C 9.3758 0.77669 9.43707 0.802116 9.53813 0.856206C 9.58462 0.879842 9.60406 0.891985 9.63829 0.916705C 9.66777 0.936848 9.68372 0.955318 9.67385 0.944427L 10.7345 -0.116225ZM 7.6556 -0.116039L 0.668284 6.87628L 1.72932 7.93656L 8.71664 0.944242L 7.6556 -0.116039ZM 0.66847 6.8761C 0.546419 7.0061 0.402577 7.24934 0.34642 7.43248L 1.79648 7.81631C 1.78213 7.87053 1.75436 7.91153 1.72914 7.93675L 0.66847 6.8761ZM 0.349388 7.4216L -0.70373 11.1712L 0.740394 11.5768L 1.79351 7.82719L 0.349388 7.4216ZM -0.703574 11.1707C -0.828684 11.6148 -0.69392 12.073 -0.394747 12.3839L 0.686118 11.3438C 0.735482 11.3951 0.767383 11.481 0.740238 11.5774L -0.703574 11.1707ZM -0.389675 12.3891C -0.1773 12.6056 0.0854171 12.6877 0.250389 12.7208C 0.41659 12.7541 0.618112 12.7643 0.801726 12.7226L 0.46929 11.2599C 0.496795 11.2536 0.516385 11.2516 0.525313 11.2508C 0.535282 11.25 0.54127 11.25 0.543314 11.25C 0.553548 11.2495 0.535906 11.2472 0.545499 11.2501C 0.551264 11.251 0.549434 11.2507 0.551931 11.2518C 0.555854 11.253 0.563241 11.2556 0.573454 11.2603C 0.591579 11.2686 0.634075 11.2907 0.681046 11.3386L -0.389675 12.3891ZM 0.838871 12.7131L 4.58601 11.6575L 4.17929 10.2137L 0.432145 11.2693L 0.838871 12.7131ZM 4.57457 11.6607C 4.75771 11.6045 5.00096 11.4607 5.13095 11.3386L 4.07029 10.278C 4.09551 10.2527 4.1365 10.225 4.19073 10.2106L 4.57457 11.6607ZM 5.13133 11.3382L 12.1137 4.34592L 11.0523 3.28602L 4.06991 10.2783L 5.13133 11.3382ZM 12.1134 4.3463C 12.9629 3.4968 12.9612 2.11665 12.1145 1.26626L 11.0515 2.32458C 11.3168 2.59101 11.3151 3.02322 11.0527 3.28564L 12.1134 4.3463Z"/>
</defs>
</svg>
