<svg width="14" height="10" viewBox="0 0 14 10" version="1.1" xmlns="http://www.w3.org/2000/svg"
	 xmlns:xlink="http://www.w3.org/1999/xlink">
	<title>Vector</title>
	<desc>Created using Figma</desc>
	<g id="Canvas" transform="translate(-21812 -4095)">
		<g id="Vector">
			<mask id="mask0_outline_ins">
				<use xlink:href="#path0_fill" fill="white" transform="translate(21812.9 4095.62)"/>
			</mask>
			<g mask="url(#mask0_outline_ins)">
				<use xlink:href="#path1_stroke_2x" transform="translate(21812.9 4095.62)" fill="#FFFFFF"/>
			</g>
		</g>
	</g>
	<defs>
		<path id="path0_fill"
			  d="M 6.41667 0C 3.5 0 1.00917 1.81417 0 4.375C 1.00917 6.93583 3.5 8.75 6.41667 8.75C 9.33333 8.75 11.8242 6.93583 12.8333 4.375C 11.8242 1.81417 9.33333 0 6.41667 0ZM 6.41667 7.29167C 4.80667 7.29167 3.5 5.985 3.5 4.375C 3.5 2.765 4.80667 1.45833 6.41667 1.45833C 8.02667 1.45833 9.33333 2.765 9.33333 4.375C 9.33333 5.985 8.02667 7.29167 6.41667 7.29167ZM 6.41667 2.625C 5.44833 2.625 4.66667 3.40667 4.66667 4.375C 4.66667 5.34333 5.44833 6.125 6.41667 6.125C 7.385 6.125 8.16667 5.34333 8.16667 4.375C 8.16667 3.40667 7.385 2.625 6.41667 2.625Z"/>
		<path id="path1_stroke_2x"
			  d="M 0 4.375L -0.697773 4.10002L -0.806136 4.375L -0.697773 4.64998L 0 4.375ZM 12.8333 4.375L 13.5311 4.64998L 13.6395 4.375L 13.5311 4.10002L 12.8333 4.375ZM 6.41667 -0.75C 3.18046 -0.75 0.420084 1.26338 -0.697773 4.10002L 0.697773 4.64998C 1.59825 2.36495 3.81954 0.75 6.41667 0.75L 6.41667 -0.75ZM -0.697773 4.64998C 0.420084 7.48662 3.18046 9.5 6.41667 9.5L 6.41667 8C 3.81954 8 1.59825 6.38505 0.697773 4.10002L -0.697773 4.64998ZM 6.41667 9.5C 9.65287 9.5 12.4133 7.48662 13.5311 4.64998L 12.1356 4.10002C 11.2351 6.38505 9.01379 8 6.41667 8L 6.41667 9.5ZM 13.5311 4.10002C 12.4133 1.26338 9.65287 -0.75 6.41667 -0.75L 6.41667 0.75C 9.01379 0.75 11.2351 2.36495 12.1356 4.64998L 13.5311 4.10002ZM 6.41667 6.54167C 5.22088 6.54167 4.25 5.57079 4.25 4.375L 2.75 4.375C 2.75 6.39921 4.39245 8.04167 6.41667 8.04167L 6.41667 6.54167ZM 4.25 4.375C 4.25 3.17921 5.22088 2.20833 6.41667 2.20833L 6.41667 0.708333C 4.39245 0.708333 2.75 2.35079 2.75 4.375L 4.25 4.375ZM 6.41667 2.20833C 7.61245 2.20833 8.58333 3.17921 8.58333 4.375L 10.0833 4.375C 10.0833 2.35079 8.44088 0.708333 6.41667 0.708333L 6.41667 2.20833ZM 8.58333 4.375C 8.58333 5.57079 7.61245 6.54167 6.41667 6.54167L 6.41667 8.04167C 8.44088 8.04167 10.0833 6.39921 10.0833 4.375L 8.58333 4.375ZM 6.41667 1.875C 5.03412 1.875 3.91667 2.99245 3.91667 4.375L 5.41667 4.375C 5.41667 3.82088 5.86255 3.375 6.41667 3.375L 6.41667 1.875ZM 3.91667 4.375C 3.91667 5.75755 5.03412 6.875 6.41667 6.875L 6.41667 5.375C 5.86255 5.375 5.41667 4.92912 5.41667 4.375L 3.91667 4.375ZM 6.41667 6.875C 7.79921 6.875 8.91667 5.75755 8.91667 4.375L 7.41667 4.375C 7.41667 4.92912 6.97079 5.375 6.41667 5.375L 6.41667 6.875ZM 8.91667 4.375C 8.91667 2.99245 7.79921 1.875 6.41667 1.875L 6.41667 3.375C 6.97079 3.375 7.41667 3.82088 7.41667 4.375L 8.91667 4.375Z"/>
	</defs>
</svg>
