<?xml version="1.0" encoding="UTF-8"?>
<svg width="50px" height="64px" viewBox="0 0 50 64" version="1.1" xmlns="http://www.w3.org/2000/svg" xmlns:xlink="http://www.w3.org/1999/xlink">
    <!-- Generator: Sketch 45.2 (43514) - http://www.bohemiancoding.com/sketch -->
    <title>logo</title>
    <desc>Created with Sketch.</desc>
    <defs>
        <filter x="-8.7%" y="-7.7%" width="119.6%" height="123.7%" filterUnits="objectBoundingBox" id="filter-1">
            <feOffset dx="0" dy="2" in="SourceAlpha" result="shadowOffsetOuter1"></feOffset>
            <feGaussianBlur stdDeviation="1" in="shadowOffsetOuter1" result="shadowBlurOuter1"></feGaussianBlur>
            <feColorMatrix values="0 0 0 0 0   0 0 0 0 0   0 0 0 0 0  0 0 0 0.5 0" type="matrix" in="shadowBlurOuter1" result="shadowMatrixOuter1"></feColorMatrix>
            <feMerge>
                <feMergeNode in="shadowMatrixOuter1"></feMergeNode>
                <feMergeNode in="SourceGraphic"></feMergeNode>
            </feMerge>
        </filter>
    </defs>
    <g id="Draft" stroke="none" stroke-width="1" fill="none" fill-rule="evenodd">
        <g id="logo">
            <g id="Group-2" transform="translate(2.000000, 3.000000)">
                <g id="Group" filter="url(#filter-1)">
                    <path d="M24.5755271,32.4186803 L44.4068393,26.4589482 C45.4351483,24.2495813 46,21.8426911 46,19.3241146 C46,9.38454054 37.2024912,1.18446771 25.8398179,-4.60903538e-12 L20.1601821,1.26028977e-30 C8.79750882,1.18446771 0,9.38454054 0,19.3241146 C0,26.6012464 4.71568341,32.9459623 11.7012058,36.2876884 L22.0493054,33.1778638 C20.5172258,31.4677867 19.3951435,25.9320466 19.3951435,19.3670971 C19.3951435,11.4384143 21.0318244,5.01094686 23.0507726,5.01094686 C25.0697209,5.01094686 26.7064018,11.4384143 26.7064018,19.3670971 C26.7064018,25.1585686 25.8331494,30.1490654 24.5755271,32.4186803 Z" id="4" fill="#E38EF1" opacity="0.319463315"></path>
                    <path d="M26.4354706,13.9333204 L39.6993094,5.93507092 C36.1203912,2.73707627 31.2733934,0.566406739 25.8398179,-4.60900762e-12 L20.1601821,0 C8.79750882,1.18446771 0,9.38454054 0,19.3241146 C0,22.5660043 0.93588099,25.6228455 2.59139959,28.3115733 L19.407647,18.17118 C19.562396,10.8020471 21.1343743,5.01094686 23.0507726,5.01094686 C24.5800525,5.01094686 25.8900061,8.69871397 26.4354706,13.9333204 Z" id="3" fill="#E38EF1" opacity="0.290421196"></path>
                    <path d="M23.6710341,5.21674944 L34.0445964,2.24073033 C31.5539674,1.08426866 28.7829407,0.306796982 25.8398179,-4.60913252e-12 L20.1601821,0 C12.0033315,0.850286366 5.16838264,5.31591249 1.96090083,11.4450604 L21.9118012,5.72144692 C22.2702352,5.26032999 22.653088,5.01094686 23.0507726,5.01094686 C23.2621988,5.01094686 23.4694328,5.08143352 23.6710341,5.21674944 Z" id="2" fill="#FFFFFF" opacity="0.41259058"></path>
                    <path d="M20.7914139,8.08039143 L7.86918629,4.65933499 C3.04638012,8.22850952 0,13.4751369 0,19.3241146 C0,30.0776875 10.2974508,38.7951807 23,38.7951807 C35.7025492,38.7951807 46,30.0776875 46,19.3241146 C46,17.6846881 45.760664,16.0925846 45.3099575,14.5714791 L25.6752067,9.37333654 C26.3134863,11.9578926 26.7064018,15.4822976 26.7064018,19.3670971 C26.7064018,27.29578 25.0697209,33.7232474 23.0507726,33.7232474 C21.0318244,33.7232474 19.3951435,27.29578 19.3951435,19.3670971 C19.3951435,14.7876718 19.9411325,10.7090447 20.7914139,8.08039143 Z" id="1" fill="#E38EF1" opacity="0.391870471"></path>
                </g>
                <path d="M8.04968539,51.8954402 L6.17576549,47.0399056 C6.12024166,46.8955436 6.06194251,46.7275865 6.00086629,46.5360293 C5.93979008,46.3444721 5.88149093,46.1404251 5.8259671,45.9238821 C5.70936706,46.3736252 5.58999261,46.7484054 5.46784019,47.0482341 L3.59392028,51.8954402 L8.04968539,51.8954402 Z M11.4144127,56.3262198 L10.1651328,56.3262198 C10.0207708,56.3262198 9.9041725,56.2901298 9.81533437,56.2179488 C9.72649624,56.1457679 9.65986865,56.0541549 9.61544958,55.9431072 L8.49942617,53.0614349 L3.1441795,53.0614349 L2.02815609,55.9431072 C1.99484179,56.0430501 1.93099035,56.1318869 1.83659983,56.2096203 C1.74220932,56.2873537 1.62561103,56.3262198 1.48680145,56.3262198 L0.237521515,56.3262198 L5.00977088,44.3914321 L6.64216333,44.3914321 L11.4144127,56.3262198 Z M13.9425095,49.1137103 C14.1257381,48.9082721 14.3200686,48.72227 14.5255068,48.5556985 C14.730945,48.3891271 14.9488727,48.2461553 15.1792966,48.1267791 C15.4097205,48.0074029 15.6540217,47.9157899 15.9122075,47.8519375 C16.1703934,47.7880851 16.4493964,47.7561594 16.7492251,47.7561594 C17.2100729,47.7561594 17.6167788,47.8325035 17.9693552,47.985194 C18.3219315,48.1378846 18.6162034,48.3544243 18.8521797,48.6348196 C19.0881559,48.915215 19.2672176,49.2525172 19.38937,49.6467364 C19.5115225,50.0409556 19.5725978,50.4768111 19.5725978,50.954316 L19.5725978,56.3262198 L18.0817904,56.3262198 L18.0817904,50.954316 C18.0817904,50.315792 17.9360425,49.8202492 17.6445424,49.4676729 C17.3530423,49.1150966 16.9102464,48.9388111 16.3161414,48.9388111 C15.8775031,48.9388111 15.468021,49.0443048 15.0876828,49.2552953 C14.7073445,49.4662859 14.3561616,49.7522293 14.0341234,50.1131342 L14.0341234,56.3262198 L12.543316,56.3262198 L12.543316,47.8894159 L13.434469,47.8894159 C13.6454596,47.8894159 13.7759386,47.9921335 13.82591,48.1975716 L13.9425095,49.1137103 Z M28.0722527,46.2570235 C28.0222812,46.3403092 27.9681463,46.4027726 27.9098463,46.4444155 C27.8515463,46.4860583 27.7807544,46.5068794 27.6974687,46.5068794 C27.6030782,46.5068794 27.4920322,46.4596849 27.3643274,46.3652944 C27.2366226,46.2709039 27.0769939,46.1667983 26.8854367,46.0529744 C26.6938795,45.9391506 26.4634591,45.8350449 26.1941685,45.7406544 C25.9248779,45.6462639 25.5986803,45.5990694 25.2155659,45.5990694 C24.854661,45.5990694 24.5367918,45.647652 24.2619489,45.7448187 C23.9871059,45.8419854 23.7566855,45.9738525 23.5706806,46.140424 C23.3846758,46.3069955 23.2444802,46.5027141 23.1500897,46.7275856 C23.0556992,46.9524571 23.0085047,47.1953702 23.0085047,47.4563322 C23.0085047,47.7894752 23.0904011,48.0657021 23.2541964,48.2850212 C23.4179917,48.5043404 23.6345314,48.6917305 23.9038219,48.8471972 C24.1731125,49.0026639 24.478489,49.1373072 24.8199606,49.251131 C25.1614321,49.3649549 25.511227,49.4829413 25.8693557,49.6050937 C26.2274844,49.7272461 26.5772793,49.8646655 26.9187509,50.0173561 C27.2602224,50.1700466 27.5655989,50.362989 27.8348895,50.5961891 C28.1041801,50.8293892 28.3207198,51.1153326 28.4845151,51.454028 C28.6483104,51.7927234 28.7302068,52.2091458 28.7302068,52.7033079 C28.7302068,53.2252319 28.64137,53.7152224 28.4636937,54.173294 C28.2860175,54.6313656 28.0264475,55.0297431 27.6849759,55.3684385 C27.3435043,55.7071338 26.9243057,55.9736442 26.4273674,56.1679776 C25.9304291,56.362311 25.3654826,56.4594763 24.732511,56.4594763 C23.9551773,56.4594763 23.2500353,56.3192807 22.6170636,56.0388854 C21.9840919,55.75849 21.4427427,55.3795456 20.9929997,54.9020406 L21.4593975,54.1358156 C21.5038166,54.0747394 21.5579515,54.0233806 21.6218039,53.9817377 C21.6856563,53.9400949 21.7564482,53.9192737 21.8341815,53.9192737 C21.9063625,53.9192737 21.9882589,53.9484233 22.0798732,54.0067233 C22.1714876,54.0650234 22.2755932,54.1385913 22.3921932,54.2274295 C22.5087933,54.3162676 22.6420485,54.4134328 22.7919628,54.5189281 C22.9418771,54.6244234 23.1126104,54.7215886 23.3041676,54.8104268 C23.4957248,54.8992649 23.7136526,54.9728329 23.9579574,55.0311329 C24.2022623,55.0894329 24.4771011,55.1185825 24.7824822,55.1185825 C25.1655966,55.1185825 25.507063,55.0658356 25.8068917,54.9603404 C26.1067204,54.8548451 26.3607381,54.7063211 26.5689525,54.5147638 C26.7771668,54.3232066 26.9367955,54.0941743 27.0478431,53.8276599 C27.1588908,53.5611455 27.2144138,53.2640975 27.2144138,52.9365069 C27.2144138,52.575602 27.1325174,52.279942 26.9687221,52.0495181 C26.8049268,51.8190942 26.5897751,51.6261518 26.3232608,51.4706851 C26.0567464,51.3152183 25.7513699,51.1833512 25.4071221,51.0750798 C25.0628744,50.9668083 24.7130795,50.8557623 24.357727,50.7419384 C24.0023745,50.6281146 23.6525796,50.4962475 23.3083318,50.3463331 C22.9640841,50.1964188 22.6587076,50.0020883 22.3921932,49.7633358 C22.1256788,49.5245833 21.9105272,49.2261472 21.7467319,48.8680185 C21.5829366,48.5098898 21.5010402,48.0670939 21.5010402,47.5396175 C21.5010402,47.1176364 21.5829366,46.7095424 21.7467319,46.3153232 C21.9105272,45.921104 22.1492761,45.5713091 22.4629858,45.265928 C22.7766954,44.960547 23.1625802,44.7162458 23.6206518,44.5330171 C24.0787234,44.3497885 24.6048038,44.2581756 25.1989088,44.2581756 C25.8651948,44.2581756 26.4717835,44.3636693 27.0186933,44.5746598 C27.565603,44.7856504 28.047265,45.0910269 28.4636937,45.4907984 L28.0722527,46.2570235 Z M37.438075,47.8894159 L32.7324539,58.8164511 C32.6824825,58.9274988 32.6200191,59.0163356 32.5450619,59.0829642 C32.4701048,59.1495928 32.3548945,59.1829065 32.1994278,59.1829065 L31.1000615,59.1829065 L32.6408401,55.8348363 L29.1595133,47.8894159 L30.4421074,47.8894159 C30.5698122,47.8894159 30.6711416,47.9213416 30.7460988,47.985194 C30.821056,48.0490464 30.8724148,48.1198383 30.9001767,48.1975716 L33.1572091,53.5111756 C33.2460472,53.7443757 33.3210033,53.9886769 33.3820795,54.2440865 C33.4598128,53.9831245 33.5430973,53.7360472 33.6319355,53.5028471 L35.8223396,48.1975716 C35.8556539,48.1087335 35.912565,48.0351655 35.9930746,47.9768655 C36.0735841,47.9185655 36.163809,47.8894159 36.2637519,47.8894159 L37.438075,47.8894159 Z M40.0827713,49.1137103 C40.2659999,48.9082721 40.4603304,48.72227 40.6657686,48.5556985 C40.8712068,48.3891271 41.0891345,48.2461553 41.3195584,48.1267791 C41.5499823,48.0074029 41.7942835,47.9157899 42.0524693,47.8519375 C42.3106551,47.7880851 42.5896582,47.7561594 42.8894869,47.7561594 C43.3503347,47.7561594 43.7570406,47.8325035 44.109617,47.985194 C44.4621933,48.1378846 44.7564652,48.3544243 44.9924414,48.6348196 C45.2284177,48.915215 45.4074794,49.2525172 45.5296318,49.6467364 C45.6517842,50.0409556 45.7128595,50.4768111 45.7128595,50.954316 L45.7128595,56.3262198 L44.2220522,56.3262198 L44.2220522,50.954316 C44.2220522,50.315792 44.0763043,49.8202492 43.7848042,49.4676729 C43.4933041,49.1150966 43.0505082,48.9388111 42.4564032,48.9388111 C42.0177649,48.9388111 41.6082828,49.0443048 41.2279446,49.2552953 C40.8476063,49.4662859 40.4964234,49.7522293 40.1743852,50.1131342 L40.1743852,56.3262198 L38.6835778,56.3262198 L38.6835778,47.8894159 L39.5747308,47.8894159 C39.7857213,47.8894159 39.9162004,47.9921335 39.9661718,48.1975716 L40.0827713,49.1137103 Z" id="AnSyn" fill="#FFFFFF"></path>
            </g>
        </g>
    </g>
</svg>