<?xml version="1.0" encoding="iso-8859-1"?>
<!-- Generator: Adobe Illustrator 16.0.0, SVG Export Plug-In . SVG Version: 6.00 Build 0)  -->
<!DOCTYPE svg PUBLIC "-//W3C//DTD SVG 1.1//EN" "http://www.w3.org/Graphics/SVG/1.1/DTD/svg11.dtd">
<svg version="1.1" id="Capa_1" xmlns="http://www.w3.org/2000/svg"  x="0px" y="0px"
	 width="412.649px" height="412.65px" viewBox="0 0 412.649 412.65" style="enable-background:new 0 0 412.649 412.65;"
	 xml:space="preserve">
<g>
	<g>
		<g>
			<path d="M397.648,13.113H281.126c-8.284,0-15,6.716-15,15v6.424c0,8.284,6.716,15,15,15h95.099v95.096c0,8.284,6.717,15,15,15
				h6.425c8.283,0,15-6.716,15-15V28.113C412.648,19.829,405.933,13.113,397.648,13.113z"/>
			<path d="M131.522,13.113H15c-8.284,0-15,6.716-15,15v116.52c0,8.284,6.716,15,15,15h6.424c8.284,0,15-6.716,15-15V49.537h95.098
				c8.284,0,15-6.716,15-15v-6.424C146.522,19.829,139.806,13.113,131.522,13.113z"/>
			<path d="M131.522,363.113H36.424v-95.096c0-8.284-6.716-15-15-15H15c-8.284,0-15,6.716-15,15v116.52c0,8.284,6.716,15,15,15
				h116.521c8.284,0,15-6.716,15-15v-6.424C146.522,369.829,139.806,363.113,131.522,363.113z"/>
			<path d="M397.648,253.017h-6.425c-8.283,0-15,6.716-15,15v95.096h-95.099c-8.284,0-15,6.716-15,15v6.424c0,8.284,6.716,15,15,15
				h116.521c8.283,0,15-6.716,15-15v-116.52C412.648,259.733,405.933,253.017,397.648,253.017z"/>
			<path d="M246.324,188.113h-21.788v-21.788c0-8.284-6.716-15-15-15h-6.424c-8.284,0-15,6.716-15,15v21.788h-21.788
				c-8.284,0-15,6.716-15,15v6.424c0,8.284,6.716,15,15,15h21.788v21.788c0,8.284,6.716,15,15,15h6.424c8.284,0,15-6.716,15-15
				v-21.788h21.788c8.284,0,15-6.716,15-15v-6.424C261.324,194.829,254.608,188.113,246.324,188.113z"/>
		</g>
	</g>
</g>
<g>
</g>
<g>
</g>
<g>
</g>
<g>
</g>
<g>
</g>
<g>
</g>
<g>
</g>
<g>
</g>
<g>
</g>
<g>
</g>
<g>
</g>
<g>
</g>
<g>
</g>
<g>
</g>
<g>
</g>
</svg>
