<?xml version="1.0" encoding="iso-8859-1"?>
<!-- Generator: Adobe Illustrator 16.0.0, SVG Export Plug-In . SVG Version: 6.00 Build 0)  -->
<!DOCTYPE svg PUBLIC "-//W3C//DTD SVG 1.1//EN" "http://www.w3.org/Graphics/SVG/1.1/DTD/svg11.dtd">
<svg version="1.1" id="Capa_1" xmlns="http://www.w3.org/2000/svg" xmlns:xlink="http://www.w3.org/1999/xlink" x="0px" y="0px"
	 width="407.809px" height="407.809px" viewBox="0 0 407.809 407.809" style="enable-background:new 0 0 407.809 407.809;"
	 xml:space="preserve">
<g>
	<g>
		<path d="M397.809,180h-0.371c-10.922-88.953-80.676-158.707-169.63-169.629V10c0-5.522-4.478-10-10-10h-27.809
			c-5.523,0-10,4.478-10,10v0.371C91.047,21.293,21.293,91.047,10.371,180H10c-5.523,0-10,4.478-10,10v27.809
			c0,5.521,4.477,10,10,10h0.371C21.293,316.762,91.047,386.516,180,397.438v0.371c0,5.521,4.477,10,10,10h27.809
			c5.523,0,10-4.479,10-10v-0.371c88.953-10.922,158.707-80.676,169.629-169.629h0.371c5.523,0,10-4.479,10-10V190
			C407.809,184.477,403.33,180,397.809,180z M367.223,227.418l-0.057,0.391c-5.141,35.271-21.271,67.329-46.65,92.707
			c-25.379,25.379-57.438,41.51-92.708,46.65l-0.391,0.057c-1.204-4.17-5.05-7.223-9.609-7.223h-27.809
			c-4.56,0-8.406,3.051-9.609,7.223l-0.391-0.057c-35.271-5.141-67.328-21.271-92.707-46.65
			c-25.379-25.378-41.51-57.436-46.651-92.707l-0.057-0.391c4.172-1.203,7.224-5.051,7.224-9.609V190
			c0-4.56-3.051-8.406-7.224-9.609L40.641,180c5.141-35.271,21.272-67.329,46.651-92.707c25.379-25.378,57.437-41.51,92.707-46.65
			l0.391-0.057c1.204,4.171,5.05,7.223,9.609,7.223h27.809c4.56,0,8.406-3.051,9.609-7.223l0.391,0.057
			c35.271,5.141,67.329,21.271,92.708,46.65c25.379,25.378,41.51,57.436,46.65,92.707l0.057,0.391
			c-4.172,1.203-7.225,5.05-7.225,9.609v27.809C360,222.367,363.051,226.215,367.223,227.418z"/>
		<path d="M217.808,180h-27.809c-5.522,0-10,4.478-10,10v27.809c0,5.521,4.478,10,10,10h27.809c5.522,0,10-4.479,10-10V190
			C227.808,184.477,223.33,180,217.808,180z"/>
	</g>
</g>
<g>
</g>
<g>
</g>
<g>
</g>
<g>
</g>
<g>
</g>
<g>
</g>
<g>
</g>
<g>
</g>
<g>
</g>
<g>
</g>
<g>
</g>
<g>
</g>
<g>
</g>
<g>
</g>
<g>
</g>
</svg>
