<?xml version="1.0" encoding="UTF-8"?>
<svg width="64px" height="64px" viewBox="0 0 64 64" version="1.1" xmlns="http://www.w3.org/2000/svg" xmlns:xlink="http://www.w3.org/1999/xlink">
    <!-- Generator: Sketch 47.1 (45422) - http://www.bohemiancoding.com/sketch -->
    <title>Artboard</title>
    <desc>Created with Sketch.</desc>
    <defs>
        <polygon id="path-1" points="0 0 64 0 64 64 0 64"></polygon>
    </defs>
    <g id="Page-1" stroke="none" stroke-width="1" fill="none" fill-rule="evenodd">
        <g id="Artboard">
            <g id="compass">
                <mask id="mask-2" fill="white">
                    <use xlink:href="#path-1"></use>
                </mask>
                <g id="Shape"></g>
                <g id="Frame-77" mask="url(#mask-2)">
                    <g id="Group">
                        <g id="Oval" fill-rule="nonzero" fill="#2E2D46">
                            <g id="path0_fill-link">
                                <path d="M32,64 C49.6731,64 64,49.6731 64,32 C64,14.3269 49.6731,0 32,0 C14.3269,0 0,14.3269 0,32 C0,49.6731 14.3269,64 32,64 Z" id="path0_fill"></path>
                            </g>
                        </g>
                        <g id="Oval" transform="translate(2.000000, 2.000000)" fill-rule="nonzero" fill="#FFFFFF">
                            <g id="path1_fill-link" transform="translate(0.800000, 0.800000)">
                                <path d="M29.2248,58.4497 C45.3653,58.4497 58.4497,45.3653 58.4497,29.2248 C58.4497,13.0844 45.3653,0 29.2248,0 C13.0844,0 0,13.0844 0,29.2248 C0,45.3653 13.0844,58.4497 29.2248,58.4497 Z" id="path1_fill"></path>
                            </g>
                        </g>
                        <g id="Shape" opacity="0.694577" transform="translate(30.000000, 6.000000)" fill-rule="nonzero" fill="#2E2D46">
                            <g id="path2_fill-link" transform="translate(0.800000, 0.300000)">
                                <path d="M1.16905,4.67608 C0.523443,4.67608 0,4.15264 0,3.50702 L0,1.16905 C0,0.523443 0.523443,0 1.16905,0 C1.81467,0 2.33811,0.523443 2.33811,1.16905 L2.33811,3.50702 C2.33811,4.15264 1.81467,4.67608 1.16905,4.67608 Z" id="path2_fill"></path>
                            </g>
                        </g>
                        <g id="Shape" opacity="0.694577" transform="translate(30.000000, 53.000000)" fill-rule="nonzero" fill="#2E2D46">
                            <g id="path3_fill-link" transform="translate(0.800000, 0.000000)">
                                <path d="M1.16905,4.67608 C0.523443,4.67608 0,4.15264 0,3.50702 L0,1.16905 C0,0.523443 0.523443,0 1.16905,0 C1.81467,0 2.33811,0.523443 2.33811,1.16905 L2.33811,3.50702 C2.33811,4.15277 1.81467,4.67608 1.16905,4.67608 Z" id="path3_fill"></path>
                            </g>
                        </g>
                        <g id="Shape" opacity="0.694577" transform="translate(53.000000, 30.000000)" fill-rule="nonzero" fill="#2E2D46">
                            <g id="path4_fill-link" transform="translate(0.000000, 0.800000)">
                                <path d="M3.50702,2.33811 L1.16905,2.33811 C0.523443,2.33811 0,1.81467 0,1.16905 C0,0.523443 0.523443,0 1.16905,0 L3.50702,0 C4.15264,0 4.67608,0.523443 4.67608,1.16905 C4.67594,1.81467 4.15264,2.33811 3.50702,2.33811 Z" id="path4_fill"></path>
                            </g>
                        </g>
                        <g id="Shape" opacity="0.694577" transform="translate(6.000000, 30.000000)" fill-rule="nonzero" fill="#2E2D46">
                            <g id="path5_fill-link" transform="translate(0.300000, 0.800000)">
                                <path d="M3.50702,2.33811 L1.16905,2.33811 C0.523443,2.33811 0,1.81467 0,1.16905 C0,0.523443 0.523443,0 1.16905,0 L3.50702,0 C4.15264,0 4.67608,0.523443 4.67608,1.16905 C4.67608,1.81467 4.15264,2.33811 3.50702,2.33811 Z" id="path5_fill"></path>
                            </g>
                        </g>
                        <path d="M28.9390607,37.2197905 L28.9390607,36.0358958 C28.9390607,34.679343 29.1857029,33.5509546 29.6789949,32.6506969 C30.1722868,31.7504391 31.0355347,30.8193646 32.2687645,29.8574453 C33.736308,28.6982093 34.6827977,27.797965 35.108262,27.1566855 C35.5337262,26.515406 35.7464552,25.750815 35.7464552,24.8628896 C35.7464552,23.8269765 35.401156,23.0315552 34.7105473,22.4766018 C34.0199386,21.9216484 33.0272035,21.6441759 31.7323122,21.6441759 C30.5607439,21.6441759 29.475518,21.8106594 28.4766018,22.1436314 C27.4776857,22.4766035 26.5034487,22.8773972 25.5538618,23.3460245 L24,20.0903141 C26.5034565,18.6967644 29.1856911,18 32.0467843,18 C34.4639147,18 36.3815583,18.5919414 37.7997726,19.775842 C39.2179868,20.9597427 39.9270833,22.5937476 39.9270833,24.677906 C39.9270833,25.6028284 39.7914301,26.4259969 39.5201195,27.1474364 C39.248809,27.8688758 38.8387662,28.5563911 38.2899789,29.2100029 C37.7411917,29.8636147 36.794702,30.7145305 35.4504815,31.7627758 C34.3035778,32.6630336 33.5359038,33.4091264 33.1474364,34.0010768 C32.758969,34.5930271 32.5647382,35.3884484 32.5647382,36.3873645 L32.5647382,37.2197905 L28.9390607,37.2197905 Z M28.1806281,43.1207656 C28.1806281,41.2585886 29.0870385,40.327514 30.8998863,40.327514 C31.7878117,40.327514 32.466078,40.5710733 32.9347053,41.058199 C33.4033326,41.5453248 33.6376428,42.2328401 33.6376428,43.1207656 C33.6376428,43.9963587 33.4002496,44.6900401 32.9254561,45.2018305 C32.4506626,45.7136208 31.7754794,45.9695122 30.8998863,45.9695122 C30.0242931,45.9695122 29.3521929,45.7197869 28.8835656,45.2203288 C28.4149383,44.7208708 28.1806281,44.0210233 28.1806281,43.1207656 Z" id="?" fill="#6E6E7F"></path>
                    </g>
                </g>
            </g>
        </g>
    </g>
</svg>